<svg id="Layer_1" data-name="Layer 1" xmlns="http://www.w3.org/2000/svg" viewBox="0 0 150 150"><defs><style>.cls-1{opacity:0.42;}.cls-2{fill:#005f6e;}.cls-3{opacity:0.4;}</style></defs><g class="cls-1"><path class="cls-2" d="M65.09,33.74h0l-1.17-.16a.1.1,0,0,1-.09-.11v-1c-.17-.06-.35-.13-.52-.21l-.7.68a.1.1,0,0,1-.14,0l-.93-.72a.1.1,0,0,1,0-.14l.48-.85c-.12-.15-.23-.29-.34-.45l-.95.25a.12.12,0,0,1-.13-.07L60.1,29.9a.11.11,0,0,1,0-.14l.85-.49a3.43,3.43,0,0,1-.07-.56l-1-.26a.13.13,0,0,1-.08-.12l.16-1.17a.11.11,0,0,1,.11-.1h1a3.38,3.38,0,0,1,.22-.52l-.69-.7a.12.12,0,0,1,0-.15l.72-.93a.12.12,0,0,1,.14,0l.86.49a4.7,4.7,0,0,1,.44-.34l-.24-.95a.1.1,0,0,1,.06-.13l1.09-.45a.11.11,0,0,1,.14,0l.5.85a4.85,4.85,0,0,1,.55-.08l.27-.94a.1.1,0,0,1,.12-.08l1.16.16a.1.1,0,0,1,.1.1v1c.17.07.35.14.51.22l.7-.68a.11.11,0,0,1,.15,0l.93.72a.11.11,0,0,1,0,.14l-.49.85a3,3,0,0,1,.34.45l1-.25a.11.11,0,0,1,.13.07L70.28,27a.11.11,0,0,1,0,.14l-.84.49a5,5,0,0,1,.07.56l.94.26a.11.11,0,0,1,.08.12l-.15,1.17a.13.13,0,0,1-.11.1h-1a3.38,3.38,0,0,1-.22.52l.69.7a.11.11,0,0,1,0,.14l-.72.94a.14.14,0,0,1-.15,0l-.92-.53a.11.11,0,0,1,.11-.19l.84.48.6-.78-.67-.69a.13.13,0,0,1,0-.13,4.91,4.91,0,0,0,.26-.63.12.12,0,0,1,.11-.08h1l.13-1-.93-.26a.13.13,0,0,1-.08-.1,5.05,5.05,0,0,0-.08-.68.11.11,0,0,1,0-.12L70,27l-.37-.91-.94.24a.12.12,0,0,1-.12,0,4.26,4.26,0,0,0-.41-.54.11.11,0,0,1,0-.13l.48-.84-.78-.6-.69.67a.09.09,0,0,1-.13,0,4.39,4.39,0,0,0-.63-.26.14.14,0,0,1-.08-.1v-1l-1-.13-.26.93a.1.1,0,0,1-.1.08,3.84,3.84,0,0,0-.68.09.12.12,0,0,1-.12-.05l-.48-.84-.91.38.24.93A.11.11,0,0,1,63,25a4.22,4.22,0,0,0-.55.42.1.1,0,0,1-.12,0L61.5,25l-.6.78.67.69a.13.13,0,0,1,0,.13,3.52,3.52,0,0,0-.27.63.1.1,0,0,1-.1.08h-1l-.14,1,.93.26a.12.12,0,0,1,.09.1,3.83,3.83,0,0,0,.08.68.11.11,0,0,1,0,.12l-.83.49.37.91.94-.24a.12.12,0,0,1,.12.05,5.12,5.12,0,0,0,.41.54.12.12,0,0,1,0,.13l-.48.84.78.6.69-.68a.09.09,0,0,1,.12,0,5,5,0,0,0,.64.26.11.11,0,0,1,.07.1v1l1,.13.26-.93a.11.11,0,0,1,.13-.08.12.12,0,0,1,.08.14l-.29,1A.11.11,0,0,1,65.09,33.74Z"/><path class="cls-2" d="M68.14,27.34a.1.1,0,0,1-.1-.07,3.12,3.12,0,0,0-1.66-1.67,3.07,3.07,0,0,0-2.36,0,.13.13,0,0,1-.15-.06.12.12,0,0,1,.06-.15,3.31,3.31,0,0,1,2.53,0,3.26,3.26,0,0,1,1.78,1.79.1.1,0,0,1-.06.14Z"/><path class="cls-2" d="M64.92,31.73h0a3.26,3.26,0,0,1-2.77-2,.11.11,0,0,1,.06-.15.11.11,0,0,1,.14.07,3,3,0,0,0,2.59,1.89.11.11,0,0,1,.1.12A.1.1,0,0,1,64.92,31.73Z"/><path class="cls-2" d="M66.84,34.51a.12.12,0,0,1-.1-.07L65.12,30.5a.13.13,0,0,0-.13-.08,1.91,1.91,0,0,1-1.72-1.19,2.06,2.06,0,0,1,.18-1.91.35.35,0,0,1,.62.06l.45,1.08a.13.13,0,0,0,.17.07l.91-.37a.14.14,0,0,0,.07-.18l-.44-1.08a.34.34,0,0,1,.06-.36.36.36,0,0,1,.35-.12,2.09,2.09,0,0,1,1.47,1.24,1.92,1.92,0,0,1-.39,2.05.14.14,0,0,0,0,.15L68.3,33.8a.1.1,0,0,1-.06.14.11.11,0,0,1-.14-.06l-1.62-3.94a.38.38,0,0,1,.07-.38,1.68,1.68,0,0,0,.35-1.82,1.84,1.84,0,0,0-1.31-1.1.12.12,0,0,0-.13,0,.14.14,0,0,0,0,.14l.44,1.08a.35.35,0,0,1-.2.46l-.9.37a.36.36,0,0,1-.47-.19l-.44-1.08a.13.13,0,0,0-.11-.08.14.14,0,0,0-.13.06,1.85,1.85,0,0,0-.16,1.71A1.72,1.72,0,0,0,65,30.2a.35.35,0,0,1,.31.22l1.62,3.94a.1.1,0,0,1-.06.14Z"/></g><g class="cls-1"><path class="cls-2" d="M145.29,31.27a.09.09,0,0,1-.07,0A6.94,6.94,0,0,1,143,29.1a6.08,6.08,0,0,1-.31-4.74.12.12,0,0,1,.06-.06.14.14,0,0,1,.09,0,3.67,3.67,0,0,0,1.05.21l.17,0a3.51,3.51,0,0,0,1.8-.33.09.09,0,0,1,.11,0,3.38,3.38,0,0,0,1.72.62l.17,0a4.06,4.06,0,0,0,1.07,0,.15.15,0,0,1,.09,0,.1.1,0,0,1,0,.07,6,6,0,0,1-1.1,4.62,6.83,6.83,0,0,1-2.6,1.75Zm-2.47-6.73a5.78,5.78,0,0,0,.32,4.45A6.49,6.49,0,0,0,145.29,31a6.43,6.43,0,0,0,2.45-1.66,5.75,5.75,0,0,0,1.07-4.33,4.24,4.24,0,0,1-1,0l-.18,0a3.58,3.58,0,0,1-1.76-.62,3.68,3.68,0,0,1-1.85.32l-.18,0A4,4,0,0,1,142.82,24.54Z"/><path class="cls-2" d="M145.21,32.21h-.05a7.92,7.92,0,0,1-2.93-2.72A7.57,7.57,0,0,1,142,23.3a.1.1,0,0,1,.08-.06.1.1,0,0,1,.09,0,2.86,2.86,0,0,0,1.43.39h.19a3.06,3.06,0,0,0,2.08-.46l.08,0a.12.12,0,0,1,.08,0,3,3,0,0,0,2,.8l.19,0a2.84,2.84,0,0,0,1.47-.14.12.12,0,0,1,.1,0,.12.12,0,0,1,.07.07A7.52,7.52,0,0,1,148.56,30,7.91,7.91,0,0,1,145.21,32.21Zm-3.06-8.7a7.24,7.24,0,0,0,.27,5.87A7.79,7.79,0,0,0,145.21,32a8,8,0,0,0,3.18-2.11,7.19,7.19,0,0,0,1.25-5.73,3.64,3.64,0,0,1-1.47.11l-.19,0a3.48,3.48,0,0,1-2-.81,3.44,3.44,0,0,1-2.15.45h-.2A3.62,3.62,0,0,1,142.15,23.51Z"/><path class="cls-2" d="M145.49,28.83a.16.16,0,0,1-.09,0l-.85-.76a.11.11,0,0,1,0-.16.12.12,0,0,1,.16,0l.77.69,1.74-1.82a.1.1,0,0,1,.15,0,.11.11,0,0,1,0,.16l-1.81,1.9Z"/></g><g class="cls-1"><path class="cls-2" d="M99.42,4.81h-.07a6.71,6.71,0,0,1-2.27-2.17,6,6,0,0,1-.31-4.73.09.09,0,0,1,.06-.06.08.08,0,0,1,.08,0A3.73,3.73,0,0,0,98-1.95h.17a3.36,3.36,0,0,0,1.79-.32.1.1,0,0,1,.12,0,3.33,3.33,0,0,0,1.71.62l.18,0a4.06,4.06,0,0,0,1.07,0,.08.08,0,0,1,.08,0s0,0,0,.07A6,6,0,0,1,102,3.05a6.78,6.78,0,0,1-2.6,1.76ZM97-1.92a5.71,5.71,0,0,0,.32,4.44,6.56,6.56,0,0,0,2.14,2.06,6.58,6.58,0,0,0,2.46-1.67,5.77,5.77,0,0,0,1.07-4.32,4.24,4.24,0,0,1-1,0l-.18,0A3.77,3.77,0,0,1,100-2a3.63,3.63,0,0,1-1.84.31H98A4.34,4.34,0,0,1,97-1.92Z"/><path class="cls-2" d="M99.34,5.75h0A7.92,7.92,0,0,1,96.35,3a7.5,7.5,0,0,1-.22-6.19.09.09,0,0,1,.07-.06.12.12,0,0,1,.1,0,2.86,2.86,0,0,0,1.43.39h.19A3.06,3.06,0,0,0,100-3.26a.08.08,0,0,1,.08,0,.07.07,0,0,1,.07,0,3.19,3.19,0,0,0,2,.8l.19,0a2.63,2.63,0,0,0,1.47-.15.17.17,0,0,1,.1,0,.11.11,0,0,1,.06.07,7.5,7.5,0,0,1-1.26,6.06A7.91,7.91,0,0,1,99.34,5.75Zm-3.06-8.7a7.24,7.24,0,0,0,.27,5.87,7.89,7.89,0,0,0,2.78,2.61,7.9,7.9,0,0,0,3.19-2.11,7.25,7.25,0,0,0,1.25-5.74,3.58,3.58,0,0,1-1.47.12l-.2,0a3.44,3.44,0,0,1-2-.81,3.53,3.53,0,0,1-2.16.45h-.19A3.57,3.57,0,0,1,96.28-2.95Z"/><path class="cls-2" d="M99.62,2.37a.16.16,0,0,1-.09,0l-.85-.76a.11.11,0,0,1,0-.16.11.11,0,0,1,.15,0l.78.69L101.33.27a.12.12,0,0,1,.16,0,.1.1,0,0,1,0,.16l-1.81,1.9S99.64,2.36,99.62,2.37Z"/></g><g class="cls-1"><path class="cls-2" d="M7.84,34.69A6.69,6.69,0,0,1,5,34.07a6,6,0,0,1-2.78-3.84.08.08,0,0,1,0-.08s0,0,.07,0a4,4,0,0,0,1-.38l.15-.08a3.43,3.43,0,0,0,1.34-1.23.13.13,0,0,1,.11-.06A3.36,3.36,0,0,0,6.64,28l.15-.08a3.82,3.82,0,0,0,.89-.6.11.11,0,0,1,.08,0,.12.12,0,0,1,.08,0,6,6,0,0,1,1.53,4.49,6.77,6.77,0,0,1-1.26,2.86.14.14,0,0,1-.08,0Zm-5.43-4.4a5.74,5.74,0,0,0,2.65,3.58,6.54,6.54,0,0,0,2.9.6,6.33,6.33,0,0,0,1.19-2.72,5.7,5.7,0,0,0-1.4-4.23,4.47,4.47,0,0,1-.85.56l-.16.08a3.71,3.71,0,0,1-1.83.42,3.71,3.71,0,0,1-1.39,1.25l-.16.08A4.17,4.17,0,0,1,2.41,30.29Z"/><path class="cls-2" d="M8,35.55a8,8,0,0,1-3.47-.76,7.51,7.51,0,0,1-3.49-5.11.1.1,0,0,1,0-.1.14.14,0,0,1,.09,0,2.9,2.9,0,0,0,1.42-.43L2.76,29a3.19,3.19,0,0,0,1.52-1.5.18.18,0,0,1,0-.07.14.14,0,0,1,.09,0,3.14,3.14,0,0,0,2.09-.38L6.68,27a2.84,2.84,0,0,0,1.17-.91A.16.16,0,0,1,7.93,26a.17.17,0,0,1,.1,0,7.54,7.54,0,0,1,2.16,5.8A7.84,7.84,0,0,1,8.52,35.5l0,0A2.93,2.93,0,0,1,8,35.55ZM1.3,29.77a7.21,7.21,0,0,0,3.35,4.82,7.88,7.88,0,0,0,3.75.72A7.79,7.79,0,0,0,10,31.83a7.26,7.26,0,0,0-2-5.52,3.55,3.55,0,0,1-1.18.88l-.18.09a3.53,3.53,0,0,1-2.16.41,3.5,3.5,0,0,1-1.58,1.53l-.17.09A3.54,3.54,0,0,1,1.3,29.77Zm3.08-2.21Z"/><path class="cls-2" d="M6.89,32.51h0l-1.13-.19a.11.11,0,1,1,0-.22l1,.17.49-2.47a.11.11,0,0,1,.13-.09.12.12,0,0,1,.09.13L7,32.42A.12.12,0,0,1,6.89,32.51Z"/></g><g class="cls-1"><path class="cls-2" d="M86.66,15.39l-11.11-4.3,2.64-6.81L89.3,8.57ZM75.86,11l10.67,4.12L89,8.71,78.32,4.58Z"/><path class="cls-2" d="M86.68,16.49l-11.9-4.6-.16-1.41,13.13,5.08ZM75,11.72l11.63,4.5.67-.58L74.9,10.85Z"/><rect class="cls-2" x="77.89" y="7.71" width="3.65" height="0.24" transform="translate(3.65 32.93) rotate(-23.87)"/><rect class="cls-2" x="78.42" y="6.79" width="1.77" height="0.24" transform="translate(3.99 32.68) rotate(-23.87)"/></g><g class="cls-1"><path class="cls-2" d="M9.47,16.05,0,12,5.35-.47,14.82,3.6ZM.31,11.86l9,3.89,5.17-12-9-3.89Z"/><path class="cls-2" d="M5.61,12.12a3.06,3.06,0,1,1,4-1.6A3.06,3.06,0,0,1,5.61,12.12Zm2.32-5.4a2.82,2.82,0,1,0,1.48,3.71A2.83,2.83,0,0,0,7.93,6.72Z"/><path class="cls-2" d="M8.11,10.56A4,4,0,0,1,6.63,9.28,2.2,2.2,0,0,0,4.19,8.15l-.07-.22A2.44,2.44,0,0,1,6.83,9.15S8.11,11,9.48,10.31l.11.21A1.65,1.65,0,0,1,8.11,10.56Z"/><path class="cls-2" d="M7.59,3.14l-2.25-1L5.88.92l2.25,1ZM5.65,2.05l1.82.78L7.82,2,6,1.23Z"/><rect class="cls-2" x="8.65" y="-0.41" width="0.23" height="10.14" transform="translate(1.02 10.88) rotate(-66.74)"/><rect class="cls-2" x="8.95" y="2.52" width="0.46" height="1.13" transform="translate(1.97 -3.38) rotate(23.26)"/><rect class="cls-2" x="9.91" y="2.93" width="0.46" height="1.13" transform="matrix(0.92, 0.39, -0.39, 0.92, 2.21, -3.72)"/><rect class="cls-2" x="10.87" y="3.35" width="0.46" height="1.13" transform="translate(2.45 -4.07) rotate(23.26)"/><path class="cls-2" d="M5.22,13a4,4,0,1,1,5.31-2.12A4,4,0,0,1,5.22,13Zm3.1-7.21a3.81,3.81,0,1,0,2,5A3.81,3.81,0,0,0,8.32,5.82Z"/></g><g class="cls-1"><path class="cls-2" d="M50.12,39,31.2,45.13,30,42.45l-1.2-3.7,19.44-6.29,1.23,3.8ZM31.33,44.85l18.52-6-.56-2.53-1.16-3.57-19,6.15,1.12,3.47Z"/><rect class="cls-2" x="29.7" y="39.26" width="20.19" height="0.23" transform="translate(-10.2 14.18) rotate(-17.95)"/><polygon class="cls-2" points="32.54 44.64 32 43.44 48.54 38.08 48.65 39.35 48.41 39.37 48.33 38.39 32.32 43.58 32.75 44.54 32.54 44.64"/><rect class="cls-2" x="38.24" y="39.84" width="3.61" height="0.65" transform="translate(-10.43 14.3) rotate(-17.95)"/></g><g class="cls-1"><path class="cls-2" d="M53.76,12.53l-4-3.35-.47-1.3L55.09.2,56,.11l5.57,4.62.06.86L55,12.68ZM49.88,9.07l4,3.28,1.13.13,6.42-7,0-.7L55.89.3l-.7.08L49.47,7.92Z"/><path class="cls-2" d="M56,10.64l-4.8-4L55.35,1l5.44,4.51Zm-4.54-4L56,10.38l4.57-4.89L55.38,1.23Z"/><path class="cls-2" d="M55,9.81,52.17,7.5,56,3.3l2.34,1.93Zm-2.5-2.33,2.47,2,3.19-4.27-2.06-1.7Z"/><rect class="cls-2" x="53.22" y="8.53" width="0.52" height="0.44" transform="translate(17.89 -32.12) rotate(39.66)"/><path class="cls-2" d="M53.91,8.94l-.69-.58.81-1,.69.58Zm-.42-.6.4.33L54.46,8l-.4-.33Z"/><polygon class="cls-2" points="54.38 7.81 54.23 7.68 54.4 7.49 53.91 6.73 54.07 6.62 54.63 7.5 54.38 7.81"/><polygon class="cls-2" points="50.03 7.01 49.63 6.68 49.98 6.25 50.13 6.37 49.9 6.65 50.15 6.87 50.03 7.01"/><polygon class="cls-2" points="49.04 7.68 48.9 7.56 49.25 7.13 49.68 7.49 49.56 7.63 49.28 7.4 49.04 7.68"/></g><g class="cls-3"><polygon class="cls-2" points="33.67 20.43 24.01 22.99 22.32 16.6 26.76 15.42 26.81 15.63 22.58 16.75 24.16 22.73 33.41 20.28 31.82 14.3 28.87 15.08 28.82 14.87 31.97 14.04 33.67 20.43"/><path class="cls-2" d="M29.05,19.94a1.62,1.62,0,1,1,1.15-2A1.63,1.63,0,0,1,29.05,19.94ZM28.28,17A1.4,1.4,0,1,0,30,18,1.4,1.4,0,0,0,28.28,17Z"/><path class="cls-2" d="M29.24,20.67a2.37,2.37,0,1,1,1.69-2.9A2.37,2.37,0,0,1,29.24,20.67Zm-1.16-4.38a2.16,2.16,0,1,0,2.64,1.53A2.17,2.17,0,0,0,28.08,16.29Z"/><path class="cls-2" d="M31.76,15.8l-1,.25-.25-1,1-.25Zm-.8,0,.54-.15-.15-.54-.54.15Z"/><polygon class="cls-2" points="25.89 15.84 25.69 15.76 26.14 14.66 29.02 13.9 29.91 14.63 29.78 14.79 28.97 14.14 26.3 14.85 25.89 15.84"/><rect class="cls-2" x="24.93" y="16.91" width="0.21" height="4.77" transform="translate(-4.11 7.06) rotate(-14.85)"/><rect class="cls-2" x="24.24" y="15.88" width="0.21" height="0.28" transform="matrix(0.97, -0.26, 0.26, 0.97, -3.29, 6.78)"/></g><g class="cls-3"><polygon class="cls-2" points="148.38 8.45 138.72 11.01 137.02 4.62 141.46 3.44 141.52 3.65 137.28 4.77 138.87 10.75 148.11 8.3 146.53 2.32 143.58 3.1 143.52 2.89 146.68 2.05 148.38 8.45"/><path class="cls-2" d="M143.76,8a1.61,1.61,0,1,1,1.14-2A1.62,1.62,0,0,1,143.76,8ZM143,5a1.4,1.4,0,1,0,1.72,1A1.4,1.4,0,0,0,143,5Z"/><path class="cls-2" d="M144,8.68a2.37,2.37,0,1,1,1.68-2.89A2.37,2.37,0,0,1,144,8.68Zm-1.16-4.37a2.16,2.16,0,1,0,2.64,1.53A2.15,2.15,0,0,0,142.79,4.31Z"/><path class="cls-2" d="M146.47,3.82l-1,.25-.25-1,1-.25Zm-.81,0,.54-.15-.14-.54-.54.15Z"/><polygon class="cls-2" points="140.59 3.86 140.4 3.77 140.85 2.68 143.73 1.92 144.62 2.65 144.48 2.81 143.68 2.15 141 2.86 140.59 3.86"/><rect class="cls-2" x="139.64" y="4.93" width="0.21" height="4.77" transform="translate(2.79 36.06) rotate(-14.85)"/><rect class="cls-2" x="138.95" y="3.9" width="0.21" height="0.28" transform="translate(3.61 35.77) rotate(-14.85)"/></g><g class="cls-1"><path class="cls-2" d="M122.33,19.3l-8.26-2,3.62-15.2,8.26,2Zm-7.94-2.17L122.13,19l3.5-14.67-7.74-1.85Z"/><rect class="cls-2" x="117.49" y="4.71" width="0.56" height="2.17" transform="translate(4.55 -27.14) rotate(13.4)"/><rect class="cls-2" x="116.48" y="8.64" width="0.56" height="2.79" transform="translate(5.51 -26.79) rotate(13.4)"/><rect class="cls-2" x="120.49" y="4" width="0.27" height="8.22" transform="translate(84.78 123.58) rotate(-76.6)"/><rect class="cls-2" x="120.34" y="4.65" width="0.27" height="8.22" transform="translate(84.03 123.92) rotate(-76.6)"/></g><g class="cls-1"><path class="cls-2" d="M37.82,5.56l-8.26-2,3.62-15.2,8.26,2ZM29.88,3.39l7.74,1.84L41.11-9.44l-7.73-1.85Z"/></g><g class="cls-1"><path class="cls-2" d="M51.46,71.65h0l-1.16-.16a.1.1,0,0,1-.1-.11v-1a4.55,4.55,0,0,1-.51-.21l-.7.68a.11.11,0,0,1-.15,0l-.93-.72a.11.11,0,0,1,0-.14l.49-.85a3.54,3.54,0,0,1-.34-.45l-1,.25a.11.11,0,0,1-.13-.07l-.45-1.09a.11.11,0,0,1,.05-.14l.84-.49a5,5,0,0,1-.07-.56l-.94-.26a.11.11,0,0,1-.08-.12l.15-1.17a.12.12,0,0,1,.11-.1h1a4.77,4.77,0,0,1,.22-.52l-.69-.7a.12.12,0,0,1,0-.15l.72-.93a.14.14,0,0,1,.15,0l.85.49a4.7,4.7,0,0,1,.44-.34L49,61.84a.11.11,0,0,1,.07-.13l1.09-.45a.1.1,0,0,1,.13.05l.5.85a5.21,5.21,0,0,1,.55-.08l.27-.94a.11.11,0,0,1,.12-.08l1.17.16a.1.1,0,0,1,.09.1v1l.52.22.7-.68a.1.1,0,0,1,.14,0l.93.72a.1.1,0,0,1,0,.14l-.48.85a5.3,5.3,0,0,1,.34.45l.95-.25a.12.12,0,0,1,.13.07l.44,1.09a.11.11,0,0,1,0,.14l-.85.49a3.43,3.43,0,0,1,.07.56l1,.26a.13.13,0,0,1,.08.12l-.16,1.17a.12.12,0,0,1-.11.1h-1a3.38,3.38,0,0,1-.22.52l.69.7a.11.11,0,0,1,0,.14l-.72.94a.12.12,0,0,1-.14,0l-.93-.53a.11.11,0,0,1,.11-.19l.84.48.6-.78-.67-.69a.13.13,0,0,1,0-.13,3.85,3.85,0,0,0,.27-.63.1.1,0,0,1,.1-.08h1l.14-1-.93-.26a.11.11,0,0,1-.08-.1,5.06,5.06,0,0,0-.09-.68.11.11,0,0,1,0-.12l.83-.49L56,64l-.94.24a.12.12,0,0,1-.12,0,4.26,4.26,0,0,0-.41-.54.12.12,0,0,1,0-.13l.48-.84-.78-.6-.69.67a.08.08,0,0,1-.12,0,5,5,0,0,0-.64-.26.11.11,0,0,1-.07-.1v-1l-1-.13-.27.93a.1.1,0,0,1-.1.08,3.61,3.61,0,0,0-.67.09.11.11,0,0,1-.12,0l-.49-.84-.91.38.24.93a.11.11,0,0,1,0,.12,3.57,3.57,0,0,0-.54.42.12.12,0,0,1-.13,0l-.84-.48-.6.78.67.69a.13.13,0,0,1,0,.13,4.39,4.39,0,0,0-.26.63.12.12,0,0,1-.11.08h-1l-.13,1,.93.26a.11.11,0,0,1,.08.1,5.05,5.05,0,0,0,.08.68.11.11,0,0,1-.05.12l-.83.49.37.91.94-.24a.12.12,0,0,1,.12.05,5.12,5.12,0,0,0,.41.54.11.11,0,0,1,0,.13l-.48.84.78.6.69-.68a.1.1,0,0,1,.13,0,4.39,4.39,0,0,0,.63.26.14.14,0,0,1,.08.1v1l1,.13.26-.93a.11.11,0,0,1,.13-.08.11.11,0,0,1,.08.14l-.29,1A.1.1,0,0,1,51.46,71.65Z"/><path class="cls-2" d="M54.51,65.25a.1.1,0,0,1-.1-.07,3.07,3.07,0,0,0-4-1.67.11.11,0,0,1-.14-.06.11.11,0,0,1,.06-.15,3.29,3.29,0,0,1,2.52,0,3.23,3.23,0,0,1,1.78,1.79.1.1,0,0,1-.06.14Z"/><path class="cls-2" d="M51.29,69.64h0a3.26,3.26,0,0,1-2.77-2,.12.12,0,0,1,.06-.15.11.11,0,0,1,.14.07,3.06,3.06,0,0,0,2.59,1.89.11.11,0,0,1,.1.12A.1.1,0,0,1,51.29,69.64Z"/><path class="cls-2" d="M53.21,72.42a.12.12,0,0,1-.1-.07l-1.62-3.94a.13.13,0,0,0-.12-.08,1.91,1.91,0,0,1-1.73-1.19,2.09,2.09,0,0,1,.18-1.91.36.36,0,0,1,.33-.16.36.36,0,0,1,.3.22l.44,1.08a.14.14,0,0,0,.18.07l.9-.37a.14.14,0,0,0,.08-.18l-.44-1.08a.34.34,0,0,1,0-.36.36.36,0,0,1,.35-.12,2.09,2.09,0,0,1,1.47,1.24,1.9,1.9,0,0,1-.39,2.05.14.14,0,0,0,0,.15l1.62,3.94a.12.12,0,0,1-.06.14.12.12,0,0,1-.15-.06l-1.62-3.94a.38.38,0,0,1,.07-.38,1.7,1.7,0,0,0,.36-1.82A1.88,1.88,0,0,0,52,64.55a.12.12,0,0,0-.13,0,.14.14,0,0,0,0,.14l.44,1.08a.35.35,0,0,1-.19.46l-.91.37a.35.35,0,0,1-.46-.19l-.45-1.08a.13.13,0,0,0-.11-.08.12.12,0,0,0-.12.06,1.85,1.85,0,0,0-.16,1.71,1.7,1.7,0,0,0,1.53,1,.38.38,0,0,1,.32.22l1.61,3.94a.1.1,0,0,1-.06.14Z"/></g><g class="cls-1"><path class="cls-2" d="M-.1,99.35h0l-1.17-.16a.11.11,0,0,1-.09-.11v-1a3.27,3.27,0,0,1-.51-.22l-.71.69a.11.11,0,0,1-.14,0l-.93-.72a.1.1,0,0,1,0-.14l.49-.86a3.46,3.46,0,0,1-.34-.44l-1,.24a.09.09,0,0,1-.12-.06l-.45-1.09a.12.12,0,0,1,0-.14l.85-.5a4.86,4.86,0,0,1-.07-.55l-1-.27a.11.11,0,0,1-.08-.12l.16-1.16a.12.12,0,0,1,.11-.1h1a3.27,3.27,0,0,1,.22-.51l-.69-.7a.12.12,0,0,1,0-.15l.72-.93a.11.11,0,0,1,.14,0l.86.49a3.46,3.46,0,0,1,.44-.34l-.24-.95a.11.11,0,0,1,.06-.13L-1.46,89a.11.11,0,0,1,.14.05l.5.84a4.86,4.86,0,0,1,.55-.07L0,88.84a.1.1,0,0,1,.12-.08l1.17.15a.12.12,0,0,1,.09.11v1a4.61,4.61,0,0,1,.51.22l.71-.69a.11.11,0,0,1,.14,0l.93.72a.11.11,0,0,1,0,.15l-.49.85a3.46,3.46,0,0,1,.34.44l1-.24a.1.1,0,0,1,.12.07l.45,1.09a.11.11,0,0,1,0,.13l-.85.5a5.17,5.17,0,0,1,.07.55l1,.27a.11.11,0,0,1,.08.12l-.16,1.17a.12.12,0,0,1-.11.09h-1a3.85,3.85,0,0,1-.22.52l.69.7a.11.11,0,0,1,0,.14l-.72.93a.1.1,0,0,1-.14,0l-.93-.52a.11.11,0,0,1,0-.15.11.11,0,0,1,.15,0l.84.48.6-.78-.67-.69a.11.11,0,0,1,0-.12,3.9,3.9,0,0,0,.26-.64A.12.12,0,0,1,4,95.22h1l.13-1L4.13,94a.12.12,0,0,1-.08-.1A4.72,4.72,0,0,0,4,93.2a.11.11,0,0,1,0-.12l.83-.49-.37-.91-.94.24a.12.12,0,0,1-.12,0A4.26,4.26,0,0,0,3,91.33a.13.13,0,0,1,0-.13l.48-.84-.78-.6L2,90.43a.12.12,0,0,1-.13,0,4.39,4.39,0,0,0-.63-.26.12.12,0,0,1-.07-.11v-1L.18,89l-.26.93a.11.11,0,0,1-.1.08,5.05,5.05,0,0,0-.68.08A.1.1,0,0,1-1,90l-.49-.83-.91.37.24.94a.11.11,0,0,1-.05.12,4.26,4.26,0,0,0-.54.41.11.11,0,0,1-.13,0l-.84-.48-.6.78.67.69a.12.12,0,0,1,0,.13,3.48,3.48,0,0,0-.26.63.13.13,0,0,1-.11.08h-1l-.13,1,.93.26a.12.12,0,0,1,.08.1,5.05,5.05,0,0,0,.08.68A.12.12,0,0,1-4,95l-.83.48.37.91.94-.23a.1.1,0,0,1,.12,0,5.23,5.23,0,0,0,.41.55.11.11,0,0,1,0,.12l-.48.84.78.6.69-.67a.12.12,0,0,1,.13,0,3.52,3.52,0,0,0,.63.27.1.1,0,0,1,.07.1v1l1,.14.26-.93a.1.1,0,0,1,.13-.08.11.11,0,0,1,.08.14l-.29,1A.1.1,0,0,1-.1,99.35Z"/><path class="cls-2" d="M3,93a.12.12,0,0,1-.1-.07,3.05,3.05,0,0,0-1.66-1.67,3.07,3.07,0,0,0-2.36,0,.1.1,0,0,1-.14-.06A.1.1,0,0,1-1.25,91a3.24,3.24,0,0,1,2.52,0A3.23,3.23,0,0,1,3.05,92.8a.1.1,0,0,1-.06.14Z"/><path class="cls-2" d="M1.65,100.12a.12.12,0,0,1-.1-.07L-.07,96.11A.13.13,0,0,0-.19,96a1.93,1.93,0,0,1-1.73-1.19,2.06,2.06,0,0,1,.18-1.91.33.33,0,0,1,.33-.16.35.35,0,0,1,.3.22l.44,1.07a.14.14,0,0,0,.17.08l.91-.38a.14.14,0,0,0,.08-.17L0,92.51a.38.38,0,0,1,.06-.37A.36.36,0,0,1,.45,92a2.08,2.08,0,0,1,1.47,1.23,1.93,1.93,0,0,1-.39,2.06.14.14,0,0,0,0,.15L3.12,99.4a.12.12,0,0,1-.07.15.12.12,0,0,1-.14-.06L1.29,95.55a.38.38,0,0,1,.07-.38,1.68,1.68,0,0,0,.35-1.82A1.86,1.86,0,0,0,.4,92.24a.14.14,0,0,0-.13.05.14.14,0,0,0,0,.14L.69,93.5A.37.37,0,0,1,.5,94l-.91.37a.37.37,0,0,1-.47-.19l-.44-1.08A.12.12,0,0,0-1.43,93a.12.12,0,0,0-.13.06,1.85,1.85,0,0,0-.15,1.71,1.7,1.7,0,0,0,1.53,1A.33.33,0,0,1,.13,96L1.75,100a.11.11,0,0,1-.06.15Z"/></g><g class="cls-1"><path class="cls-2" d="M145.29,74.58a.1.1,0,0,1-.07,0A6.94,6.94,0,0,1,143,72.4a6.05,6.05,0,0,1-.31-4.73.13.13,0,0,1,.06-.07h.09a4,4,0,0,0,1.05.22H144a3.4,3.4,0,0,0,1.8-.33.11.11,0,0,1,.11,0,3.46,3.46,0,0,0,1.72.63h.17a3.71,3.71,0,0,0,1.07,0,.14.14,0,0,1,.09,0,.12.12,0,0,1,0,.08,6,6,0,0,1-1.1,4.61,6.7,6.7,0,0,1-2.6,1.75Zm-2.47-6.73a5.76,5.76,0,0,0,.32,4.44,6.56,6.56,0,0,0,2.15,2.06,6.5,6.5,0,0,0,2.45-1.67,5.74,5.74,0,0,0,1.07-4.33,3.78,3.78,0,0,1-1,0h-.18a3.56,3.56,0,0,1-1.76-.63,3.68,3.68,0,0,1-1.85.32h-.18A5.09,5.09,0,0,1,142.82,67.85Z"/><path class="cls-2" d="M145.21,75.52h-.05a7.92,7.92,0,0,1-2.93-2.72,7.54,7.54,0,0,1-.23-6.18.1.1,0,0,1,.08-.07.08.08,0,0,1,.09,0,3,3,0,0,0,1.43.38l.19,0a3.13,3.13,0,0,0,2.08-.46.11.11,0,0,1,.08,0l.08,0a3,3,0,0,0,2,.8l.19,0a2.84,2.84,0,0,0,1.47-.14.12.12,0,0,1,.1,0,.18.18,0,0,1,.07.08,7.53,7.53,0,0,1-1.27,6.06A8,8,0,0,1,145.21,75.52Zm-3.06-8.7a7.21,7.21,0,0,0,.27,5.86,7.79,7.79,0,0,0,2.79,2.61,7.89,7.89,0,0,0,3.18-2.1,7.21,7.21,0,0,0,1.25-5.74,3.64,3.64,0,0,1-1.47.11l-.19,0a3.5,3.5,0,0,1-2-.8,3.51,3.51,0,0,1-2.15.45l-.2,0A3.68,3.68,0,0,1,142.15,66.82Z"/><path class="cls-2" d="M145.49,72.13a.09.09,0,0,1-.09,0l-.85-.76a.1.1,0,0,1,0-.15.11.11,0,0,1,.16,0l.77.69L147.21,70a.11.11,0,0,1,.16.15l-1.81,1.91A.09.09,0,0,1,145.49,72.13Z"/></g><g class="cls-1"><path class="cls-2" d="M7.84,78A6.54,6.54,0,0,1,5,77.37a6,6,0,0,1-2.78-3.83.09.09,0,0,1,0-.09.12.12,0,0,1,.07,0,4,4,0,0,0,1-.38l.15-.08a3.36,3.36,0,0,0,1.34-1.23.13.13,0,0,1,.11-.06,3.42,3.42,0,0,0,1.78-.38l.15-.08a3.83,3.83,0,0,0,.89-.61.11.11,0,0,1,.08,0,.2.2,0,0,1,.08,0,6,6,0,0,1,1.53,4.49A6.84,6.84,0,0,1,8.11,78,.12.12,0,0,1,8,78Zm-5.43-4.4a5.78,5.78,0,0,0,2.65,3.59,6.49,6.49,0,0,0,2.9.59,6.27,6.27,0,0,0,1.19-2.72,5.73,5.73,0,0,0-1.4-4.23,4,4,0,0,1-.85.56l-.16.08a3.6,3.6,0,0,1-1.83.42,3.55,3.55,0,0,1-1.39,1.25l-.16.09A4.11,4.11,0,0,1,2.41,73.59Z"/><path class="cls-2" d="M8,78.85a8,8,0,0,1-3.47-.76A7.51,7.51,0,0,1,1.06,73a.08.08,0,0,1,0-.09.11.11,0,0,1,.09,0,2.76,2.76,0,0,0,1.42-.43l.16-.09a3.15,3.15,0,0,0,1.52-1.5.1.1,0,0,1,0-.06.1.1,0,0,1,.09,0,3.06,3.06,0,0,0,2.09-.38l.17-.08a2.74,2.74,0,0,0,1.17-.91.1.1,0,0,1,.08,0,.12.12,0,0,1,.1,0,7.56,7.56,0,0,1,2.16,5.8A7.84,7.84,0,0,1,8.52,78.8l0,0A2,2,0,0,1,8,78.85ZM1.3,73.07a7.17,7.17,0,0,0,3.35,4.82,7.8,7.8,0,0,0,3.75.73A7.85,7.85,0,0,0,10,75.14a7.22,7.22,0,0,0-2-5.52,3.7,3.7,0,0,1-1.18.88l-.18.08A3.37,3.37,0,0,1,4.45,71a3.46,3.46,0,0,1-1.58,1.53l-.17.1A3.46,3.46,0,0,1,1.3,73.07Zm3.08-2.21Z"/><path class="cls-2" d="M6.89,75.81h0l-1.13-.18a.11.11,0,1,1,0-.22l1,.17.49-2.48A.1.1,0,0,1,7.42,73a.11.11,0,0,1,.09.13L7,75.73A.11.11,0,0,1,6.89,75.81Z"/></g><g class="cls-1"><path class="cls-2" d="M130,41.08l-11.11-4.29L121.48,30l11.1,4.3Zm-10.8-4.43,10.66,4.13,2.47-6.38-10.67-4.12Z"/><path class="cls-2" d="M130,42.19l-11.9-4.6-.17-1.41L131,41.26Zm-11.68-4.77,11.63,4.49.67-.58-12.4-4.79Z"/><rect class="cls-2" x="121.18" y="33.4" width="3.65" height="0.24" transform="translate(-3.04 52.65) rotate(-23.87)"/><rect class="cls-2" x="121.71" y="32.48" width="1.77" height="0.24" transform="translate(-2.71 52.4) rotate(-23.87)"/></g><g class="cls-1"><path class="cls-2" d="M140.21,90.14l-11.11-4.3L131.74,79l11.11,4.3Zm-10.8-4.43,10.67,4.12,2.46-6.38-10.67-4.12Z"/><path class="cls-2" d="M140.23,91.24l-11.9-4.6-.16-1.41,13.13,5.08Zm-11.68-4.77L140.18,91l.67-.57-12.4-4.8Z"/><rect class="cls-2" x="131.44" y="82.46" width="3.65" height="0.24" transform="translate(-22.02 60.99) rotate(-23.87)"/><rect class="cls-2" x="131.97" y="81.53" width="1.77" height="0.24" transform="translate(-21.68 60.75) rotate(-23.87)"/></g><g class="cls-1"><path class="cls-2" d="M97.26,38.82,87,38.71l.13-13.55,10.31.11Zm-10.07-.34,9.84.1.13-13.08-9.83-.1Z"/><path class="cls-2" d="M92.18,36.68a3.06,3.06,0,1,1,3.09-3A3.06,3.06,0,0,1,92.18,36.68Zm.06-5.88A2.82,2.82,0,1,0,95,33.65,2.82,2.82,0,0,0,92.24,30.8Z"/><path class="cls-2" d="M93.88,34.27A4,4,0,0,1,92,33.66a2.2,2.2,0,0,0-2.69-.1l-.15-.18a2.45,2.45,0,0,1,3,.09s1.92,1.24,2.89,0l.19.15A1.68,1.68,0,0,1,93.88,34.27Z"/><path class="cls-2" d="M90.55,27.63l-2.45,0V26.24l2.45,0Zm-2.22-.26,2,0V26.5l-2,0Z"/><rect class="cls-2" x="92.11" y="23.5" width="0.23" height="10.14" transform="translate(62.72 120.5) rotate(-89.42)"/><rect class="cls-2" x="91.77" y="26.4" width="0.46" height="1.13" transform="translate(0.28 -0.92) rotate(0.58)"/><rect class="cls-2" x="92.81" y="26.41" width="0.46" height="1.13" transform="translate(0.28 -0.93) rotate(0.58)"/><rect class="cls-2" x="93.85" y="26.42" width="0.46" height="1.13" transform="translate(0.28 -0.95) rotate(0.58)"/><path class="cls-2" d="M92.17,37.66a4,4,0,1,1,4.09-4A4,4,0,0,1,92.17,37.66Zm.08-7.85A3.81,3.81,0,1,0,96,33.66,3.81,3.81,0,0,0,92.25,29.81Z"/></g><g class="cls-1"><path class="cls-2" d="M103.93,76,84.24,78.91l-.68-2.84L83,72.22l20.22-2.94.57,4ZM84.42,78.65l19.26-2.81-.12-2.58L103,69.54,83.26,72.42,83.79,76Z"/><rect class="cls-2" x="83.59" y="74.56" width="20.19" height="0.23" transform="translate(-9.77 14.27) rotate(-8.28)"/><polygon class="cls-2" points="85.65 78.64 85.32 77.37 102.52 74.87 102.42 76.13 102.18 76.11 102.27 75.14 85.61 77.56 85.88 78.58 85.65 78.64"/><rect class="cls-2" x="92" y="75.17" width="3.61" height="0.65" transform="translate(-9.89 14.29) rotate(-8.28)"/></g><g class="cls-1"><path class="cls-2" d="M11.42,53.69l-4-3.35L6.91,49l5.84-7.69.86-.09,5.57,4.62.06.86-6.54,7.1ZM7.54,50.23l4,3.27,1.13.14,6.42-7L19,46l-5.45-4.51-.7.07L7.13,49.07Z"/><path class="cls-2" d="M13.62,51.8l-4.8-4L13,42.11l5.44,4.52Zm-4.54-4,4.53,3.75,4.57-4.89L13,42.39Z"/><path class="cls-2" d="M12.61,51,9.83,48.65l3.86-4.2L16,46.39Zm-2.5-2.32,2.47,2,3.19-4.27-2.06-1.71Z"/><rect class="cls-2" x="10.88" y="49.69" width="0.52" height="0.44" transform="translate(34.41 4.38) rotate(39.66)"/><path class="cls-2" d="M11.57,50.09l-.69-.57.81-1,.69.57Zm-.42-.6.4.33.57-.68-.4-.34Z"/><polygon class="cls-2" points="12.04 48.96 11.89 48.84 12.05 48.64 11.57 47.88 11.73 47.78 12.29 48.66 12.04 48.96"/><polygon class="cls-2" points="7.69 48.17 7.29 47.83 7.64 47.41 7.79 47.53 7.56 47.81 7.81 48.02 7.69 48.17"/><polygon class="cls-2" points="6.7 48.84 6.56 48.72 6.91 48.29 7.34 48.64 7.22 48.79 6.94 48.56 6.7 48.84"/></g><g class="cls-1"><path class="cls-2" d="M110.45,101l-4-3.35-.46-1.3,5.83-7.69.86-.09,5.58,4.62,0,.86-6.54,7.1Zm-3.87-3.46,4,3.27,1.13.14,6.42-7,0-.71-5.45-4.51-.69.07-5.73,7.54Z"/><path class="cls-2" d="M112.65,99.15l-4.8-4L112,89.46,117.48,94Zm-4.54-4,4.53,3.75L117.21,94l-5.14-4.26Z"/><path class="cls-2" d="M111.65,98.31,108.86,96l3.87-4.21,2.33,1.94ZM109.14,96,111.61,98l3.19-4.27-2.06-1.7Z"/><rect class="cls-2" x="109.91" y="97.04" width="0.52" height="0.44" transform="translate(87.42 -47.93) rotate(39.66)"/><path class="cls-2" d="M110.6,97.44l-.69-.57.81-1,.7.57Zm-.42-.6.4.33.57-.68-.4-.33Z"/><polygon class="cls-2" points="111.07 96.31 110.92 96.19 111.09 95.99 110.6 95.23 110.76 95.13 111.32 96.01 111.07 96.31"/><polygon class="cls-2" points="106.72 95.52 106.32 95.18 106.67 94.75 106.82 94.88 106.59 95.16 106.84 95.37 106.72 95.52"/><polygon class="cls-2" points="105.73 96.19 105.59 96.07 105.94 95.64 106.37 95.99 106.25 96.14 105.97 95.91 105.73 96.19"/></g><g class="cls-3"><polygon class="cls-2" points="35.5 69.13 25.84 71.69 24.14 65.3 28.59 64.12 28.64 64.32 24.41 65.45 25.99 71.43 35.24 68.98 33.65 63 30.7 63.78 30.64 63.57 33.8 62.73 35.5 69.13"/><path class="cls-2" d="M30.88,68.63a1.61,1.61,0,1,1,1.15-2A1.62,1.62,0,0,1,30.88,68.63Zm-.77-2.91a1.4,1.4,0,1,0,1.71,1A1.4,1.4,0,0,0,30.11,65.72Z"/><path class="cls-2" d="M31.07,69.36a2.37,2.37,0,1,1,1.69-2.89A2.36,2.36,0,0,1,31.07,69.36ZM29.91,65a2.16,2.16,0,1,0,2.64,1.53A2.16,2.16,0,0,0,29.91,65Z"/><path class="cls-2" d="M33.59,64.5l-1,.25-.25-1,1-.25Zm-.8,0,.54-.15-.15-.54-.54.15Z"/><polygon class="cls-2" points="27.72 64.54 27.52 64.45 27.97 63.36 30.85 62.6 31.74 63.33 31.61 63.49 30.8 62.83 28.13 63.54 27.72 64.54"/><rect class="cls-2" x="26.76" y="65.61" width="0.21" height="4.77" transform="translate(-16.53 9.16) rotate(-14.85)"/><rect class="cls-2" x="26.07" y="64.58" width="0.21" height="0.28" transform="matrix(0.97, -0.26, 0.26, 0.97, -15.71, 8.87)"/></g><g class="cls-3"><polygon class="cls-2" points="107.82 52.88 98.16 55.44 96.46 49.04 100.9 47.86 100.96 48.07 96.72 49.19 98.31 55.17 107.56 52.72 105.97 46.74 103.02 47.52 102.96 47.32 106.12 46.48 107.82 52.88"/><path class="cls-2" d="M103.2,52.38a1.61,1.61,0,1,1,1.15-2A1.62,1.62,0,0,1,103.2,52.38Zm-.77-2.92a1.4,1.4,0,1,0,.71,2.71,1.39,1.39,0,0,0,1-1.71A1.41,1.41,0,0,0,102.43,49.46Z"/><path class="cls-2" d="M103.39,53.11a2.37,2.37,0,1,1,1.69-2.9A2.37,2.37,0,0,1,103.39,53.11Zm-1.16-4.37a2.15,2.15,0,1,0,2.64,1.53A2.15,2.15,0,0,0,102.23,48.74Z"/><path class="cls-2" d="M105.91,48.24l-1,.26-.25-1,1-.25Zm-.81,0,.55-.14-.15-.54-.54.14Z"/><polygon class="cls-2" points="100.03 48.28 99.84 48.2 100.29 47.11 103.17 46.35 104.06 47.07 103.92 47.24 103.12 46.58 100.44 47.29 100.03 48.28"/><rect class="cls-2" x="99.08" y="49.36" width="0.21" height="4.77" transform="translate(-9.95 27.15) rotate(-14.85)"/><rect class="cls-2" x="98.39" y="48.32" width="0.21" height="0.28" transform="translate(-9.13 26.86) rotate(-14.85)"/></g><g class="cls-1"><path class="cls-2" d="M78.18,63.25l-8.26-2,3.62-15.2,8.26,2Zm-7.93-2.17L78,62.92l3.5-14.67L73.74,46.4Z"/><rect class="cls-2" x="73.35" y="48.66" width="0.56" height="2.17" transform="translate(13.53 -15.71) rotate(13.4)"/><rect class="cls-2" x="72.33" y="52.59" width="0.56" height="2.79" transform="translate(14.49 -15.36) rotate(13.4)"/><rect class="cls-2" x="76.35" y="47.95" width="0.27" height="8.22" transform="translate(8.11 114.39) rotate(-76.6)"/><rect class="cls-2" x="76.19" y="48.6" width="0.27" height="8.22" transform="translate(7.36 114.74) rotate(-76.6)"/></g><g class="cls-1"><path class="cls-2" d="M58.26,115.24h0l-1.17-.16A.11.11,0,0,1,57,115v-1a3.38,3.38,0,0,1-.52-.22l-.7.69a.11.11,0,0,1-.14,0l-.94-.72a.11.11,0,0,1,0-.14l.48-.86a4.7,4.7,0,0,1-.34-.44l-.95.24a.1.1,0,0,1-.13-.06l-.45-1.09a.11.11,0,0,1,0-.14l.85-.5a3.31,3.31,0,0,1-.07-.55l-1-.27a.1.1,0,0,1-.08-.12l.16-1.16a.11.11,0,0,1,.11-.1h1a4,4,0,0,1,.21-.52l-.68-.7a.12.12,0,0,1,0-.15l.72-.93a.11.11,0,0,1,.14,0l.85.49a4.43,4.43,0,0,1,.45-.34l-.24-.95a.1.1,0,0,1,.06-.13l1.09-.45a.11.11,0,0,1,.14.05l.49.84a5,5,0,0,1,.56-.07l.26-.94a.11.11,0,0,1,.12-.08l1.17.15a.12.12,0,0,1,.1.11v1a4.77,4.77,0,0,1,.52.22l.7-.69a.12.12,0,0,1,.15,0l.93.72a.14.14,0,0,1,0,.15l-.49.85a3.46,3.46,0,0,1,.34.44l1-.24a.11.11,0,0,1,.13.07l.45,1.09a.1.1,0,0,1-.05.13l-.84.5c0,.18,0,.37.07.55l.94.27a.1.1,0,0,1,.08.12l-.15,1.17a.12.12,0,0,1-.11.09h-1a4.77,4.77,0,0,1-.22.52l.69.7a.11.11,0,0,1,0,.14l-.72.93a.1.1,0,0,1-.14,0l-.92-.52a.11.11,0,0,1,0-.15.11.11,0,0,1,.15,0l.84.48.6-.78-.67-.69a.09.09,0,0,1,0-.12,5,5,0,0,0,.26-.64.12.12,0,0,1,.11-.07h1l.13-1-.93-.26a.12.12,0,0,1-.08-.11,3.73,3.73,0,0,0-.09-.67.1.1,0,0,1,.06-.12l.83-.49-.38-.91-.93.24a.11.11,0,0,1-.12,0,3.57,3.57,0,0,0-.42-.54.12.12,0,0,1,0-.13l.48-.84-.78-.6-.69.67a.13.13,0,0,1-.13,0,4.39,4.39,0,0,0-.63-.26.12.12,0,0,1-.08-.11v-1l-1-.13-.26.93a.11.11,0,0,1-.1.08,5.05,5.05,0,0,0-.68.08.11.11,0,0,1-.12,0l-.48-.83-.92.37.24.94a.11.11,0,0,1,0,.12,4.36,4.36,0,0,0-.55.41.1.1,0,0,1-.13,0l-.83-.48-.61.78.68.69a.12.12,0,0,1,0,.13,3.52,3.52,0,0,0-.27.63.11.11,0,0,1-.1.08h-1l-.13,1,.93.26a.1.1,0,0,1,.08.1,3.84,3.84,0,0,0,.09.68.12.12,0,0,1,0,.12l-.84.48.38.91.93-.23a.09.09,0,0,1,.12,0,4.22,4.22,0,0,0,.42.55.09.09,0,0,1,0,.12l-.47.84.78.61.68-.68a.13.13,0,0,1,.13,0,3.85,3.85,0,0,0,.63.27.1.1,0,0,1,.08.1v1l1,.14.26-.93a.11.11,0,0,1,.14-.08.12.12,0,0,1,.08.14l-.29,1A.11.11,0,0,1,58.26,115.24Z"/><path class="cls-2" d="M61.32,108.84a.1.1,0,0,1-.1-.07,3.1,3.1,0,0,0-1.67-1.67,3,3,0,0,0-2.35,0,.11.11,0,0,1-.15-.06.12.12,0,0,1,.06-.14,3.31,3.31,0,0,1,4.31,1.8.11.11,0,0,1-.06.14Z"/><path class="cls-2" d="M58.1,113.23h0a3.29,3.29,0,0,1-2.78-2,.11.11,0,1,1,.21-.09,3.06,3.06,0,0,0,2.59,1.9.12.12,0,0,1,.1.12A.11.11,0,0,1,58.1,113.23Z"/><path class="cls-2" d="M60,116a.1.1,0,0,1-.1-.07L58.3,112a.13.13,0,0,0-.13-.08,1.92,1.92,0,0,1-1.72-1.19,2.08,2.08,0,0,1,.17-1.91.35.35,0,0,1,.33-.16.34.34,0,0,1,.3.22l.44,1.07a.15.15,0,0,0,.18.08l.91-.38a.12.12,0,0,0,.07-.17l-.44-1.08a.36.36,0,0,1,.06-.37.34.34,0,0,1,.34-.11,2,2,0,0,1,1.47,1.23,1.91,1.91,0,0,1-.39,2.06.14.14,0,0,0,0,.15l1.62,3.93a.11.11,0,0,1-.06.15.12.12,0,0,1-.14-.06l-1.62-3.94a.36.36,0,0,1,.07-.38,1.68,1.68,0,0,0,.35-1.82,1.86,1.86,0,0,0-1.31-1.11.13.13,0,0,0-.13.05.14.14,0,0,0,0,.14l.45,1.07a.37.37,0,0,1-.2.47l-.91.37a.35.35,0,0,1-.46-.19L57.05,109a.12.12,0,0,0-.12-.08.11.11,0,0,0-.12.06,1.85,1.85,0,0,0-.16,1.71,1.72,1.72,0,0,0,1.54,1,.33.33,0,0,1,.31.22l1.62,3.93a.11.11,0,0,1-.06.15Z"/></g><g class="cls-1"><path class="cls-2" d="M134.72,152h0l-1.17-.16a.12.12,0,0,1-.1-.11v-1a3.38,3.38,0,0,1-.52-.22l-.7.69a.12.12,0,0,1-.15,0l-.93-.72a.11.11,0,0,1,0-.14l.49-.86a3.46,3.46,0,0,1-.34-.44l-.95.24a.11.11,0,0,1-.13-.06l-.45-1.09a.11.11,0,0,1,.05-.14l.84-.5a4.86,4.86,0,0,1-.07-.55l-.94-.27a.1.1,0,0,1-.08-.12l.15-1.17a.12.12,0,0,1,.11-.09h1a4.61,4.61,0,0,1,.22-.51l-.69-.7a.12.12,0,0,1,0-.15L131,143a.1.1,0,0,1,.14,0l.85.49a3,3,0,0,1,.45-.34l-.25-1a.11.11,0,0,1,.07-.12l1.09-.45a.11.11,0,0,1,.13,0l.5.85a5,5,0,0,1,.56-.07l.26-.95a.12.12,0,0,1,.12-.08l1.17.16a.12.12,0,0,1,.09.11v1a3.38,3.38,0,0,1,.52.22l.7-.69a.11.11,0,0,1,.14,0l.94.72a.11.11,0,0,1,0,.14l-.48.86a4.7,4.7,0,0,1,.34.44l1-.24a.11.11,0,0,1,.13.06l.45,1.09a.11.11,0,0,1,0,.14l-.85.5a3.31,3.31,0,0,1,.07.55l.95.27a.1.1,0,0,1,.08.12L140,148a.11.11,0,0,1-.11.09h-1a4.55,4.55,0,0,1-.21.51l.68.71a.11.11,0,0,1,0,.14l-.72.93a.1.1,0,0,1-.14,0l-.92-.52a.11.11,0,0,1,0-.16.11.11,0,0,1,.15,0l.83.48.61-.78-.68-.69a.12.12,0,0,1,0-.13,3.52,3.52,0,0,0,.27-.63.1.1,0,0,1,.1-.07h1l.13-1-.93-.26a.1.1,0,0,1-.08-.1,3.84,3.84,0,0,0-.09-.68.1.1,0,0,1,.05-.11l.83-.49-.37-.91-.93.24a.11.11,0,0,1-.12-.05,4.34,4.34,0,0,0-.42-.54.11.11,0,0,1,0-.13l.47-.84-.78-.6-.68.67a.13.13,0,0,1-.13,0,4.19,4.19,0,0,0-.63-.26.12.12,0,0,1-.08-.11v-1l-1-.13-.26.93a.15.15,0,0,1-.11.08,4.91,4.91,0,0,0-.67.08.11.11,0,0,1-.12-.05l-.49-.83-.91.37.24.94a.12.12,0,0,1-.05.12,4.26,4.26,0,0,0-.54.41.13.13,0,0,1-.13,0l-.84-.48-.6.78.67.69a.1.1,0,0,1,0,.13,4.39,4.39,0,0,0-.26.63.12.12,0,0,1-.11.07h-1l-.13,1,.93.26a.11.11,0,0,1,.08.1,3.84,3.84,0,0,0,.09.68.1.1,0,0,1-.06.11l-.83.49.38.91.93-.24a.11.11,0,0,1,.12.05,3.57,3.57,0,0,0,.42.54.12.12,0,0,1,0,.13l-.48.84.78.6.69-.67a.13.13,0,0,1,.13,0,3.48,3.48,0,0,0,.63.26.12.12,0,0,1,.08.11v1l1,.13.26-.93a.12.12,0,0,1,.14-.07.11.11,0,0,1,.07.13l-.28,1A.13.13,0,0,1,134.72,152Z"/><path class="cls-2" d="M137.77,145.62a.12.12,0,0,1-.1-.07,3.08,3.08,0,0,0-4-1.68.11.11,0,1,1-.08-.2,3.24,3.24,0,0,1,2.52,0,3.29,3.29,0,0,1,1.79,1.8.12.12,0,0,1-.06.14Z"/><path class="cls-2" d="M134.56,150h0a3.31,3.31,0,0,1-2.78-2,.11.11,0,0,1,.06-.14.1.1,0,0,1,.14.06,3.1,3.1,0,0,0,2.59,1.9.11.11,0,0,1,0,.22Z"/><path class="cls-2" d="M136.47,152.79a.12.12,0,0,1-.1-.07l-1.62-3.94a.14.14,0,0,0-.12-.09,1.88,1.88,0,0,1-1.72-1.18,2.08,2.08,0,0,1,.17-1.92.33.33,0,0,1,.33-.15.35.35,0,0,1,.3.22l.44,1.07a.14.14,0,0,0,.18.07l.91-.37a.14.14,0,0,0,.07-.17l-.44-1.08a.38.38,0,0,1,0-.37.36.36,0,0,1,.35-.11,2.05,2.05,0,0,1,1.47,1.23,1.91,1.91,0,0,1-.39,2.06.13.13,0,0,0,0,.14l1.62,3.94a.11.11,0,1,1-.21.09l-1.61-3.94a.35.35,0,0,1,.06-.38,1.7,1.7,0,0,0,.36-1.82,1.85,1.85,0,0,0-1.32-1.11.14.14,0,0,0-.13.05.14.14,0,0,0,0,.14l.44,1.07a.36.36,0,0,1-.19.47l-.91.37a.35.35,0,0,1-.46-.19l-.45-1.08a.12.12,0,0,0-.11-.08.1.1,0,0,0-.12.05,1.85,1.85,0,0,0-.16,1.71,1.68,1.68,0,0,0,1.53,1.05.38.38,0,0,1,.32.22l1.62,3.94a.13.13,0,0,1-.06.15Z"/></g><g class="cls-1"><path class="cls-2" d="M96,152.9a.1.1,0,0,1-.07,0,6.94,6.94,0,0,1-2.27-2.16,6.05,6.05,0,0,1-.31-4.73.13.13,0,0,1,.06-.07h.09a4,4,0,0,0,1,.22h.17a3.38,3.38,0,0,0,1.8-.33.11.11,0,0,1,.11,0,3.46,3.46,0,0,0,1.72.63h.17a3.71,3.71,0,0,0,1.07,0,.14.14,0,0,1,.09,0,.12.12,0,0,1,0,.08,6,6,0,0,1-1.1,4.61,6.83,6.83,0,0,1-2.6,1.75Zm-2.47-6.73a5.76,5.76,0,0,0,.32,4.44,6.38,6.38,0,0,0,2.15,2A6.31,6.31,0,0,0,98.49,151a5.74,5.74,0,0,0,1.07-4.33,3.78,3.78,0,0,1-1,0h-.18a3.61,3.61,0,0,1-1.76-.63,3.68,3.68,0,0,1-1.85.32h-.18A5.09,5.09,0,0,1,93.57,146.17Z"/><path class="cls-2" d="M96,153.84h0A7.85,7.85,0,0,1,93,151.11a7.54,7.54,0,0,1-.23-6.18.1.1,0,0,1,.08-.07.08.08,0,0,1,.09,0,3,3,0,0,0,1.43.38l.19,0a3.13,3.13,0,0,0,2.08-.46.11.11,0,0,1,.08,0,.12.12,0,0,1,.08,0,3,3,0,0,0,2,.8l.19,0a2.93,2.93,0,0,0,1.48-.14.1.1,0,0,1,.09,0,.18.18,0,0,1,.07.08,7.53,7.53,0,0,1-1.27,6.06A8,8,0,0,1,96,153.84Zm-3.06-8.71a7.24,7.24,0,0,0,.27,5.87A7.87,7.87,0,0,0,96,153.61a7.89,7.89,0,0,0,3.18-2.1,7.21,7.21,0,0,0,1.25-5.74,3.64,3.64,0,0,1-1.47.11l-.19,0a3.5,3.5,0,0,1-2-.8,3.51,3.51,0,0,1-2.15.45l-.2,0A3.45,3.45,0,0,1,92.9,145.13Z"/><path class="cls-2" d="M96.24,150.45a.07.07,0,0,1-.08,0l-.86-.76a.1.1,0,0,1,0-.15.11.11,0,0,1,.16,0l.77.69L98,148.36a.1.1,0,0,1,.15,0,.11.11,0,0,1,0,.16l-1.81,1.91A.09.09,0,0,1,96.24,150.45Z"/></g><g class="cls-1"><path class="cls-2" d="M7.45,121.3a6.65,6.65,0,0,1-2.88-.62,6.08,6.08,0,0,1-2.79-3.84.15.15,0,0,1,0-.09.13.13,0,0,1,.07,0,3.75,3.75,0,0,0,1-.37l.16-.09A3.36,3.36,0,0,0,4.37,115a.13.13,0,0,1,.11-.05,3.36,3.36,0,0,0,1.78-.39l.15-.08a3.82,3.82,0,0,0,.89-.6.11.11,0,0,1,.08,0,.09.09,0,0,1,.08,0A6,6,0,0,1,9,118.38a6.72,6.72,0,0,1-1.27,2.87.09.09,0,0,1-.08,0ZM2,116.9a5.72,5.72,0,0,0,2.64,3.58,6.6,6.6,0,0,0,2.91.6,6.66,6.66,0,0,0,1.19-2.72,5.74,5.74,0,0,0-1.41-4.23,4.64,4.64,0,0,1-.85.56l-.16.08a3.62,3.62,0,0,1-1.82.41,3.68,3.68,0,0,1-1.4,1.26l-.15.08A4.94,4.94,0,0,1,2,116.9Z"/><path class="cls-2" d="M7.64,122.16a7.86,7.86,0,0,1-3.47-.77,7.52,7.52,0,0,1-3.5-5.11.14.14,0,0,1,0-.09.12.12,0,0,1,.1,0,2.83,2.83,0,0,0,1.41-.44.7.7,0,0,0,.17-.09,3.08,3.08,0,0,0,1.51-1.49.12.12,0,0,1,.14-.08,3,3,0,0,0,2.1-.37l.17-.09a2.79,2.79,0,0,0,1.17-.9s0-.06.08-.06a.08.08,0,0,1,.09,0,7.49,7.49,0,0,1,2.17,5.8,8,8,0,0,1-1.67,3.64l0,0A2.88,2.88,0,0,1,7.64,122.16ZM.91,116.38a7.24,7.24,0,0,0,3.36,4.82,7.86,7.86,0,0,0,3.75.72,8,8,0,0,0,1.57-3.48,7.22,7.22,0,0,0-2-5.52,3.57,3.57,0,0,1-1.18.88l-.17.09a3.53,3.53,0,0,1-2.16.41,3.57,3.57,0,0,1-1.58,1.53l-.18.09A3.54,3.54,0,0,1,.91,116.38ZM4,114.17Z"/><path class="cls-2" d="M6.5,119.12h0l-1.13-.19a.11.11,0,0,1-.09-.13.1.1,0,0,1,.12-.09l1,.17.49-2.47a.11.11,0,0,1,.22,0L6.61,119A.11.11,0,0,1,6.5,119.12Z"/></g><g class="cls-1"><path class="cls-2" d="M86.28,102,75.17,97.7l2.63-6.82,11.11,4.3Zm-10.8-4.43,10.66,4.12,2.47-6.38L77.94,91.19Z"/><path class="cls-2" d="M86.3,103.1,74.4,98.5l-.17-1.41,13.14,5.08ZM74.62,98.33l11.63,4.49.67-.57-12.41-4.8Z"/><rect class="cls-2" x="77.51" y="94.32" width="3.65" height="0.24" transform="translate(-31.43 40.18) rotate(-23.87)"/><rect class="cls-2" x="78.04" y="93.39" width="1.77" height="0.24" transform="translate(-31.09 39.94) rotate(-23.87)"/></g><g class="cls-1"><path class="cls-2" d="M23.65,104.7l-9.47-4.07,5.35-12.45L29,92.25Zm-9.16-4.19,9,3.88,5.17-12-9-3.88Z"/><path class="cls-2" d="M19.79,100.77a3.06,3.06,0,1,1,4-1.6A3.06,3.06,0,0,1,19.79,100.77Zm2.32-5.41a2.82,2.82,0,1,0,1.48,3.71A2.83,2.83,0,0,0,22.11,95.36Z"/><path class="cls-2" d="M22.29,99.2a4.07,4.07,0,0,1-1.48-1.27,2.18,2.18,0,0,0-2.44-1.13l-.07-.23A2.48,2.48,0,0,1,21,97.8S22.3,99.68,23.66,99l.11.21A1.65,1.65,0,0,1,22.29,99.2Z"/><path class="cls-2" d="M21.77,91.79l-2.25-1,.54-1.25,2.25,1ZM19.83,90.7l1.82.78.35-.82-1.82-.79Z"/><rect class="cls-2" x="22.83" y="88.23" width="0.23" height="10.14" transform="translate(-71.83 77.54) rotate(-66.74)"/><rect class="cls-2" x="23.14" y="91.17" width="0.46" height="1.13" transform="translate(38.13 -1.77) rotate(23.26)"/><rect class="cls-2" x="24.09" y="91.58" width="0.46" height="1.13" transform="translate(38.37 -2.12) rotate(23.26)"/><rect class="cls-2" x="25.05" y="91.99" width="0.46" height="1.13" transform="matrix(0.92, 0.39, -0.39, 0.92, 38.61, -2.46)"/><path class="cls-2" d="M19.4,101.67a4,4,0,1,1,5.31-2.11A4,4,0,0,1,19.4,101.67Zm3.1-7.21a3.81,3.81,0,1,0,2,5A3.81,3.81,0,0,0,22.5,94.46Z"/></g><g class="cls-1"><path class="cls-2" d="M103.54,119.35l-19.68,2.86-.69-2.84-.56-3.85,20.22-2.94.58,4ZM84,122l19.26-2.8-.12-2.59-.54-3.71-19.76,2.87.52,3.61Z"/><rect class="cls-2" x="83.21" y="117.86" width="20.19" height="0.23" transform="translate(-16.01 14.66) rotate(-8.28)"/><polygon class="cls-2" points="85.27 121.95 84.93 120.67 102.14 118.17 102.03 119.44 101.8 119.42 101.88 118.44 85.22 120.87 85.49 121.89 85.27 121.95"/><rect class="cls-2" x="91.61" y="118.47" width="3.61" height="0.65" transform="translate(-16.13 14.69) rotate(-8.28)"/></g><g class="cls-1"><path class="cls-2" d="M48.47,94.36l-4-3.34L44,89.72,49.8,82l.86-.09,5.58,4.62.06.86-6.55,7.09ZM44.6,90.9l3.95,3.28,1.13.13,6.42-7-.05-.7L50.6,82.14l-.69.07-5.73,7.54Z"/><path class="cls-2" d="M50.68,92.48l-4.81-4,4.19-5.71,5.45,4.52Zm-4.55-4,4.53,3.76,4.57-4.89-5.14-4.26Z"/><path class="cls-2" d="M49.67,91.64l-2.79-2.31,3.87-4.2,2.33,1.94Zm-2.51-2.33,2.47,2.06,3.19-4.27-2.06-1.71Z"/><rect class="cls-2" x="47.93" y="90.37" width="0.52" height="0.44" transform="translate(68.9 -9.91) rotate(39.66)"/><path class="cls-2" d="M48.63,90.77l-.7-.58.81-1,.7.57Zm-.43-.6.4.33.57-.68-.4-.34Z"/><polygon class="cls-2" points="49.09 89.64 48.95 89.52 49.11 89.32 48.62 88.56 48.78 88.46 49.34 89.34 49.09 89.64"/><polygon class="cls-2" points="44.74 88.85 44.34 88.51 44.7 88.08 44.84 88.2 44.61 88.49 44.87 88.7 44.74 88.85"/><polygon class="cls-2" points="43.76 89.52 43.61 89.39 43.96 88.97 44.39 89.32 44.27 89.47 43.99 89.23 43.76 89.52"/></g><g class="cls-3"><polygon class="cls-2" points="129.92 113.21 120.27 115.77 118.57 109.37 123.01 108.2 123.07 108.4 118.83 109.53 120.42 115.51 129.66 113.06 128.08 107.08 125.13 107.86 125.07 107.65 128.23 106.81 129.92 113.21"/><path class="cls-2" d="M125.31,112.71a1.61,1.61,0,1,1,1.14-2A1.61,1.61,0,0,1,125.31,112.71Zm-.78-2.91a1.4,1.4,0,0,0,.72,2.71,1.4,1.4,0,1,0-.72-2.71Z"/><path class="cls-2" d="M125.5,113.44a2.37,2.37,0,1,1,1.68-2.9A2.37,2.37,0,0,1,125.5,113.44Zm-1.16-4.37a2.16,2.16,0,0,0,1.1,4.17,2.16,2.16,0,1,0-1.1-4.17Z"/><path class="cls-2" d="M128,108.57l-.95.26-.26-1,1-.25Zm-.8,0,.54-.15-.14-.54-.54.14Z"/><polygon class="cls-2" points="122.14 108.62 121.94 108.53 122.39 107.44 125.28 106.68 126.17 107.41 126.03 107.57 125.23 106.91 122.55 107.62 122.14 108.62"/><rect class="cls-2" x="121.19" y="109.69" width="0.21" height="4.77" transform="translate(-24.67 34.83) rotate(-14.85)"/><rect class="cls-2" x="120.5" y="108.65" width="0.21" height="0.28" transform="matrix(0.97, -0.26, 0.26, 0.97, -23.85, 34.54)"/></g><g class="cls-3"><polygon class="cls-2" points="71.73 151.48 62.08 154.04 60.38 147.65 64.82 146.47 64.88 146.68 60.64 147.8 62.23 153.78 71.47 151.33 69.89 145.35 66.94 146.13 66.88 145.93 70.04 145.09 71.73 151.48"/><path class="cls-2" d="M67.12,151a1.61,1.61,0,1,1-.83-3.12,1.61,1.61,0,0,1,.83,3.12Zm-.78-2.92a1.4,1.4,0,1,0,1.72,1A1.41,1.41,0,0,0,66.34,148.07Z"/><path class="cls-2" d="M67.31,151.72a2.37,2.37,0,1,1,1.68-2.9A2.38,2.38,0,0,1,67.31,151.72Zm-1.16-4.38a2.16,2.16,0,1,0,2.64,1.54A2.16,2.16,0,0,0,66.15,147.34Z"/><path class="cls-2" d="M69.82,146.85l-.95.25-.25-.95.95-.25Zm-.8,0,.54-.14-.14-.54-.54.14Z"/><polygon class="cls-2" points="63.95 146.89 63.76 146.81 64.21 145.72 67.09 144.96 67.98 145.68 67.84 145.85 67.04 145.19 64.36 145.9 63.95 146.89"/><rect class="cls-2" x="63" y="147.96" width="0.21" height="4.77" transform="translate(-36.42 21.19) rotate(-14.85)"/><rect class="cls-2" x="62.31" y="146.93" width="0.21" height="0.28" transform="matrix(0.97, -0.26, 0.26, 0.97, -35.61, 20.91)"/></g><g class="cls-1"><path class="cls-2" d="M41.8,119.63l-8.26-2,3.62-15.2,8.26,2Zm-7.93-2.17,7.73,1.84,3.5-14.67-7.74-1.85Z"/><rect class="cls-2" x="36.97" y="105.04" width="0.56" height="2.17" transform="translate(25.61 -5.74) rotate(13.4)"/><rect class="cls-2" x="35.95" y="108.97" width="0.56" height="2.79" transform="translate(26.56 -5.39) rotate(13.4)"/><rect class="cls-2" x="39.97" y="104.33" width="0.27" height="8.22" transform="translate(-74.68 122.32) rotate(-76.6)"/><rect class="cls-2" x="39.81" y="104.98" width="0.27" height="8.22" transform="translate(-75.43 122.67) rotate(-76.6)"/></g><g class="cls-1"><path class="cls-2" d="M38.86,152.6h0l-1.17-.16a.11.11,0,0,1-.1-.11v-1a4.71,4.71,0,0,1-.52-.21l-.7.68a.11.11,0,0,1-.14,0l-.94-.72a.12.12,0,0,1,0-.14l.49-.85c-.12-.15-.24-.3-.34-.45l-.95.24a.1.1,0,0,1-.13-.06l-.45-1.09a.11.11,0,0,1,.05-.14l.85-.49a5,5,0,0,1-.08-.56l-.94-.26a.12.12,0,0,1-.08-.12l.16-1.17a.1.1,0,0,1,.11-.1h1a4.71,4.71,0,0,1,.21-.52l-.68-.7a.11.11,0,0,1,0-.15l.72-.93a.12.12,0,0,1,.14,0l.85.49a3.79,3.79,0,0,1,.45-.34l-.25-1a.12.12,0,0,1,.07-.13l1.09-.45a.11.11,0,0,1,.14,0l.49.84.56-.07.26-.94a.12.12,0,0,1,.12-.08l1.17.16a.11.11,0,0,1,.1.1v1a4.77,4.77,0,0,1,.52.22l.7-.68a.1.1,0,0,1,.14,0l.94.72a.12.12,0,0,1,0,.14l-.49.85a3.79,3.79,0,0,1,.34.45l.95-.25a.12.12,0,0,1,.13.07l.45,1.09A.1.1,0,0,1,44,146l-.85.5a3.43,3.43,0,0,1,.07.56l1,.26a.12.12,0,0,1,.08.12l-.16,1.17a.1.1,0,0,1-.11.09H43a4.71,4.71,0,0,1-.21.52l.68.7a.1.1,0,0,1,0,.14l-.72.94a.11.11,0,0,1-.14,0l-.92-.52a.11.11,0,0,1,0-.15.11.11,0,0,1,.15,0l.84.48.6-.79-.68-.68a.11.11,0,0,1,0-.13,4.91,4.91,0,0,0,.26-.63.11.11,0,0,1,.1-.08h1l.13-1-.93-.26a.11.11,0,0,1-.08-.1,3.84,3.84,0,0,0-.09-.68.11.11,0,0,1,0-.12l.84-.49-.38-.91-.93.24a.11.11,0,0,1-.12,0,3.57,3.57,0,0,0-.42-.54.11.11,0,0,1,0-.13l.48-.84-.78-.6-.69.67a.11.11,0,0,1-.13,0,4.91,4.91,0,0,0-.63-.26.12.12,0,0,1-.08-.11v-1l-1-.13-.26.93a.11.11,0,0,1-.1.08,3.84,3.84,0,0,0-.68.09.1.1,0,0,1-.12-.06l-.49-.83-.91.38.24.93a.11.11,0,0,1,0,.12,3.57,3.57,0,0,0-.54.42.12.12,0,0,1-.13,0l-.84-.48-.6.78.67.69a.1.1,0,0,1,0,.13,4.39,4.39,0,0,0-.26.63.11.11,0,0,1-.1.08H34l-.13,1,.93.26a.1.1,0,0,1,.08.1,3.84,3.84,0,0,0,.09.68.11.11,0,0,1,0,.12l-.84.48.38.92.93-.24a.1.1,0,0,1,.12,0A3.64,3.64,0,0,0,36,150a.1.1,0,0,1,0,.13l-.48.83.78.61.69-.68a.13.13,0,0,1,.13,0,3.85,3.85,0,0,0,.63.27.11.11,0,0,1,.08.1v1l1,.13.26-.93a.11.11,0,0,1,.14-.08.11.11,0,0,1,.07.14l-.28,1A.12.12,0,0,1,38.86,152.6Z"/><path class="cls-2" d="M41.92,146.2a.11.11,0,0,1-.11-.07,3.05,3.05,0,0,0-1.66-1.67,3,3,0,0,0-2.36,0,.12.12,0,0,1-.14-.06.11.11,0,0,1,.06-.15,3.31,3.31,0,0,1,4.31,1.8.11.11,0,0,1-.06.14Z"/><path class="cls-2" d="M38.7,150.59h0a3.28,3.28,0,0,1-2.78-2,.11.11,0,0,1,.21-.09,3.06,3.06,0,0,0,2.59,1.9.12.12,0,0,1,.1.12A.12.12,0,0,1,38.7,150.59Z"/><path class="cls-2" d="M40.62,153.37a.12.12,0,0,1-.11-.07l-1.61-3.94a.13.13,0,0,0-.13-.08,1.9,1.9,0,0,1-1.72-1.19,2.06,2.06,0,0,1,.17-1.91.36.36,0,0,1,.33-.16.35.35,0,0,1,.3.22l.44,1.07a.14.14,0,0,0,.18.08l.91-.37a.14.14,0,0,0,.07-.18L39,145.76a.36.36,0,0,1,.4-.48,2.07,2.07,0,0,1,1.47,1.24,1.9,1.9,0,0,1-.39,2,.14.14,0,0,0,0,.15l1.62,3.94a.11.11,0,0,1-.06.14.1.1,0,0,1-.14-.06l-1.62-3.94a.34.34,0,0,1,.07-.38,1.7,1.7,0,0,0,.35-1.82,1.88,1.88,0,0,0-1.32-1.11.11.11,0,0,0-.12,0,.12.12,0,0,0,0,.14l.44,1.08a.35.35,0,0,1-.19.46l-.91.37a.35.35,0,0,1-.46-.19l-.44-1.08a.15.15,0,0,0-.12-.08.14.14,0,0,0-.12.06,1.85,1.85,0,0,0-.16,1.71,1.72,1.72,0,0,0,1.53,1.05.35.35,0,0,1,.32.22l1.62,3.94a.12.12,0,0,1-.06.14Z"/></g><g class="cls-1"><path class="cls-2" d="M135.08,130.87H135a6.9,6.9,0,0,1-2.27-2.17,6,6,0,0,1-.3-4.73.1.1,0,0,1,.05-.06.1.1,0,0,1,.09,0,4.12,4.12,0,0,0,1,.22h.18a3.47,3.47,0,0,0,1.79-.32.11.11,0,0,1,.12,0,3.49,3.49,0,0,0,1.71.62l.17,0a4.12,4.12,0,0,0,1.08,0,.08.08,0,0,1,.08,0s0,0,.05.07a6.06,6.06,0,0,1-1.1,4.61,6.71,6.71,0,0,1-2.6,1.75Zm-2.47-6.73a5.72,5.72,0,0,0,.33,4.44,6.46,6.46,0,0,0,2.14,2.06,6.58,6.58,0,0,0,2.46-1.67,5.71,5.71,0,0,0,1.06-4.32,4.81,4.81,0,0,1-1,0l-.17,0a3.65,3.65,0,0,1-1.77-.63,3.66,3.66,0,0,1-1.85.32h-.18A4.45,4.45,0,0,1,132.61,124.14Z"/><path class="cls-2" d="M135,131.81h0a8,8,0,0,1-2.94-2.73,7.54,7.54,0,0,1-.23-6.18s.05-.06.08-.06a.1.1,0,0,1,.09,0,2.92,2.92,0,0,0,1.43.39h.19a3,3,0,0,0,2.08-.46.1.1,0,0,1,.09,0,.11.11,0,0,1,.07,0,3,3,0,0,0,2,.81l.19,0a2.84,2.84,0,0,0,1.48-.15.12.12,0,0,1,.1,0,.11.11,0,0,1,.06.07,7.52,7.52,0,0,1-1.27,6.06A8,8,0,0,1,135,131.81Zm-3.06-8.7a7.22,7.22,0,0,0,.26,5.87,8,8,0,0,0,2.79,2.61,7.89,7.89,0,0,0,3.18-2.11,7.17,7.17,0,0,0,1.25-5.74,3.58,3.58,0,0,1-1.47.12l-.19,0a3.48,3.48,0,0,1-2.05-.81,3.49,3.49,0,0,1-2.15.45h-.2A3.55,3.55,0,0,1,132,123.11Z"/><path class="cls-2" d="M135.29,128.42a.1.1,0,0,1-.09,0l-.86-.76a.12.12,0,0,1,0-.16.11.11,0,0,1,.16,0l.77.69,1.74-1.83a.12.12,0,0,1,.16,0,.11.11,0,0,1,0,.15l-1.81,1.91A.09.09,0,0,1,135.29,128.42Z"/></g><g class="cls-1"><path class="cls-2" d="M72.68,81.89a6.54,6.54,0,0,1-2.89-.62A6,6,0,0,1,67,77.44a.1.1,0,0,1,0-.09.12.12,0,0,1,.07,0,4,4,0,0,0,1-.38l.15-.08a3.36,3.36,0,0,0,1.34-1.23.13.13,0,0,1,.11-.06,3.42,3.42,0,0,0,1.78-.38l.15-.08a3.82,3.82,0,0,0,.89-.6.07.07,0,0,1,.08,0,.11.11,0,0,1,.08,0A6,6,0,0,1,74.21,79,6.76,6.76,0,0,1,73,81.85a.12.12,0,0,1-.08,0Zm-5.43-4.4a5.75,5.75,0,0,0,2.65,3.59,6.34,6.34,0,0,0,2.9.59A6.27,6.27,0,0,0,74,79a5.73,5.73,0,0,0-1.4-4.23,4.48,4.48,0,0,1-.85.57l-.16.08a3.67,3.67,0,0,1-1.83.41A3.55,3.55,0,0,1,68.36,77l-.16.09A4.11,4.11,0,0,1,67.25,77.49Z"/><path class="cls-2" d="M72.86,82.75A8,8,0,0,1,69.39,82a7.49,7.49,0,0,1-3.49-5.11.11.11,0,0,1,.12-.12,2.83,2.83,0,0,0,1.41-.44l.17-.09a3.15,3.15,0,0,0,1.52-1.5.1.1,0,0,1,0-.06.1.1,0,0,1,.09,0,3.09,3.09,0,0,0,2.09-.37l.17-.09a2.65,2.65,0,0,0,1.17-.91.1.1,0,0,1,.08-.05.12.12,0,0,1,.1,0A7.56,7.56,0,0,1,75,79.06a7.84,7.84,0,0,1-1.67,3.64l0,0A2,2,0,0,1,72.86,82.75ZM66.14,77a7.21,7.21,0,0,0,3.35,4.82,7.88,7.88,0,0,0,3.75.72A7.85,7.85,0,0,0,74.81,79a7.22,7.22,0,0,0-2-5.52,3.7,3.7,0,0,1-1.18.88l-.18.08a3.48,3.48,0,0,1-2.16.42,3.5,3.5,0,0,1-1.58,1.52l-.17.1A3.78,3.78,0,0,1,66.14,77Zm3.08-2.21Z"/><path class="cls-2" d="M71.73,79.72h0l-1.13-.18a.11.11,0,0,1,0-.22l1,.17L72.13,77a.11.11,0,1,1,.22,0l-.51,2.58A.12.12,0,0,1,71.73,79.72Z"/></g><g class="cls-1"><path class="cls-2" d="M86.56,142l-11.11-4.3,2.64-6.81,11.11,4.29Zm-10.8-4.43,10.67,4.12,2.46-6.37L78.22,131.2Z"/><path class="cls-2" d="M86.58,143.11l-11.9-4.6-.17-1.41,13.14,5.08ZM74.9,138.34l11.63,4.5.67-.58-12.4-4.79Z"/><rect class="cls-2" x="77.79" y="134.33" width="3.65" height="0.24" transform="translate(-47.6 43.72) rotate(-23.87)"/><rect class="cls-2" x="78.32" y="133.41" width="1.77" height="0.24" transform="translate(-47.26 43.47) rotate(-23.87)"/></g><g class="cls-1"><path class="cls-2" d="M152.48,116.57,143,112.5l5.35-12.45,9.46,4.07Zm-9.16-4.2,9,3.89,5.17-12-9-3.89Z"/><path class="cls-2" d="M148.62,112.64a3.06,3.06,0,1,1,4-1.61A3.06,3.06,0,0,1,148.62,112.64Zm2.33-5.41a2.82,2.82,0,1,0,1.48,3.71A2.82,2.82,0,0,0,151,107.23Z"/><path class="cls-2" d="M151.12,111.07a4,4,0,0,1-1.47-1.28,2.21,2.21,0,0,0-2.45-1.13l-.07-.22a2.47,2.47,0,0,1,2.72,1.22s1.28,1.88,2.64,1.16l.11.21A1.65,1.65,0,0,1,151.12,111.07Z"/><path class="cls-2" d="M150.61,103.65l-2.26-1,.54-1.25,2.26,1Zm-2-1.09,1.83.79.35-.82-1.83-.79Z"/><rect class="cls-2" x="151.67" y="100.1" width="0.23" height="10.14" transform="translate(-4.78 203.08) rotate(-66.74)"/><path class="cls-2" d="M148.24,113.54a4,4,0,1,1,5.31-2.12A4,4,0,0,1,148.24,113.54Zm3.1-7.21a3.81,3.81,0,1,0,2,5A3.82,3.82,0,0,0,151.34,106.33Z"/></g><g class="cls-1"><path class="cls-2" d="M125.58,70.08,116.12,66l5.35-12.45,9.46,4.07Zm-9.16-4.19,9,3.88,5.17-12-9-3.88Z"/><path class="cls-2" d="M121.72,66.15a3.06,3.06,0,1,1,4-1.6A3.06,3.06,0,0,1,121.72,66.15Zm2.33-5.41a2.82,2.82,0,1,0,1.48,3.71A2.83,2.83,0,0,0,124.05,60.74Z"/><path class="cls-2" d="M124.22,64.58a4.1,4.1,0,0,1-1.47-1.27,2.22,2.22,0,0,0-2.45-1.14l-.07-.22A2.47,2.47,0,0,1,123,63.18s1.28,1.88,2.64,1.15l.11.21A1.65,1.65,0,0,1,124.22,64.58Z"/><path class="cls-2" d="M123.71,57.17l-2.26-1,.54-1.26,2.26,1Zm-1.95-1.1,1.83.79.35-.82-1.83-.79Z"/><rect class="cls-2" x="124.77" y="53.61" width="0.23" height="10.14" transform="translate(21.65 150.24) rotate(-66.74)"/><rect class="cls-2" x="125.07" y="56.55" width="0.46" height="1.13" transform="translate(32.74 -44.85) rotate(23.26)"/><rect class="cls-2" x="126.03" y="56.96" width="0.46" height="1.13" transform="translate(32.98 -45.19) rotate(23.26)"/><rect class="cls-2" x="126.99" y="57.37" width="0.46" height="1.13" transform="translate(33.22 -45.54) rotate(23.26)"/><path class="cls-2" d="M121.34,67.05a4,4,0,1,1,5.31-2.12A4,4,0,0,1,121.34,67.05Zm3.1-7.21a3.81,3.81,0,1,0,2,5A3.82,3.82,0,0,0,124.44,59.84Z"/></g><g class="cls-1"><path class="cls-2" d="M29.29,134.59,9.61,137.45l-.68-2.83-.56-3.85,20.22-3,.57,4Zm-19.5,2.6,19.26-2.8-.12-2.59-.54-3.71L8.63,131l.53,3.61Z"/><rect class="cls-2" x="8.96" y="133.1" width="20.19" height="0.23" transform="translate(-18.98 4.13) rotate(-8.28)"/><polygon class="cls-2" points="11.02 137.19 10.69 135.91 27.89 133.41 27.79 134.68 27.55 134.66 27.64 133.68 10.98 136.11 11.25 137.13 11.02 137.19"/><rect class="cls-2" x="17.37" y="133.71" width="3.61" height="0.65" transform="translate(-19.1 4.16) rotate(-8.28)"/></g><g class="cls-1"><path class="cls-2" d="M47.5,135.14l-4-3.34L43,130.5l5.83-7.69.86-.09,5.58,4.62.06.86-6.54,7.09Zm-3.87-3.46L47.58,135l1.13.13,6.42-7-.05-.7-5.45-4.51-.69.07-5.73,7.54Z"/><path class="cls-2" d="M49.71,133.26l-4.81-4,4.19-5.71,5.45,4.52Zm-4.55-4L49.69,133l4.57-4.89-5.14-4.26Z"/><path class="cls-2" d="M48.7,132.42l-2.79-2.31,3.87-4.2,2.33,1.94Zm-2.51-2.33,2.47,2.06,3.19-4.27-2.06-1.71Z"/><rect class="cls-2" x="46.96" y="131.15" width="0.52" height="0.44" transform="translate(94.7 0.09) rotate(39.66)"/><path class="cls-2" d="M47.66,131.55,47,131l.81-1,.7.57Zm-.43-.6.4.33.57-.68-.4-.34Z"/><polygon class="cls-2" points="48.12 130.42 47.98 130.3 48.14 130.1 47.65 129.34 47.81 129.24 48.37 130.12 48.12 130.42"/><polygon class="cls-2" points="43.77 129.63 43.37 129.29 43.73 128.86 43.87 128.99 43.64 129.27 43.9 129.48 43.77 129.63"/><polygon class="cls-2" points="42.79 130.3 42.64 130.18 42.99 129.75 43.42 130.1 43.3 130.25 43.02 130.01 42.79 130.3"/></g><g class="cls-3"><polygon class="cls-2" points="10.06 148.83 0.4 151.39 -1.29 144.99 3.15 143.82 3.2 144.02 -1.03 145.15 0.56 151.13 9.8 148.68 8.21 142.69 5.26 143.48 5.21 143.27 8.37 142.43 10.06 148.83"/><path class="cls-2" d="M5.44,148.33a1.61,1.61,0,0,1-.83-3.12,1.61,1.61,0,1,1,.83,3.12Zm-.77-2.91a1.4,1.4,0,0,0-1,1.71,1.4,1.4,0,1,0,2.71-.72A1.39,1.39,0,0,0,4.67,145.42Z"/><path class="cls-2" d="M5.64,149.06a2.37,2.37,0,1,1,1.68-2.9A2.37,2.37,0,0,1,5.64,149.06Zm-1.16-4.37a2.15,2.15,0,1,0,2.63,1.53A2.16,2.16,0,0,0,4.48,144.69Z"/><path class="cls-2" d="M8.15,144.19l-1,.26-.25-1,1-.25Zm-.8,0,.54-.14-.14-.54-.55.14Z"/><polygon class="cls-2" points="2.28 144.24 2.08 144.15 2.53 143.06 5.41 142.3 6.3 143.02 6.17 143.19 5.36 142.53 2.69 143.24 2.28 144.24"/><rect class="cls-2" x="1.33" y="145.31" width="0.21" height="4.77" transform="translate(-37.8 5.3) rotate(-14.85)"/><rect class="cls-2" x="0.64" y="144.27" width="0.21" height="0.28" transform="translate(-36.99 5.01) rotate(-14.85)"/></g><g class="cls-3"><polygon class="cls-2" points="154.03 50.15 144.37 52.71 142.68 46.32 147.12 45.14 147.17 45.35 142.94 46.47 144.52 52.45 153.77 50 152.18 44.02 149.23 44.8 149.18 44.59 152.33 43.76 154.03 50.15"/><path class="cls-2" d="M149.41,49.66a1.62,1.62,0,0,1-.83-3.13,1.62,1.62,0,0,1,.83,3.13Zm-.77-2.92a1.4,1.4,0,1,0,1.71,1A1.41,1.41,0,0,0,148.64,46.74Z"/><path class="cls-2" d="M149.6,50.39a2.37,2.37,0,1,1,1.69-2.9A2.37,2.37,0,0,1,149.6,50.39ZM148.44,46a2.16,2.16,0,1,0,2.64,1.53A2.17,2.17,0,0,0,148.44,46Z"/><polygon class="cls-2" points="146.25 45.56 146.05 45.48 146.5 44.39 149.38 43.62 150.27 44.35 150.14 44.52 149.33 43.86 146.66 44.57 146.25 45.56"/><rect class="cls-2" x="145.29" y="46.63" width="0.21" height="4.77" transform="translate(-7.71 38.9) rotate(-14.85)"/><rect class="cls-2" x="144.6" y="45.6" width="0.21" height="0.28" transform="matrix(0.97, -0.26, 0.26, 0.97, -6.89, 38.61)"/></g><g class="cls-1"><path class="cls-2" d="M116.39,145l-8.26-2,3.62-15.21,8.26,2Zm-7.94-2.17,7.74,1.85L119.68,130,112,128.17Z"/><rect class="cls-2" x="111.55" y="130.42" width="0.56" height="2.17" transform="translate(33.52 -22.34) rotate(13.4)"/><rect class="cls-2" x="110.54" y="134.36" width="0.56" height="2.79" transform="translate(34.48 -21.99) rotate(13.4)"/><rect class="cls-2" x="114.55" y="129.71" width="0.27" height="8.22" transform="translate(-42.07 214.38) rotate(-76.6)"/><rect class="cls-2" x="114.4" y="130.36" width="0.27" height="8.22" transform="translate(-42.82 214.72) rotate(-76.6)"/></g></svg>