<svg version="1.1" id="Layer_1" xmlns="http://www.w3.org/2000/svg" xmlns:xlink="http://www.w3.org/1999/xlink" x="0" y="0" viewBox="0 0 755 560" xml:space="preserve"><style>.st0{fill:#d2d2d2}.st1{fill:#78dfdd}.st2{fill:#14d8c2}.st4{fill:#eba700}.st8{fill:#e2eef4}.st9{opacity:.1;fill:#103248}.st10{fill:#ffbab4}.st13{fill:#ffc8be}.st14{opacity:.6;fill:none;stroke:#034d8f;stroke-width:1.0719;stroke-linecap:round;stroke-miterlimit:10}.st15{opacity:.6;fill:#034d8f}.st16{fill:#2786d0}.st17{opacity:.24;fill:#e9736c}.st20{opacity:.51;fill:#fff}.st21{fill:#06c6ad}.st29{fill:#fff}.st38{fill:#003aa3}.st40{opacity:.51;fill:#2786d0}</style><path class="st0" d="M483.7 11.4zm95.4 341.8h67.5c1.1 0 2 .9 2 2v8.3c0 1.1-.9 2-2 2h-67.5c-1.1 0-2-.9-2-2v-8.3c-.1-1 .8-2 2-2z"/><path class="st1" d="M595 300.7s-28.5-5.6-36.4-25.5c-7.9-19.8 21.1-34.7 36.4-24.1 16.4 11.4 0 49.6 0 49.6z"/><path class="st2" d="M611.9 352.8c-.3 0-.5-.2-.5-.4-2.7-18.4-13.7-45-22.4-64-9.5-20.6-18.4-37.1-18.5-37.2-.1-.2 0-.6.2-.7.2-.1.6 0 .7.2.1.2 9 16.6 18.5 37.3 8.8 19.1 19.8 45.7 22.5 64.2.1.3-.1.6-.5.6.1 0 0 0 0 0z"/><path class="st2" d="M593.9 298.8c-.2 0-.4-.1-.5-.3-12.4-23-32.5-39.8-32.7-39.9-.2-.2-.3-.5-.1-.7.2-.2.5-.3.7-.1.2.2 20.5 17 32.9 40.2.1.3 0 .6-.2.7.1.1 0 .1-.1.1z"/><path class="st2" d="M594.5 300.4c-.1 0-.3-.1-.4-.2-9-10.6-18.3-17.2-24.4-20.9-6.7-4-11.3-5.5-11.3-5.5-.3-.1-.4-.4-.3-.6.1-.3.4-.4.6-.3.2.1 4.7 1.5 11.5 5.6 6.2 3.7 15.6 10.4 24.7 21.1.2.2.2.5-.1.7-.1.1-.2.1-.3.1zm-2.5-6c-.2 0-.4-.1-.5-.3-6.9-20.4-4.4-45.1-4.4-45.3 0-.3.3-.5.6-.5s.5.3.5.6c0 .2-2.6 24.8 4.3 44.9.1.3-.1.6-.3.7-.1-.1-.2-.1-.2-.1z"/><path class="st2" d="M593.7 298.4c-.2 0-.5-.2-.5-.4-2.1-12.9-.5-23.4 1.3-29.9 1.9-7.1 4.3-11.1 4.4-11.3.1-.2.5-.3.7-.2.2.1.3.5.2.7 0 0-2.4 4.1-4.3 11.1-1.7 6.4-3.3 16.8-1.2 29.5 0 .2-.2.5-.6.5.1 0 .1 0 0 0z"/><path class="st1" d="M625 305.9s28.7-3.9 37.8-23.3c9.1-19.3-19-35.9-34.9-26.2-17 10.4-2.9 49.5-2.9 49.5z"/><path class="st1" d="M612.9 266.3s23.9-16.5 23.3-37.8c-.6-21.4-33.2-23.5-43-7.6-10.5 16.9 19.7 45.4 19.7 45.4z"/><path class="st2" d="M614.1 351.2c-.3 0-.5-.2-.5-.5.1-9.5 2.2-20.3 6.2-32.1 3.2-9.5 7.6-19.6 13-30.1 9.3-17.9 18.7-30.9 18.8-31 .2-.2.5-.3.7-.1.2.2.3.5.1.7-.1.1-9.4 13.1-18.7 30.9-8.6 16.4-18.8 40.5-19.1 61.8 0 .1-.2.4-.5.4z"/><path class="st2" d="M626.2 304c-.1 0-.2 0-.3-.1-.2-.1-.3-.5-.2-.7 13.8-22.5 35-38.1 35.2-38.2.2-.2.6-.1.7.1.2.2.1.6-.1.7-.2.2-21.3 15.7-35 37.9.1.2-.1.3-.3.3z"/><path class="st2" d="M625.6 305.6c-.1 0-.3 0-.4-.1-.2-.2-.2-.5 0-.7 9.7-10.2 19.5-16.3 25.9-19.6 7-3.6 11.6-4.8 11.8-4.9.3-.1.6.1.6.4s-.1.6-.4.6c0 0-4.7 1.2-11.6 4.8-6.4 3.3-16 9.3-25.6 19.4-.1.1-.2.1-.3.1zm2.8-5.8h-.2c-.3-.1-.4-.4-.3-.7 8-19.7 7-44.3 7-44.6 0-.3.2-.5.5-.5s.5.2.5.5c0 .2 1.1 25.1-7 45-.1.1-.3.3-.5.3z"/><path class="st2" d="M626.4 303.7h-.1c-.3-.1-.5-.3-.4-.6 2.8-12.5 1.9-23 .5-29.5-1.4-7.1-3.6-11.3-3.6-11.3-.1-.3 0-.6.2-.7.3-.1.6 0 .7.2.1.2 2.2 4.3 3.7 11.5 1.4 6.6 2.4 17.2-.5 30 0 .2-.2.4-.5.4zM610.5 323.2h-.1c-.3-.1-.4-.3-.4-.6 4.3-18.1 3.9-46.8 2.8-67.7-1.2-22.7-3.4-41.2-3.4-41.4 0-.3.2-.5.4-.6.3 0 .5.2.6.4 0 .2 2.2 18.8 3.4 41.5 1.1 21 1.5 49.8-2.9 68 .1.2-.1.4-.4.4z"/><path class="st2" d="M613.9 266.3c-.3 0-.5-.2-.5-.5-3-26-15.4-49-15.6-49.2-.1-.2 0-.6.2-.7.2-.1.6 0 .7.2.1.2 12.7 23.4 15.7 49.6 0 .3-.2.6-.5.6z"/><path class="st2" d="M613.8 268c-.2 0-.4-.1-.5-.4-4.4-13.2-10.6-22.8-15-28.5-4.7-6.2-6.4-7.9-6.4-8-.2-.2-.3-.5-.1-.7.2-.2.5-.3.7-.1.2.1 1.8 1.9 6.6 8.1 4.4 5.8 10.6 15.4 15.1 28.8.1.3-.1.6-.3.7 0 .1-.1.1-.1.1zm-.1-6.5c-.3 0-.5-.3-.5-.5 1.1-21.5 12.6-43.5 12.7-43.7.1-.3.4-.3.7-.2.3.1.3.4.2.7-.1.2-11.5 22.1-12.6 43.3 0 .2-.2.4-.5.4z"/><path class="st2" d="M613.8 265.9h-.1c-.3-.1-.5-.3-.4-.6 2.8-12.8 8.2-22 12.3-27.5 4.4-6 8.1-8.9 8.3-9 .2-.2.5-.1.7.1.2.2.1.5-.1.7 0 0-3.8 3-8.1 8.8-4 5.4-9.3 14.5-12.1 27.1 0 .2-.2.4-.5.4z"/><path d="M643.7 320.4l-.8 2.3-.5 1.4-1.5 4.1-.5 1.4-1.6 4.2-.5 1.4-6.8 18h-37.1l-6.8-18-.5-1.4-1.6-4.2-.5-1.4-1.5-4.1-.5-1.4-.8-2.3c-.6-1.5.6-3.2 2.2-3.2h57.4c1.3 0 2.5 1.7 1.9 3.2z" fill="#fdba00"/><path class="st4" d="M640.8 328.2l-.6 1.4h-54.8l-.6-1.4z"/><path class="st0" d="M602.9 365.6l-2.1 6.6-28.6 71.1h-5.6l18.2-69.2 1.7-8.5zM659.1 443.3h-5.5l-29.5-73.8-1.2-3.9h16.4l.4 2.1z"/><linearGradient id="SVGID_1_" gradientUnits="userSpaceOnUse" x1="63.602" y1="135.945" x2="355.69" y2="135.945"><stop offset="0" stop-color="#ebebeb"/><stop offset=".561" stop-color="#d9dadb"/><stop offset=".996" stop-color="#d0d2d3"/></linearGradient><path d="M63.6 39.8V232c0 1.7 1.8 3 4.1 3h284c2.2 0 4.1-1.3 4.1-3V39.8c0-1.7-1.8-3-4.1-3h-284c-2.3 0-4.1 1.4-4.1 3zm21.2 10.5h250.7c2.2 0 4.1 1.3 4.1 3v165.2c0 1.7-1.8 3-4.1 3H84.8c-2.2 0-4.1-1.3-4.1-3V53.3c.1-1.6 1.9-3 4.1-3z" fill="url(#SVGID_1_)"/><path fill="#eaf6ff" d="M80.8 50.3h258.9v171.2H80.8z"/><path d="M108.7 153.4c6.9 4.7 13.7 9.6 20.6 14.2 7.9 5.3 15.9 10.5 23.8 15.9 16 10.9 31.8 21.9 47.4 33.1 2.3 1.6 4.6 3.3 6.9 5h10.2c-6.8-6.3-13.6-12.7-20.3-19-14.7-13.7-29.4-27.5-44.1-41.2-14.7-13.6-29.5-27.3-44.4-40.7-9.2-8.3-18.5-16.6-27.9-24.8v39.9c9.7 5.4 18.8 11.5 27.8 17.6zm229 43.1c-17.8-18.3-35.5-36.6-52.9-55-17.5-18.4-34.7-36.9-51.5-55.7-10.5-11.8-20.9-23.6-31-35.5h-72.5c6.8 9.5 13.8 18.9 21 28.2 11.7 15.2 24 30.2 36.6 45 12.7 14.9 25.8 29.5 39.2 44.1 13.3 14.5 27 28.8 40.9 43 3.6 3.7 7.3 7.4 10.9 11h61.4v-23c-.8-.7-1.5-1.4-2.1-2.1z" fill="#fafdff"/><path class="st8" d="M295.2 466.7c0 6.3-58.5 11.4-130.7 11.4-72.2 0-130.7-5.1-130.7-11.4 0-6.3 58.5-11.4 130.7-11.4 72.1 0 130.7 5.1 130.7 11.4z"/><path class="st2" d="M321.3 406c-.3 2.6-.7 5.1-1.2 7.6-7.3 31.5-40 53.3-98.3 57.3-117.8 8-182.7.9-205.8-55.1-5.2-12.7-7.3-29-7-46.9 1-61.3 28.9-140.5 47.9-150.5 24.4-12.9 41.8-6.2 41.8-6.2 39.6 8.4 102.7 124.5 152 128.9s74 30.4 70.6 64.9z"/><path class="st9" d="M62.1 289.1s29.3 23.6 39.6 49.8c10.2 26.2 10.2 49.3 31.6 53.8s61.3 7.1 101.8-4.9 41.3-26.2-1.3-33.8c-42.7-7.6-89.3-48-102.7-76.9-13.3-28.9-12.9-40.5-21.3-48-8.4-7.6-20.9-10.2-33.3 4.4s-19.7 39.1-14.4 55.6z"/><path class="st10" d="M151.9 268.1s24.7 26.1 34.8 28.6l-16.2 10.2-21.5-12c.1 0-7.9-21.4 2.9-26.8z"/><path d="M165 324s39.5-6.1 63.8 4.8c24.3 11 17.8 29.3 10.1 45-7.7 15.7-14.8 21.6-14.8 21.6l-14.8-6.2s5.3-26.7 14.2-40c0 0-34.7 18.4-53.3 17.5s-18.4-35.9-18.4-35.9L165 324z" fill="#c4f3ef"/><linearGradient id="SVGID_2_" gradientUnits="userSpaceOnUse" x1="82.572" y1="288.694" x2="165.149" y2="288.694"><stop offset="0" stop-color="#4ecbff"/><stop offset=".244" stop-color="#4bc4ff"/><stop offset=".592" stop-color="#44b2fe"/><stop offset="1" stop-color="#3793fd"/></linearGradient><path d="M108.3 239.7s-10.2 5.4-17.9 8.4c-7.7 3-10.1 14.4-5.6 22.7 4.4 8.3 15.6 29.5 20.3 42.1 4.7 12.6 7.5 23 7.5 23s25.9 5 40.2-.2C167.2 330.4 165 324 165 324s-9.3-32.5-10.6-41.3c0 0 4-9 .7-17s-11.7-11.3-15.9-16.2c-4-4.9-20.1-11.2-30.9-9.8z" fill="url(#SVGID_2_)"/><path class="st13" d="M139.8 206c-.3 4.4-.7 8.9-.1 15.1.5 5.1-2 9.1-9 14.8 0 0-2.6.2-5.5-.6h-.2l.7 4.9.1 1 .1.7s.1 3.1-3.6 4c-3.7.9-11.2-2.7-14-6.2 0 0 .4-13.3-.7-18.6 0 0-3.4-5.7-5.3-13.4-1.9-7.8 3.9-15.4 9.4-18.2 5.4-2.8 21.9-2.9 26.9 8.5 0 0 1.5 3.6 1.2 8z"/><path class="st14" d="M109 214.2s2.4 2.6 2.1 3.8c-.3 1.2-1.6 1.2-.9 2.8.6 1.6 1 2.3 1 2.3"/><path class="st15" d="M138.1 207.7s-2.1-.7-4.9 1.3c0 0 .5-2.3 2.2-2.6 1.6-.2 2.7 1.3 2.7 1.3zm-11.4 2s-1.5-1.8-3.7-1.5c-2.2.3-3.9 1.2-3.9 1.2s1-2.2 3.1-2.6c2.2-.6 3.9.7 4.5 2.9zm7.2 3.6c-.1 1.1.2 2 .7 2.1.4 0 .9-.8.9-2 .1-1.1-.2-2-.7-2.1-.4 0-.8.9-.9 2zm-9.7 1.3c-.1 1.1.2 2 .7 2.1.4 0 .9-.8.9-2 .1-1.1-.2-2-.7-2.1-.4 0-.8.9-.9 2z"/><path class="st14" d="M131.3 214.8s3.2 5.5 2.5 6.2c-.7.7-3.8 1.5-3.8 1.5m.4 2.8s-2.8.4-5-1.1"/><path class="st16" d="M116.4 201.5s1.2 2.3.6 7.6c-.7 5.2-1 3.3-1.4 5.7-.4 2.3.8 4.1-.8 6-1.6 1.9.8-5-4.1-9.1-4.9-4.1-3.7 8-2.4 10.3s3.2 3.2 3.2 3.2l-3.1 3.7s-15-7.1-14.2-22.1c.8-15 9.6-19.1 9.6-19.1s7.3-10.3 25.9-5.6c18.6 4.8 16.3 20 16.1 22.2-.4 5.9-6.2 6-6.2 6s.6-6.2-3.4-9.9c0 0-1.1 2.6-5 3.6s-2-2.6-1.2-4.1c0 0-2.2 3-5.8 3-3.8 0-7.8-1.4-7.8-1.4z"/><path class="st17" d="M125.8 241.1c-1.7-.4-4.3-1.4-7.6-3.6-6-4-5-11.6-5-11.6 2.6 6.1 10.7 8.8 10.7 8.8l1.2.5h-.2l.7 4.9.2 1z"/><path class="st16" d="M110.6 184.4s6.2-3.1 4.9-9.3-10.9-4.2-12.2-3.1c0 0-1-7.8-7.6-8.6-6.6-.8-17.4 12.2-5.8 16.1 0 0-4.1 6.2.1 10.2 4.2 4 9.8 4 14.8 1.4s5.8-6.7 5.8-6.7z"/><path class="st13" d="M89.1 251c7.8-.8 13.8 7.7 21.3 23.1 7.6 15.4 15.6 39 15.6 39s35.7-4 47.3-13.2c0 0 2.5-9.3 4.3-11.6 1.8-2.2 5.2-3.9 7.4-5 2.2-1.2 3.7-2.4 3.7-2.4l-8.7 23.3s-5.9 5.5-9.2 8.6c-3.3 3.1-38.2 21.5-52.2 17.9-13.9-3.6-31.3-40.2-33.2-49-1.9-8.9-6.4-29.7 3.7-30.7z"/><path d="M112.6 335.8s-8.5 29.8 12.8 44.9 76.5-18.7 96-41.8c0 0 29.9 41.2 55.4 53.6l12.2-11.3s-34.4-50.4-52.5-61.9c-18.1-11.6-75.6 11-75.6 11s-33.3 8-48.3 5.5z" fill="#d2fffc"/><path class="st13" d="M329.6 385.8c-1.2-.3-2.1.9-3.4 1.2-1.3.3-17.9 5.9-24.9 7.4L289 381.3l-12.2 11.3 12.5 10c1.3 2.4 4 7 7.6 10.1 5 4.4 9 2.5 11.3.9 2.2-1.6 6.2-6.1 10.2-9.2 4-3.1 9.6-8.9 11.1-12.7 1.6-3.9 1.3-5.6.1-5.9z"/><path class="st10" d="M210.9 388.6s-2.5 9.5-4 12-7.4 9-6.4 12.8c1 3.8 5.2 5.3 12 6.9 6.7 1.6 7.7 5.5 11.9 7.1 4.2 1.6 9 2.3 10.2 1.4 1.2-.9 3-.1 5.1-2.5 2.3-2.5-2.5-4.4-5-6.6-1.6-1.4-5.9-5.6-10.8-9.9-4.9-4.3.2-15.8.2-15.8l-13.2-5.4z"/><linearGradient id="SVGID_3_" gradientUnits="userSpaceOnUse" x1="177.042" y1="282.026" x2="232.99" y2="282.026"><stop offset="0" stop-color="#4ecbff"/><stop offset=".244" stop-color="#4bc4ff"/><stop offset=".592" stop-color="#44b2fe"/><stop offset="1" stop-color="#3793fd"/></linearGradient><path d="M232.9 253.7l-14 40.5-2.8 8c-.2.5-.6.9-1.2 1.1l-35.7 9.3c-.7.2-1.4-.1-1.8-.6-.3-.4-.5-1-.3-1.6l1.9-5.4 17.4-51c.2-.7.8-1.1 1.5-1.2l30.4-1.2 2.8-.1c1.3-.1 2.2 1 1.8 2.2z" fill="url(#SVGID_3_)"/><path class="st10" d="M225.7 277.1c-.1 0-.1 0 0 0 .4-.5.9-1.2.7-2-.3-1.2-2.1-1.9-4.5-1.9-2.5.1-3.7.9-3.2 1.4.5.5 1.9 1.1 3.4.9l.3.4c-.5 0-1 .1-1.5.2-2.4.6-3.5 1.7-2.9 2.1.6.4 2.1.7 3.5.2l.3.3c-.4 0-.7.1-1.1.2-2.4.6-3.5 1.7-2.9 2.1.6.4 2.1.7 3.5.2l.8.6c-1.4.4-2.9 1.1-2.6 1.6.4.7 2.6.9 2.6.9l-.9 2.9s2.9-1.4 3.9-2.9c.6-.9.4-1.8-.1-2.4.3-.5.8-1.4.4-2.2-.1-.2-.2-.3-.4-.4.5-.3 1.1-1.4.7-2.2z"/><path class="st20" d="M215.2 280.8c-1 3.3-3.7 5.4-6 4.7-2.3-.7-3.4-4-2.4-7.3s3.7-5.4 6-4.7c2.4.7 3.4 4 2.4 7.3z"/><path class="st21" d="M320 413.6c-7.3 31.5-40 53.3-98.3 57.3-117.8 8-182.7.9-205.8-55.1-5.2-12.7-7.3-29-7-46.9 8.9 3.6 25.4 13.3 43.4 39.3 26.7 38.7 80.5 58.2 145.4 49.8 63.2-8.2 101.5-17.3 122.3-44.4z"/><g><ellipse transform="matrix(.9998 -.02215 .02215 .9998 -11.24 12.534)" class="st8" cx="560.3" cy="513.8" rx="185.7" ry="28.1"/><path class="st2" d="M737.1 468.5c-1.6 15-23.5 26.4-23.5 26.4-8.1 20.3-49.5 28-49.5 28-23.9 18.3-71.4 11.8-110.4 6.5-39-5.3-41.4-7.3-90.9-7.3-41.8 0-81.4-8.7-86.5-22.9-.9-2.6-.7-5.4.8-8.3 10.1-19.1 45.5-22.3 45.5-22.3 17-14.2 54-17.5 54-17.5s201.7-3.2 222-5.7c17.1-2 33.8 5.1 37.8 16.3.6 2.1.9 4.4.7 6.8z"/><path class="st9" d="M425.8 471.3s-16.5 4.9-20.8 10.6c-4.3 5.7 11.1-1.6 15.2-1.6s-11.9 8.7-8.7 14.1c3.2 5.4 15.7-4.1 24.9-6.2 9.2-2.2 23.8 1.9 38.1 7s27.9-1.6 34.1-5.1c6.2-3.5 24.4-16.2 50.9-16.5 26.5-.3 49.5 2.7 76-.3s32.7 2.4 37.6 3.5c4.9 1.1 1.1-7.3-11.6-9.2-12.7-1.9-21.9.8-20.6-1.6 1.4-2.4 20.6-7.3 33.3-7 12.7.3 31.7-5.1 33-8.1 1.4-3-8.9-3.5-22.7-4.1-13.8-.5-192.9 7.6-207 11.4-14.1 3.7-37.4 5.8-51.7 13.1z"/><path class="st10" d="M465.8 411.7s-7.3 1.8-11.6 12C449.9 433.8 430 465 430 465l-19-18.4-8.5-.8s15.4 34.3 24.4 39.4c8.9 5.1 42.8-51.5 42.8-51.5l-3.9-22z"/><linearGradient id="SVGID_4_" gradientUnits="userSpaceOnUse" x1="579.799" y1="448.123" x2="675.17" y2="448.123"><stop offset="0" stop-color="#4ecbff"/><stop offset=".244" stop-color="#4bc4ff"/><stop offset=".592" stop-color="#44b2fe"/><stop offset="1" stop-color="#3793fd"/></linearGradient><path d="M579.8 437.6s19.3 4.9 39.8 5.3c0 0 23.9-6.7 33.9-5.5 9.9 1.2 19.9 2.8 19.9 2.8l1.8 8.7s-50.9 10.3-70.8 9.9-24.6-21.2-24.6-21.2z" fill="url(#SVGID_4_)"/><linearGradient id="SVGID_5_" gradientUnits="userSpaceOnUse" x1="464.497" y1="434.831" x2="546.437" y2="434.831"><stop offset="0" stop-color="#ff7100"/><stop offset=".041" stop-color="#ff8600"/><stop offset=".098" stop-color="#ff9d00"/><stop offset=".16" stop-color="#ffad00"/><stop offset=".23" stop-color="#ffb600"/><stop offset=".324" stop-color="#ffb900"/><stop offset="1" stop-color="#ffff91"/></linearGradient><path d="M465.4 414.5s-2.8 17.5 1.8 30.6c4.7 13.2 18.7 18.1 31.2 18.9 12.6.8 44.2.4 44.2.4s10.8-13.6-4.1-30c0 0-28.4-17.9-36.1-26.6-7.6-8.7-37 6.7-37 6.7z" fill="url(#SVGID_5_)"/><path class="st13" d="M491.3 396.3c-1.6 5 1.4 7.8 1.4 7.8-1.8 6.9-10.3 10.4-10.3 10.4-.8-1.1-2.1-2.1-3.4-3-2.8-1.9-5.8-3.1-5.8-3.1h-.2c-2.9.6-5.4.1-5.4.1-6.3-6.2-8.3-10.3-7.4-15.2 1.2-6 1.2-10.4 1.3-14.7.1-4.4 1.9-7.7 1.9-7.7 5.9-10.6 21.8-9 26.9-5.8 5 3.2 10 11.1 7.5 18.5-2.6 7.5-6.5 12.7-6.5 12.7z"/><path class="st14" d="M490.7 389.5s-2.6 2.3-2.4 3.5c.2 1.2 1.4 1.3.7 2.8s-1.2 2.1-1.2 2.1"/><path class="st15" d="M463 380.4s2.1-.5 4.7 1.7c0 0-.3-2.3-1.9-2.7s-2.8 1-2.8 1zm10.9 3s1.6-1.6 3.8-1.1c2.1.5 3.7 1.5 3.7 1.5s-.7-2.2-2.8-2.9c-2.2-.6-4 .5-4.7 2.5zm-7.4 2.9c0 1.1-.4 2-.8 2s-.8-.9-.7-2c0-1.1.4-2 .8-2s.8.9.7 2zm9.4 2.2c0 1.1-.4 2-.8 2s-.8-.9-.7-2c0-1.1.4-2 .8-2s.7.9.7 2z"/><path class="st14" d="M469 388s-3.6 5.1-3 5.8 3.5 1.8 3.5 1.8m-.6 2.7s2.7.7 5-.7"/><path class="st17" d="M479.5 411.3c-.2.1-.3.2-.5.3-2.8-1.9-5.8-3.1-5.8-3.1h-.2l1.3-.4s8.1-1.9 11.2-7.6c0 0 .2 7.4-6 10.8z"/><path class="st16" d="M486.7 399.8s2 0 3.4-2.5 3.1-4.1 2.5-8.3c-.6-4.3-6-.5-7 3.5 0 0-4.1-6-.9-12.1 0 0-.3-1.8-2.6-1.4-2.2.5-6.9 1.6-7.8.6-.9-.9.8-2.7 1.6-3.4.8-.7-3.6 2.5-6.9 2.1-3.3-.4-2.2-2.5-.4-3.5 1.8-1-.5-1.2-2-.1-1.4 1.1-2.8 3.7-5.1 3.9 0 0-.2 7.6-.5 10.7-.3 3-1 4-.5 6.8s4.5 10.9 7.3 12.2c0 0 3.4.6 5.6-.1 0 0 6.9 2.9 9 6.2 0 0-13.3 3.9-19.1.9-5.9-3-10-8.7-9.3-17 .7-8.3 2.2-13.3 1.4-16.4-.8-3.1-5.3-8-.3-15.7 5.1-7.6 17.7-10.3 28.3-8.6 10.6 1.7 14.1 11.4 14.1 11.4s4.6 1.9 7 7c2.4 5.1-1.8 15 .7 21.3 2.4 6.3 6.6 13 5.3 21.7-1.3 8.7-15.6 16.3-23.5 14.8-7.8-1.5-5.7-13.4-1.3-19.2 4.5-5.6 1-14.8 1-14.8z"/><linearGradient id="SVGID_6_" gradientUnits="userSpaceOnUse" x1="538.607" y1="429.662" x2="641.96" y2="429.662"><stop offset="0" stop-color="#4ecbff"/><stop offset=".244" stop-color="#4bc4ff"/><stop offset=".592" stop-color="#44b2fe"/><stop offset="1" stop-color="#3793fd"/></linearGradient><path d="M540.5 463.7s59.8 8.9 80.1 5.4c20.3-3.5 18.1-26 19.2-37.1l2.2-40.9-8.1-1.9s-16.8 23.3-14.3 60.9c0 0-23.8-3.9-34.8-12.4-18.1-13.8-39.6-5.5-46.1-2l1.8 28z" fill="url(#SVGID_6_)"/><path class="st13" d="M633.8 389.3s3.3-7.2 3.7-9.6c.4-2.4-3.4-6.7 2.8-8.5 6.3-1.8 8.5-1.1 11.9-2.2 3.3-1.1 9.4-2.5 11.6-1.6 2.1.9 2.3 1.1 3.2 2.1.9 1-18.6 9-21.3 12.9-2.7 3.9-3.9 9.2-3.9 9.2l-8-2.3zm39.5 51s7.5.6 10.1-1.4c2.6-2 3-4.5 6.5-4.3 3.4.2 6.7 5.1 12.4 6.5 5.7 1.4 12 3.4 13.4 4.9 1.4 1.4-18.5 1.8-26.8 1.4-8.3-.4-13.8 1.6-13.8 1.6l-1.8-8.7z"/><linearGradient id="SVGID_7_" gradientUnits="userSpaceOnUse" x1="398.155" y1="431.464" x2="421.05" y2="431.464"><stop offset="0" stop-color="#4ecbff"/><stop offset=".244" stop-color="#4bc4ff"/><stop offset=".592" stop-color="#44b2fe"/><stop offset="1" stop-color="#3793fd"/></linearGradient><path d="M398.2 419.1l4.2 26.7L421 448l-3.3-29.1c-.2-1.7-1.6-3-3.3-3.1l-12.5-.7c-2.3-.2-4.1 1.8-3.7 4z" fill="url(#SVGID_7_)"/><path class="st13" d="M511.6 429.7s-7.5 0-13.4 10.1-25 36.3-25 36.3-29.8-10.3-39.4-20.7c0 0-5-13.7-9.3-16.4l-4.3-2.7-.1 4.6s-5.3-3.9-11.2-4.5c-6-.5 0 3.9 0 3.9s-.1 3.1.9 4.2c1.1 1.1-.9 2.5.7 3.9s1.3 5.1 2.8 6.3c1.5 1.2 10.3 5 10.3 5s24.5 25.2 39.6 31.4c15.2 6.2 20.8 2.7 28.8-7.4 8-10.1 26.6-36.5 27.6-43.6s-2.5-11.4-8-10.4z"/><path class="st10" d="M396.9 432.3l.1-.1c-.6-.6-1.4-1.7-1.1-2.8.5-1.7 3-2.8 6.5-2.7 3.5.1 5.4 1.3 4.6 2-.7.7-2.7 1.6-4.9 1.3l-.5.6c.7.1 1.4.2 2.2.4 3.4.8 5 2.4 4.1 3-.9.6-3 1-5.1.3l-.5.4c.5.1 1.1.2 1.6.3 3.4.8 5 2.4 4.1 3-.9.6-3 1-5.1.3l-1.1.9c2 .6 4.1 1.5 3.7 2.2-.6 1-3.7 1.3-3.7 1.3l1.4 4.2s-4.2-2-5.7-4.1c-.8-1.2-.6-2.5.1-3.4-.5-.7-1.2-2-.6-3.1.1-.2.3-.4.5-.6-.3-.7-1.2-2.2-.6-3.4z"/><path class="st20" d="M411.2 420.8l1.1 5.8c.1.5.5.8.9.9l1.3.1c.7.1 1.2-.5 1.1-1.2l-1-5.8c-.1-.5-.5-.9-1-.9h-1.4c-.6-.2-1.2.5-1 1.1z"/><path class="st21" d="M737.1 468.5c-1.6 15-23.5 26.4-23.5 26.4-8.1 20.3-49.5 28-49.5 28-23.9 18.3-71.4 11.8-110.4 6.5-39-5.3-41.4-7.3-90.9-7.3-41.8 0-81.4-8.7-86.5-22.9 9.7 4.9 27.9 11.7 58.1 14.4 49.5 4.5 51.5-.8 103.9 5.3 52.4 6.1 90.9 6.9 103.5 1.6 12.6-5.3 15-9.7 15-9.7s34.9 2 48.3-19.1c0 0 20.9-8.9 31.3-29.9.6 2 .9 4.3.7 6.7z"/></g><g><linearGradient id="SVGID_8_" gradientUnits="userSpaceOnUse" x1="463.043" y1="170.895" x2="484.956" y2="71.97"><stop offset="0" stop-color="#ebebeb"/><stop offset=".561" stop-color="#d9dadb"/><stop offset=".996" stop-color="#d0d2d3"/></linearGradient><circle cx="473.3" cy="124.8" r="42.8" fill="url(#SVGID_8_)"/><linearGradient id="SVGID_9_" gradientUnits="userSpaceOnUse" x1="437.955" y1="120.947" x2="523.537" y2="120.947"><stop offset="0" stop-color="#ff7100"/><stop offset=".111" stop-color="#ff8600"/><stop offset=".265" stop-color="#ff9d00"/><stop offset=".433" stop-color="#ffad00"/><stop offset=".623" stop-color="#ffb600"/><stop offset=".88" stop-color="#ffb900"/><stop offset="1" stop-color="#ffff91"/></linearGradient><circle cx="480.7" cy="120.9" r="42.8" opacity=".7" fill="url(#SVGID_9_)"/><linearGradient id="SVGID_10_" gradientUnits="userSpaceOnUse" x1="437.955" y1="111.325" x2="523.537" y2="111.325"><stop offset="0" stop-color="#ff7100"/><stop offset=".004" stop-color="#ff7200"/><stop offset=".239" stop-color="#ff9100"/><stop offset=".467" stop-color="#ffa700"/><stop offset=".685" stop-color="#ffb400"/><stop offset=".88" stop-color="#ffb900"/><stop offset="1" stop-color="#ffff91"/></linearGradient><path d="M523.5 120.9c0-23.1-18.2-41.9-41.1-42.7 22.1 2.5 38 21.5 39 43.7v2.4c.3 6.6-1.7 13.8-5 20.1 4.5-6.7 7.1-14.8 7.1-23.5z" fill="url(#SVGID_10_)"/><circle class="st29" cx="480.7" cy="120.9" r="35.1"/><linearGradient id="SVGID_11_" gradientUnits="userSpaceOnUse" x1="508.664" y1="143.791" x2="499.943" y2="80.695"><stop offset="0" stop-color="#00c0aa" stop-opacity="0"/><stop offset="1" stop-color="#1fcedd"/></linearGradient><path d="M490.2 87.2c12.1 7.9 20 21.7 20.7 37.1.3 7.3-2.1 15.3-6.1 22.1 6.8-6.4 11-15.4 11-25.5 0-16-10.8-29.6-25.6-33.7z" fill="url(#SVGID_11_)"/><path fill="none" stroke="#eba700" stroke-width="1.45" stroke-miterlimit="10" d="M480.7 100.4v20.5h27.4"/></g><g><path d="M724.8 197.4l14.6-45.2c.6-1.8-.4-3.8-2.2-4.4l-7.1-2.3c-1.8-.6-3.8.4-4.4 2.2l-15.9 49.1c-.1.2-.1.4-.1.5h15.1z" fill="#23d3c7"/><linearGradient id="SVGID_12_" gradientUnits="userSpaceOnUse" x1="694.713" y1="171.713" x2="724.403" y2="171.713"><stop offset="0" stop-color="#4ecbff"/><stop offset=".244" stop-color="#4bc4ff"/><stop offset=".592" stop-color="#44b2fe"/><stop offset="1" stop-color="#3793fd"/></linearGradient><path d="M709.9 197.4l14.3-44.3c.7-2-.5-4.2-2.5-4.9l-6.4-2.1c-2-.7-4.2.5-4.9 2.5L694.8 197c0 .1-.1.3-.1.4h15.2z" fill="url(#SVGID_12_)"/><linearGradient id="SVGID_13_" gradientUnits="userSpaceOnUse" x1="662.684" y1="144.672" x2="662.348" y2="107.688"><stop offset="0" stop-color="#ff7100"/><stop offset=".111" stop-color="#ff8600"/><stop offset=".265" stop-color="#ff9d00"/><stop offset=".433" stop-color="#ffad00"/><stop offset=".623" stop-color="#ffb600"/><stop offset=".88" stop-color="#ffb900"/><stop offset="1" stop-color="#ffff91"/></linearGradient><path d="M739 135.5H586c-3 0-5.4-2.4-5.4-5.4v-1c0-3 2.4-5.4 5.4-5.4h153c3 0 5.4 2.4 5.4 5.4v1c0 3-2.4 5.4-5.4 5.4z" opacity=".7" fill="url(#SVGID_13_)"/><linearGradient id="SVGID_14_" gradientUnits="userSpaceOnUse" x1="695.272" y1="224.017" x2="695.272" y2="178.657"><stop offset="0" stop-color="#ff7100"/><stop offset=".111" stop-color="#ff8600"/><stop offset=".265" stop-color="#ff9d00"/><stop offset=".433" stop-color="#ffad00"/><stop offset=".623" stop-color="#ffb600"/><stop offset=".88" stop-color="#ffb900"/><stop offset="1" stop-color="#ffff91"/></linearGradient><path d="M739 209.5h-87.5c-3 0-5.4-2.4-5.4-5.4v-1c0-3 2.4-5.4 5.4-5.4H739c3 0 5.4 2.4 5.4 5.4v1c0 3-2.4 5.4-5.4 5.4z" opacity=".7" fill="url(#SVGID_14_)"/><path class="st4" d="M617.8 114.7h-4.5V95.4h4.5c4.8 0 8.7 3.9 8.7 8.7v1.9c0 4.8-3.9 8.7-8.7 8.7zm-1.2-3.3h1.2c3 0 5.4-2.4 5.4-5.4v-1.9c0-3-2.4-5.4-5.4-5.4h-1.2v12.7z"/><path fill="#ffc200" d="M591.6 87.5h25.1v36.2h-25.1z"/><defs><path id="XMLID_181_" d="M717.6 123.7h-79.9c-1.8 0-3.2-1.4-3.2-3.2v-11.7c0-1.8 1.4-3.2 3.2-3.2h79.9c1.8 0 3.2 1.4 3.2 3.2v11.7c0 1.8-1.4 3.2-3.2 3.2z"/></defs><linearGradient id="XMLID_2_" gradientUnits="userSpaceOnUse" x1="634.6" y1="114.665" x2="720.822" y2="114.665"><stop offset="0" stop-color="#4ecbff"/><stop offset=".244" stop-color="#4bc4ff"/><stop offset=".592" stop-color="#44b2fe"/><stop offset="1" stop-color="#3793fd"/></linearGradient><use xlink:href="#XMLID_181_" overflow="visible" fill="url(#XMLID_2_)"/><clipPath id="XMLID_3_"><use xlink:href="#XMLID_181_" overflow="visible"/></clipPath><path d="M647.3 100.9h5v28.7h-5zm9.7 0h1.6v28.7H657z" opacity=".51" clip-path="url(#XMLID_3_)" fill="#2786d0"/></g><g><path class="st8" d="M334.6 551c0 2.3-10.5 4.2-23.4 4.2-12.9 0-23.4-1.9-23.4-4.2s10.5-4.2 23.4-4.2c13 0 23.4 1.8 23.4 4.2z"/><g id="XMLID_53_"><g id="XMLID_105_"><g id="XMLID_106_"><path id="XMLID_153_" class="st16" d="M293.4 540.2l-1.5 10.8 9.2-7.4z"/><path id="XMLID_152_" class="st16" d="M329.1 540.2l1.5 10.8-9.2-7.4z"/></g></g><g id="XMLID_70_"><g id="XMLID_86_"><path id="XMLID_104_" transform="rotate(44.863 330.647 507.6)" class="st38" d="M328.3 502.4h4.7v10.3h-4.7z"/><path id="XMLID_97_" transform="rotate(44.863 330.647 507.6)" class="st16" d="M328.3 502.4h4.7v10.3h-4.7z"/><g id="XMLID_87_"><linearGradient id="XMLID_4_" gradientUnits="userSpaceOnUse" x1="323.413" y1="503.651" x2="345.635" y2="503.651"><stop offset="0" stop-color="#4ecbff"/><stop offset=".244" stop-color="#4bc4ff"/><stop offset=".592" stop-color="#44b2fe"/><stop offset="1" stop-color="#3793fd"/></linearGradient><path id="XMLID_89_" d="M342 514.7c4.9-5.1 4.9-13.3-.2-18.4s-13.2-5.1-18.4-.1l18.6 18.5z" fill="url(#XMLID_4_)"/><path id="XMLID_88_" class="st40" d="M341.8 496.4c-1.1-1.1-2.3-1.9-3.6-2.5.2.1.3.3.5.4 4.9 4.9 5.1 12.7.7 17.8l2.6 2.6c4.9-5.1 4.9-13.3-.2-18.3z"/></g></g><g id="XMLID_71_"><path id="XMLID_84_" transform="rotate(135.137 291.842 507.559)" class="st38" d="M289.5 502.4h4.7v10.3h-4.7z"/><path id="XMLID_83_" transform="rotate(135.137 291.842 507.559)" class="st16" d="M289.5 502.4h4.7v10.3h-4.7z"/><g id="XMLID_72_"><linearGradient id="XMLID_5_" gradientUnits="userSpaceOnUse" x1="276.831" y1="503.651" x2="299.054" y2="503.651"><stop offset="0" stop-color="#4ecbff"/><stop offset=".244" stop-color="#4bc4ff"/><stop offset=".592" stop-color="#44b2fe"/><stop offset="1" stop-color="#3793fd"/></linearGradient><path id="XMLID_82_" d="M280.5 514.7c-4.9-5.1-4.9-13.3.2-18.4s13.2-5.1 18.4-.1l-18.6 18.5z" fill="url(#XMLID_5_)"/><path id="XMLID_81_" class="st40" d="M280.7 496.4c1.1-1.1 2.3-1.9 3.6-2.5-.2.1-.3.3-.5.4-4.9 4.9-5.1 12.7-.7 17.8l-2.6 2.6c-5-5.1-4.9-13.3.2-18.3z"/></g></g></g><linearGradient id="XMLID_6_" gradientUnits="userSpaceOnUse" x1="286.212" y1="522.615" x2="336.255" y2="522.615"><stop offset="0" stop-color="#4ecbff"/><stop offset=".244" stop-color="#4bc4ff"/><stop offset=".592" stop-color="#44b2fe"/><stop offset="1" stop-color="#3793fd"/></linearGradient><circle id="XMLID_69_" cx="311.2" cy="522.6" r="25" fill="url(#XMLID_6_)"/><circle id="XMLID_68_" class="st40" cx="311.2" cy="522.6" r="21.8"/><circle id="XMLID_67_" class="st29" cx="311.2" cy="522.6" r="20.3"/><g id="XMLID_64_"><path id="XMLID_66_" transform="rotate(37.203 307.994 527.419)" class="st38" d="M306.5 523.2h2.9v8.5h-2.9z"/><linearGradient id="XMLID_7_" gradientUnits="userSpaceOnUse" x1="304.251" y1="527.417" x2="311.691" y2="527.417"><stop offset="0" stop-color="#4ecbff"/><stop offset=".244" stop-color="#4bc4ff"/><stop offset=".592" stop-color="#44b2fe"/><stop offset="1" stop-color="#3793fd"/></linearGradient><path id="XMLID_65_" fill="url(#XMLID_7_)" d="M306.6 531.7l-2.3-1.8 5.1-6.7 2.3 1.7z"/></g><linearGradient id="XMLID_8_" gradientUnits="userSpaceOnUse" x1="310.913" y1="516.038" x2="311.553" y2="516.038"><stop offset="0" stop-color="#4ecbff"/><stop offset=".244" stop-color="#4bc4ff"/><stop offset=".592" stop-color="#44b2fe"/><stop offset="1" stop-color="#3793fd"/></linearGradient><path id="XMLID_63_" fill="url(#XMLID_8_)" d="M310.9 509.5h.6v13.2h-.6z"/><path id="XMLID_62_" fill="#2598fd" d="M310.9 522.6v-13.1"/><path id="XMLID_61_" class="st16" d="M313.9 523.1c0 1.5-1.2 2.7-2.7 2.7-1.5 0-2.7-1.2-2.7-2.7 0-1.5 1.2-2.7 2.7-2.7 1.5.1 2.7 1.3 2.7 2.7z"/><path id="XMLID_55_" d="M312.6 523.1c0 .7-.6 1.3-1.3 1.3-.7 0-1.3-.6-1.3-1.3 0-.7.6-1.3 1.3-1.3.7 0 1.3.6 1.3 1.3z" fill="#c0dffc"/></g></g><g><path class="st2" d="M120.7 336.6c-.5 4.7-1 9.3-1 14 0 4.7.7 9.4 2.4 13.7.8 2.2 1.9 4.2 3.4 6.1 1.4 1.8 3.2 3.4 5.2 4.5 4 2.3 8.8 2.9 13.4 2.6 4.6-.3 9.2-1.5 13.6-3.1s8.6-3.7 12.6-6c8.2-4.6 15.9-9.8 23.5-15.4 7.6-5.5 14.6-11.7 22.2-17.4 1.9-1.4 4.7-2 7.1-1.1 2.3.9 4.1 2.7 5.7 4.4 3.1 3.6 6 7.2 9 10.8 6 7.2 12.2 14.3 18.6 21.1 6.4 6.8 13.2 13.3 20.4 19.3-7.3-5.9-14.2-12.3-20.8-19-6.6-6.7-12.8-13.8-18.9-20.9l-4.5-5.4-4.5-5.4c-1.5-1.7-3.3-3.3-5.3-4.1-2.1-.8-4.4-.3-6.3 1-7.4 5.6-14.5 11.8-22.1 17.4-7.6 5.6-15.4 10.9-23.6 15.4-4.1 2.3-8.3 4.4-12.8 6-4.4 1.6-9.1 2.8-13.8 3-4.7.3-9.6-.4-13.8-2.8-2.1-1.2-3.9-2.8-5.3-4.7-1.5-1.9-2.6-4-3.4-6.2-1.7-4.4-2.2-9.2-2.1-13.9-.1-4.6.5-9.3 1.1-13.9z"/></g><g><path class="st2" d="M127.9 335.9c-.5 4.4-.6 8.9.3 13.2.9 4.3 2.8 8.5 6 11.4 1.6 1.4 3.6 2.5 5.7 3.1 2.1.6 4.3.8 6.5.7 4.4-.2 8.7-1.5 12.7-3.3 8-3.8 15.9-7.8 23.5-12.3 3.8-2.3 7.5-4.7 11-7.4s7-5.4 10.7-7.9c1.9-1.2 3.8-2.4 5.8-3.3 2-1 4.1-1.8 6.2-2.6 2.1-.7 4.3-1.3 6.6-1.3s4.6.7 6.5 1.9c3.9 2.4 6.8 6 9.4 9.5 2.6 3.6 5.1 7.3 7.6 10.9 1.3 1.8 2.6 3.6 4.1 5.2l4.4 5c2.9 3.3 5.9 6.6 8.9 9.9 6 6.5 12.3 12.7 19.4 18.1-7.1-5.3-13.6-11.4-19.7-17.8-3.1-3.2-6-6.5-9-9.8l-4.4-4.9c-1.5-1.7-2.8-3.4-4.2-5.2-2.6-3.6-5.1-7.3-7.7-10.8-1.3-1.8-2.7-3.5-4.2-5.1-1.5-1.6-3.2-3.1-5-4.2-1.8-1.1-3.9-1.8-6.1-1.7-2.1 0-4.3.6-6.3 1.3-4.1 1.5-8.1 3.4-11.8 5.8-3.7 2.4-7.2 5.1-10.7 7.8-3.5 2.7-7.3 5.1-11.1 7.4-7.7 4.5-15.6 8.5-23.6 12.2-4.1 1.8-8.5 3-12.9 3.2-2.2.1-4.5-.1-6.7-.8-2.2-.6-4.2-1.7-5.9-3.2-3.3-3.1-5.1-7.4-6-11.8-.8-4.4-.7-8.9 0-13.2z"/></g><g><path class="st2" d="M138 334.7c.1 2 .4 4 .8 6s1.1 3.9 2.1 5.6c1 1.7 2.6 3.1 4.6 3.6 1.9.4 4 .3 6 0 4-.6 7.7-2.2 11.4-3.9 3.6-1.7 7.2-3.8 10.7-5.7 1.8-1 3.6-1.9 5.4-2.8l5.5-2.6c3.6-1.8 7.3-3.6 11-5.3 3.7-1.7 7.4-3.4 11.2-4.9 3.8-1.4 7.5-3 11.5-4.1 3.9-1 8.2-1.7 12.3-.5 2 .6 3.9 1.7 5.4 3.1 1.5 1.5 2.8 3 4.1 4.6 5.2 6.2 9.7 13.1 14.5 19.6 4.9 6.5 9.8 12.9 15.1 19 5.3 6.1 11 11.9 17.6 16.7-6.6-4.7-12.5-10.4-17.9-16.4-5.4-6.1-10.4-12.5-15.3-18.9-4.9-6.5-9.4-13.2-14.6-19.4-1.3-1.5-2.6-3.1-4-4.5-1.4-1.3-3.2-2.3-5-2.9-3.8-1.1-7.9-.5-11.7.6-3.9 1.1-7.6 2.6-11.4 4-3.8 1.4-7.5 3.1-11.1 4.8-3.7 1.7-7.3 3.5-11 5.2l-5.5 2.6c-1.8.8-3.6 1.8-5.4 2.7-3.6 1.9-7.1 3.9-10.8 5.6-3.7 1.7-7.5 3.2-11.6 3.8-2 .3-4.1.3-6.1-.1-2-.5-3.7-2-4.7-3.8-1-1.8-1.6-3.8-2-5.7-.8-2-1-4-1.1-6z"/></g><g><path class="st2" d="M149.5 332.7c.1 1.1.3 2.2.7 3.2.4 1 1.2 1.9 2.2 2.1 1 .3 2.1 0 3.2-.3l3.2-1c4.2-1.4 8.4-3 12.5-4.7 4.1-1.7 8.2-3.7 12.1-5.7 2-1 4-2.1 5.9-3.2 2-1.1 3.9-2.3 5.8-3.4-1.8 1.3-3.7 2.6-5.5 3.8-1.9 1.2-3.8 2.4-5.8 3.5-3.9 2.2-8 4.2-12.1 6-4.2 1.7-8.4 3.3-12.7 4.5l-3.3.9c-1.1.3-2.3.5-3.5.1-1.2-.4-2-1.4-2.3-2.5-.3-1.1-.4-2.2-.4-3.3z"/></g><g><path class="st2" d="M226.6 345.7c.2 3.9-.7 7.8-1.5 11.5-.9 3.8-1.9 7.5-3 11.2-1.2 3.7-2.4 7.4-3.9 11-1.5 3.6-2.9 7.2-5.2 10.4 1-1.7 1.7-3.5 2.4-5.3.7-1.8 1.4-3.6 2-5.4 1.3-3.7 2.5-7.3 3.6-11 1.2-3.7 2.2-7.4 3.2-11.1.5-1.9 1-3.7 1.4-5.6.6-1.9.9-3.8 1-5.7z"/></g><g><path class="st2" d="M232.3 351.6c-.7 3.5-1.5 6.9-2.5 10.3-.9 3.4-1.9 6.8-3 10.2-1.1 3.4-2.3 6.7-3.6 10-.7 1.6-1.3 3.3-2 4.9-.7 1.6-1.4 3.2-2.2 4.8l3.5-10c1.2-3.3 2.3-6.7 3.4-10s2.2-6.7 3.3-10.1l3.1-10.1z"/></g><g><path class="st2" d="M237.9 360.4c-.6 3.2-1.5 6.3-2.5 9.4-1 3.1-2.2 6.1-3.5 9-1.4 2.9-2.9 5.8-4.5 8.6-.8 1.4-1.7 2.7-2.6 4.1-.9 1.3-1.9 2.6-2.9 3.9l1.2-2.1 1.2-2.1 2.4-4.2c1.5-2.8 3-5.7 4.3-8.6 1.4-2.9 2.6-5.9 3.7-8.9 1.2-3 2.2-6 3.2-9.1z"/></g></svg>