<svg version="1.1" id="Layer_1" xmlns="http://www.w3.org/2000/svg" x="0" y="0" viewBox="0 0 755 560" xml:space="preserve"><style>.st1{fill:#fff}.st2{fill:#ee9a7f}.st5{fill:#f0c14d}.st6{opacity:.5}.st14{fill:none;stroke:#1dc5c6;stroke-width:.7759;stroke-miterlimit:10}.st18{fill:#7cdedb}.st19{opacity:.1;enable-background:new}.st19,.st20{fill:#123247}.st30{fill:#fdc7be}.st31{fill:#22c4ac}</style><linearGradient id="SVGID_1_" gradientUnits="userSpaceOnUse" x1="214.133" y1="144.782" x2="407.542" y2="144.782"><stop offset="0" stop-color="#eaeaea"/><stop offset=".56" stop-color="#d8d9da"/><stop offset="1" stop-color="#cfd1d2"/></linearGradient><path fill="url(#SVGID_1_)" d="M214.1 85.3h193.4v119H214.1z"/><path class="st1" d="M225 95h171.6v99.6H225z"/><path class="st2" d="M232.4 148.9h156v34.6h-156z"/><linearGradient id="SVGID_2_" gradientUnits="userSpaceOnUse" x1="365.028" y1="173.555" x2="144.738" y2="189.486"><stop offset="0" stop-color="#55cbfd"/><stop offset=".25" stop-color="#52c4fc"/><stop offset=".61" stop-color="#4ab2fb"/><stop offset="1" stop-color="#3d95f9"/></linearGradient><path d="M232.4 166s85.7-2.7 81.9 3.3c-3.8 6 74.7 8.8 74.7 8.8v11H231.8c0-.1 1.1-22.6.6-23.1z" fill="url(#SVGID_2_)"/><linearGradient id="SVGID_3_" gradientUnits="userSpaceOnUse" x1="232.094" y1="128.487" x2="388.118" y2="128.487"><stop offset=".788" stop-color="#4ec8fd"/><stop offset=".827" stop-color="#47b6fc"/><stop offset=".887" stop-color="#3ea1fb"/><stop offset=".945" stop-color="#3994fa"/><stop offset="1" stop-color="#3790fa"/></linearGradient><path opacity=".11" fill="url(#SVGID_3_)" d="M232.1 102.3h156v52.4h-156z"/><circle class="st5" cx="252.4" cy="119.9" r="7.1"/><g class="st6"><linearGradient id="SVGID_4_" gradientUnits="userSpaceOnUse" x1="492.008" y1="501.678" x2="484.376" y2="408.562"><stop offset="0" stop-color="#fd7101"/><stop offset=".225" stop-color="#fd8e01"/><stop offset=".458" stop-color="#fda400"/><stop offset=".68" stop-color="#fdb100"/><stop offset=".88" stop-color="#fdb600"/><stop offset="1" stop-color="#fffd8d"/></linearGradient><path d="M512.1 424.7v-.3h-52.9v.3h52.9z" fill="url(#SVGID_4_)"/></g><g class="st6"><path class="st1" d="M459.3 424.4v.6c0 15.1 4.3 50.6 10.8 58.9 4.4 5.5 8.1 6.2 13.9 6.2 5.9 0 13.1-.8 17.6-6.5 6.4-8.3 10.6-43.7 10.6-58.6v-.6h-52.9z"/></g><linearGradient id="SVGID_5_" gradientUnits="userSpaceOnUse" x1="491.448" y1="497.636" x2="484.206" y2="409.28"><stop offset="0" stop-color="#fd7101"/><stop offset=".225" stop-color="#fd8e01"/><stop offset=".458" stop-color="#fda400"/><stop offset=".68" stop-color="#fdb100"/><stop offset=".88" stop-color="#fdb600"/><stop offset="1" stop-color="#fffd8d"/></linearGradient><path d="M459.3 424.4v.6c0 15.1 4.3 50.6 10.8 58.9 4.4 5.5 8.1 6.2 13.9 6.2 5.9 0 13.1-.8 17.6-6.5 6.4-8.3 10.6-43.7 10.6-58.6v-.6h-52.9z" fill="url(#SVGID_5_)"/><g class="st6"><linearGradient id="SVGID_6_" gradientUnits="userSpaceOnUse" x1="492.257" y1="513.277" x2="483.326" y2="404.32"><stop offset="0" stop-color="#fd7101"/><stop offset=".225" stop-color="#fd8e01"/><stop offset=".458" stop-color="#fda400"/><stop offset=".68" stop-color="#fdb100"/><stop offset=".88" stop-color="#fdb600"/><stop offset="1" stop-color="#fffd8d"/></linearGradient><path d="M511.6 436.1c0-.7.2-2.6.2-3.3h-52.3c0 .7.2 2.6.2 3.3h51.9z" fill="url(#SVGID_6_)"/></g><linearGradient id="SVGID_7_" gradientUnits="userSpaceOnUse" x1="503.523" y1="415.215" x2="544.196" y2="415.215"><stop offset="0" stop-color="#b5fffd"/><stop offset=".217" stop-color="#82f4ed"/><stop offset=".481" stop-color="#4ce7db"/><stop offset=".709" stop-color="#24dfcf"/><stop offset=".889" stop-color="#0bd9c7"/><stop offset=".999" stop-color="#02d7c4"/></linearGradient><path d="M503.5 398.4s5.8-19 19.6-6.4 17.3 10.4 20.4 23.9c3 13.5-4.5 36.6-9.8 22.6s-2.3-11.4-15.8-18c-13.6-6.7-14.4-22.1-14.4-22.1z" opacity=".5" fill="url(#SVGID_7_)"/><linearGradient id="SVGID_8_" gradientUnits="userSpaceOnUse" x1="430.436" y1="419.537" x2="464.851" y2="419.537"><stop offset="0" stop-color="#b5fffd"/><stop offset=".217" stop-color="#82f4ed"/><stop offset=".481" stop-color="#4ce7db"/><stop offset=".709" stop-color="#24dfcf"/><stop offset=".889" stop-color="#0bd9c7"/><stop offset=".999" stop-color="#02d7c4"/></linearGradient><path d="M450.7 399s-10.7-1.9-12.1 12.1c-1.4 14-11 11.2-7.3 23.6 3.7 12.4-3.6.2 12.2-4.8 15.7-4.9 35.1-8 7.2-30.9z" fill="url(#SVGID_8_)"/><linearGradient id="SVGID_9_" gradientUnits="userSpaceOnUse" x1="440.013" y1="373.449" x2="486.402" y2="373.449"><stop offset="0" stop-color="#b5fffd"/><stop offset=".217" stop-color="#82f4ed"/><stop offset=".481" stop-color="#4ce7db"/><stop offset=".709" stop-color="#24dfcf"/><stop offset=".889" stop-color="#0bd9c7"/><stop offset=".999" stop-color="#02d7c4"/></linearGradient><path d="M469.9 391.9s-7.5-6.3-11.8-15.4c-4.3-9-8.4-15.6-14.6-19.8-6.2-4.2-3.5-6.6 4.2-3.6 7.7 3 44.3 14.9 38 32.1s-15.8 6.7-15.8 6.7z" opacity=".5" fill="url(#SVGID_9_)"/><linearGradient id="SVGID_10_" gradientUnits="userSpaceOnUse" x1="489.736" y1="373.634" x2="523.859" y2="373.634"><stop offset="0" stop-color="#b5fffd"/><stop offset=".217" stop-color="#82f4ed"/><stop offset=".481" stop-color="#4ce7db"/><stop offset=".709" stop-color="#24dfcf"/><stop offset=".889" stop-color="#0bd9c7"/><stop offset=".999" stop-color="#02d7c4"/></linearGradient><path d="M490 404.8c-.8-2.4 0-21.7 7.5-29.8 7.5-8.2 8.3-18.2 14.3-23.2s12-13.4 12-13.4-.7 26.7-12 35-16.2 48-21.8 31.4z" fill="url(#SVGID_10_)"/><path class="st14" d="M435.4 429.2s5.5-5.7 12.2-9.7c6.8-4 8-17.7 15.6-15.6s16.7 11.1 16.7 20.8m-29.2-67.9s8.7-.7 14.1 11.9 16.6 15.1 17.3 23.2 3.5 32.2 3.5 32.2m31.2-71.4c-.8.8-11.5 9.9-13.3 17.2s-8.2 18.7-9.6 25.1-4.4 25.6-4.1 29.3"/><path class="st14" d="M534.6 420.6s-4.9-4.8-11.8-11.8c-6.9-7-32.2-23.9-40.1 15.2"/><linearGradient id="SVGID_11_" gradientUnits="userSpaceOnUse" x1="192.161" y1="540.3" x2="330.144" y2="540.3"><stop offset="0" stop-color="#231f20"/><stop offset=".1" stop-color="#2c2624"/><stop offset=".502" stop-color="#4a4033"/><stop offset=".728" stop-color="#564a39"/></linearGradient><path d="M298.6 521.6s-72 1.5-89.2 19.5l-17.2 18 135-2.2 3-15.7-31.6-19.6z" fill="url(#SVGID_11_)"/><linearGradient id="SVGID_12_" gradientUnits="userSpaceOnUse" x1="117.204" y1="495.182" x2="425.352" y2="495.182"><stop offset="0" stop-color="#231f20"/><stop offset=".1" stop-color="#2c2624"/><stop offset=".502" stop-color="#4a4033"/><stop offset=".728" stop-color="#564a39"/></linearGradient><path opacity=".4" fill="url(#SVGID_12_)" d="M117.2 546.9l308.2-95.5-22.7-8-285.5 89z"/><path class="st5" d="M367.1 433.8s-39 78-70.5 85.5-13.5.7-1.5 18c12 17.2 21.7 21.7 41.2 21.7s81.7-.7 81.7-.7l25.5-63-76.4-61.5z"/><path class="st1" d="M116 532.5l320.7-100.4-94.4-28.1-242.6 43.3z"/><linearGradient id="SVGID_13_" gradientUnits="userSpaceOnUse" x1="120.292" y1="470.785" x2="833.747" y2="402.334"><stop offset="0" stop-color="#e8e8e8"/><stop offset=".507" stop-color="#f6f6f6" stop-opacity=".491"/><stop offset=".997" stop-color="#fff" stop-opacity="0"/></linearGradient><path fill="url(#SVGID_13_)" d="M117.4 532.4l362.8-114-149.1-29.2-317 62.4z"/><path class="st18" d="M731.8 330.2H626.3c-2.5 0-4.6-2.1-4.6-4.6v-50.1c0-1.2 1-2.3 2.3-2.3h110.1c1.2 0 2.3 1 2.3 2.3v50.1c0 2.6-2 4.6-4.6 4.6z"/><path class="st19" d="M621.8 302.7v21.4c0 3.4 3.3 6.1 7.4 6.1H729c4.1 0 7.4-2.7 7.4-6.1v-21.4H621.8z"/><path class="st20" d="M714.2 329.9h-68.4v-8.3c0-1.6 1.3-3 3-3h62.5c1.6 0 3 1.3 3 3v8.3z"/><path class="st19" d="M642.3 278.4h73.6v20.2h-73.6z"/><circle class="st1" cx="710.1" cy="284.8" r="2.2"/><path class="st1" d="M651.2 322.9h55.9v1.1h-55.9zm-5.6-39.6h12.6v1.9h-12.6z"/><path class="st18" d="M645.8 271.3l5.3-19.8h50.8l7.6 19.8z"/><linearGradient id="SVGID_14_" gradientUnits="userSpaceOnUse" x1="639.607" y1="272.323" x2="715.622" y2="272.323"><stop offset="0" stop-color="#231f20"/><stop offset=".1" stop-color="#2c2624"/><stop offset=".502" stop-color="#4a4033"/><stop offset=".728" stop-color="#564a39"/></linearGradient><path opacity=".4" fill="url(#SVGID_14_)" d="M639.6 271.3h76v2.1h-76z"/><linearGradient id="SVGID_15_" gradientUnits="userSpaceOnUse" x1="651.423" y1="256.089" x2="702.026" y2="256.089"><stop offset="0" stop-color="#e8e8e8"/><stop offset=".377" stop-color="#f2f2f2" stop-opacity=".523"/><stop offset=".536" stop-color="#f6f6f6" stop-opacity=".389"/><stop offset=".997" stop-color="#fff" stop-opacity="0"/></linearGradient><path fill="url(#SVGID_15_)" d="M651.4 271l5.9-29.8 38.7.5 6 29.3z"/><path class="st1" d="M653.2 271l5.8-29.8 38.7.5 6.1 29.3z"/><linearGradient id="SVGID_16_" gradientUnits="userSpaceOnUse" x1="543.752" y1="414.404" x2="743.617" y2="414.404"><stop offset="0" stop-color="#e8e8e8"/><stop offset=".507" stop-color="#f6f6f6" stop-opacity=".491"/><stop offset=".997" stop-color="#fff" stop-opacity="0"/></linearGradient><path fill="url(#SVGID_16_)" d="M543.8 339.4h199.9v150H543.8z"/><linearGradient id="SVGID_17_" gradientUnits="userSpaceOnUse" x1="543.752" y1="414.404" x2="743.617" y2="414.404"><stop offset=".788" stop-color="#4ec8fd"/><stop offset=".827" stop-color="#47b6fc"/><stop offset=".887" stop-color="#3ea1fb"/><stop offset=".945" stop-color="#3994fa"/><stop offset="1" stop-color="#3790fa"/></linearGradient><path opacity=".11" fill="url(#SVGID_17_)" d="M543.8 339.4h199.9v150H543.8z"/><path fill="#a9a9a9" d="M534.4 330.8H753v8.4H534.4z"/><linearGradient id="SVGID_18_" gradientUnits="userSpaceOnUse" x1="680.056" y1="413.729" x2="56.862" y2="407.737"><stop offset="0" stop-color="#cdcdce"/><stop offset=".094" stop-color="#ddddde"/><stop offset=".246" stop-color="#f0f0f0"/><stop offset=".402" stop-color="#fbfbfb"/><stop offset=".567" stop-color="#fff"/><stop offset=".787" stop-color="#fdfdfd"/><stop offset=".867" stop-color="#f6f6f6"/><stop offset=".923" stop-color="#ebebeb"/><stop offset=".969" stop-color="#dadada"/><stop offset="1" stop-color="#c9c9ca"/></linearGradient><path fill="url(#SVGID_18_)" d="M556.9 350.5h177.3v125.7H556.9z"/><path class="st1" d="M555.6 398.4h178.3v15.9H555.6z"/><path transform="rotate(-12.89 571.442 376.842)" class="st5" d="M568.2 355.3h6.6v43.2h-6.6z"/><path transform="rotate(-12.89 579.595 379.386)" class="st2" d="M576.3 361h6.6v36.8h-6.6z"/><path transform="rotate(-12.89 587.203 379.386)" class="st2" d="M583.9 361h6.6v36.8h-6.6z"/><linearGradient id="SVGID_19_" gradientUnits="userSpaceOnUse" x1="587.971" y1="378.9" x2="604.981" y2="378.9"><stop offset="0" stop-color="#55cbfd"/><stop offset=".25" stop-color="#52c4fc"/><stop offset=".61" stop-color="#4ab2fb"/><stop offset="1" stop-color="#3d95f9"/></linearGradient><path fill="url(#SVGID_19_)" d="M605 395.8l-8.8 2.1L588 362l8.8-2.1z"/><path d="M616.8 381.4h55v12.7h-55zM567.3 458h87.4v16.6h-87.4z" fill="#2bd6c1"/><linearGradient id="SVGID_20_" gradientUnits="userSpaceOnUse" x1="564.61" y1="448.905" x2="651.998" y2="448.905"><stop offset="0" stop-color="#55cbfd"/><stop offset=".25" stop-color="#52c4fc"/><stop offset=".61" stop-color="#4ab2fb"/><stop offset="1" stop-color="#3d95f9"/></linearGradient><path fill="url(#SVGID_20_)" d="M564.6 440.6H652v16.6h-87.4z"/><path class="st30" d="M371.5 255.9s-6.9 17.5-4.1 27.5c2.7 10-1.4 16.1-1.4 20.6s4.8 13 4.8 17.5-3.5 26.5 20.6 23.8c0 0 3-7.3 20.5-13s36.1-10.4 36.1-10.4 2.1-17.9 1.8-39c-.4-21.3-50.7-74.7-78.3-27z"/><path class="st18" d="M340.7 432.1c-1.8-1.1-2.1-3.7-.4-5.1 4-3.2 12.3-7.8 24.5-5.1 17.9 4 17.9 18.4 17.9 18.4s-12.5 6.4-34.4-4c0 .1-4.4-2.3-7.6-4.2z"/><path class="st31" d="M182.2 465.8l6.8 8.9 35.6 14.2 132.5-36.7-27.8-5.5z"/><path class="st18" d="M225.1 484.8l-42.9-19L319 434.9l38 13.7z"/><path class="st19" d="M294.7 457.8l15.6-4.3 4.6 2-15.4 4.8zm-20.8-9.7l15.7-4.3 4.5 2-15.4 4.9zm-31.6 6l-47.2 11.6 6.3 2.9 43.5-12.5zM217 476l15.7-4.3 4.5 2-15.3 4.8zm-9.6-5.4l15.6-4.3 4.6 2-15.4 4.8z"/><path d="M364.3 257.3s9.7-3.2 9.7 3.9v9.3s21.1 6.1 21.1 11.8v5.7l2.9.7s0-15.7 6.8-8.9c6.8 6.8 4.3 14.7 1.4 19.7 0 0 3.2-6.1 12.5-1.1s1.8 12.5 17.5 13.6c15.7 1.1 13.6-.7 13.6-.7s-3.6-8.2 1.8-16.1c5.4-7.9 13.2-41.5-2.1-52.6s-36.5-18.2-48.7-14c-12.2 4.3-23.6 3.6-29.7 6.4-6.1 2.9-5.4 6.8-5.7 10.4s-6.1 5.9-1.1 11.9z" fill="#2e87cc"/><path class="st30" d="M448.4 313.3s-1.5 18.4 1.9 24.7-61.9 17.4-61.9 17.4l6.3-21.8 53.7-20.3zm-91.6 130.4s-25.3-4.8-31-6.4-28 .7-32.1 2.1-21.1 9.9-20 11.2 6.4 1.1 6.4 1.1-5.7 4.1-1.6 5.1 10.6-3.2 16.1-4.4c5.5-1.1 19.5-5.3 21.1-1.6s-18.1 5.1-18.8 9 0 4.8 8 4.4c8-.5 35.4-3 39.3-3.4s9.4.5 9.4.5l3.2-17.6z"/><path class="st20" d="M374.3 555c.4 1 .8 2 1.1 2.9H397c-3.3-4.4-10-9.3-22.7-14-38.4-14.3-114.7-36.5-126.7-25-12 11.6-9.2 38.8-9.2 38.8l15.7.9s-12.9-30.1 12.5-29.6c25.4.6 104 16.8 107.7 26z"/><path class="st30" d="M453.2 339.4s41.1 15.5 47.9 52.7-31.9 114.1-31.9 114.1l-45.5 3.9s-5.8 45.2-26.6 42.1C362.5 547 286.7 504.9 278 503c-8.7-1.9-14.4-4.9-24.6-14.6s-32.9-11.6-31.9-15.5c1-3.9 6.3-2.9 6.3-2.9s-6.3-5.8-.5-8.7c5.8-2.9 7.3-14.5 12.6-12.1 5.3 2.4 8.7-.5 16 1 7.3 1.5 9.7-1.9 14 2.4 4.4 4.4 16 7.7 18.4 14.5 2.4 6.8 11.8 9 25.8 14.8 14 5.8 32.5 14.1 34.5 11.2 1.9-2.9 1.2-.5 3.8-10.9 1.2-4.8 1.2-47.5 8.4-66.4 7.3-18.9 20.3-48.4 20.3-48.4l11.1-20.3 44.5-11.1 16.5 3.4z"/><path class="st5" d="M501.1 392.1c-6.8-37.2-47.9-52.7-47.9-52.7-10.8-2.2-22-2-32.7.7L390 351.9l-8.8 15.5s-13.1 29.5-20.3 48.4c-4.3 11.1-5.9 31.2-6.3 46.8 14 8.7 30.5 13.2 46.7 15.8 18.7 3 38.5 3.5 57.3.2 7-1.2 10 9.5 3 10.8-8.9 1.6-17.9 2.3-27 2.5.7 5.7.8 11.5.9 17.2l33.6-2.9c.1.1 38.8-76.8 32-114.1z"/><linearGradient id="SVGID_21_" gradientUnits="userSpaceOnUse" x1="429.854" y1="421.904" x2="496.084" y2="421.904"><stop offset="0" stop-color="#fd7101"/><stop offset=".225" stop-color="#fd8e01"/><stop offset=".458" stop-color="#fda400"/><stop offset=".68" stop-color="#fdb100"/><stop offset=".88" stop-color="#fdb600"/><stop offset="1" stop-color="#fffd8d"/></linearGradient><path d="M432 473.2s23.6-93.6-2.1-102.1c0 0 8.4-3.8 12.7 8.9 4.2 12.7 3.8 36.3 3.8 36.3s14.8-32.5 14.8-24.9c0 7.6 35 2.5 35 2.5L432 473.2z" opacity=".4" fill="url(#SVGID_21_)"/><linearGradient id="SVGID_22_" gradientUnits="userSpaceOnUse" x1="470.274" y1="410.733" x2="459.025" y2="559.214"><stop offset="0" stop-color="#55cbfd"/><stop offset=".25" stop-color="#52c4fc"/><stop offset=".61" stop-color="#4ab2fb"/><stop offset="1" stop-color="#3d95f9"/></linearGradient><path d="M438.9 558c8.3-.2 16.6-.4 24.9-.3 2.6-.9 5.7-3 4.8-8.2-1.4-8.8 60.6-147.5 54.1-156.3-6.5-8.8-44.4 6.5-62 12.9-17.6 6.5-44.4 129.9-44.4 129.9l-9.1 21.9h31.7z" fill="url(#SVGID_22_)"/><linearGradient id="SVGID_23_" gradientUnits="userSpaceOnUse" x1="430.92" y1="578.315" x2="467.131" y2="483.852"><stop offset="0" stop-color="#55cbfd"/><stop offset=".25" stop-color="#52c4fc"/><stop offset=".61" stop-color="#4ab2fb"/><stop offset="1" stop-color="#3d95f9"/></linearGradient><path d="M522.7 399.8c-9.5 2.1-18.8 5.4-28.1 8.2-10.2 3.1-22.2 4.7-29.4 13.4-7.1 8.7-9.8 21.5-12.6 32.1-3.1 12.2-6.5 24.2-10.5 36.1-6.4 19-11.9 38.7-19.8 57.2-1.6 3.7-3.3 7.5-5.3 11.1h21.9c8.3-.2 16.6-.4 24.9-.3 2.6-.9 5.7-3 4.8-8.2-1.2-7.8 48.5-120.2 54.1-149.6z" fill="url(#SVGID_23_)"/><g><path class="st18" d="M138.4 422.2l-7.2-139.8 149.9 9.7 10.2 109.8zm18.9 12.1l56.1-8.2 49.8 5.3-54.2 13.1z"/><path class="st19" d="M180.6 430.7l27.8-4.5 26.7 2.1-16 9.6z"/><path class="st18" d="M194.1 399.5l.4 31 22.6 3-4.7-37.4z"/><path class="st31" d="M131.2 282.4l-3.2.7 7.4 140 3-.9z"/><path class="st19" d="M138 412.8l152.4-18.1.9 7.2-152.9 20.3z"/><path class="st20" d="M136.6 287.5l138.7 9.7 9.7 98.3L143.3 412z"/><path class="st19" d="M193.5 415.1l22 7.7-1.2-10.7z"/><ellipse class="st1" cx="218.5" cy="406.9" rx="4.3" ry="2"/><path class="st1" d="M173 290.1l6.2 117.8L285 395.5l-9.7-98.3z"/><linearGradient id="SVGID_24_" gradientUnits="userSpaceOnUse" x1="184.607" y1="359.397" x2="271.25" y2="359.397"><stop offset=".788" stop-color="#4ec8fd"/><stop offset=".827" stop-color="#47b6fc"/><stop offset=".887" stop-color="#3ea1fb"/><stop offset=".945" stop-color="#3994fa"/><stop offset="1" stop-color="#3790fa"/></linearGradient><path opacity=".11" fill="url(#SVGID_24_)" d="M188.3 389.2l-3.7-59.6 80.7 2.7 6 51.4z"/><path d="M191.5 340.6L257 342m-64.8 7.4l65.6 1.4m-64.4 8.5l51-.4" fill="none" stroke="#2bd6c1" stroke-width=".5" stroke-miterlimit="10"/><linearGradient id="SVGID_25_" gradientUnits="userSpaceOnUse" x1="141.421" y1="298.833" x2="168.126" y2="298.833"><stop offset="0" stop-color="#55cbfd"/><stop offset=".25" stop-color="#52c4fc"/><stop offset=".61" stop-color="#4ab2fb"/><stop offset="1" stop-color="#3d95f9"/></linearGradient><path fill="url(#SVGID_25_)" d="M141.8 301.3l-.4-6.5L167 296l1.1 6.8z"/><linearGradient id="SVGID_26_" gradientUnits="userSpaceOnUse" x1="184.149" y1="307.035" x2="266.173" y2="307.035"><stop offset="0" stop-color="#55cbfd"/><stop offset=".25" stop-color="#52c4fc"/><stop offset=".61" stop-color="#4ab2fb"/><stop offset="1" stop-color="#3d95f9"/></linearGradient><path opacity=".5" fill="url(#SVGID_26_)" d="M186.1 312.8l-2-14.2 80.2 4.6 1.9 12.2z"/></g><linearGradient id="SVGID_27_" gradientUnits="userSpaceOnUse" x1="306.836" y1="381.593" x2="353.662" y2="381.593"><stop offset="0" stop-color="#55cbfd"/><stop offset=".25" stop-color="#52c4fc"/><stop offset=".61" stop-color="#4ab2fb"/><stop offset="1" stop-color="#3d95f9"/></linearGradient><path d="M352.2 368.8c-1.3-1.6-3.1-2.5-5.2-2.5h-3.2v-4.7h-37v23.5c0 9 7.3 16.4 16.4 16.4h4.3c8.7 0 15.7-6.7 16.3-15.3l2.2-.1c2.9-.2 5.4-2.3 6.1-5.2l1.4-6.5c.4-2 0-4-1.3-5.6zm-1.7 5l-1.4 6.5c-.3 1.6-1.7 2.7-3.3 2.8l-2 .1v-13.8h3.2c1.1 0 2.1.5 2.8 1.3.7.9 1 2 .7 3.1z" fill="url(#SVGID_27_)"/><path d="M391.3 345.2s2.8-8.4 15.5-12.5 14-24.3 14-24.3 3.6 6.7 1.6 13.7-18.6 16.8-23.8 21-9.4 10.3-9.4 10.3 1.5-6.7 2.1-8.2zm-39.7 136s-1.7 16.5 2.8 21 5 8 4.6 7.2c-.4-.7-29.9-20.6-29.9-20.6s14.8 6.3 17.3 5c0 0 4.8-5.1 5.2-12.6z" opacity=".24" fill="#e6746f"/><g><path class="st18" d="M115.1 486.9l-7.1 16.4 23.4 9.4z"/><path class="st31" d="M131.3 513l-25.6-40.8c-.5-.9-.1-2 .8-2.3l57.3-17.8c.6-.2 1.2 0 1.6.5l28.6 34.1c.7.8.4 2-.6 2.4L133 513.6c-.5.2-1.3 0-1.7-.6z"/><path class="st1" d="M133 512.3l-25.8-41.2 56.8-17.6 28.9 34.4z"/><path class="st20" d="M135.1 508.8l-22.7-36.3 50-15.5 25.4 30.3z"/><ellipse transform="rotate(-38.173 175.945 470.3)" class="st18" cx="175.9" cy="470.3" rx="1.3" ry="2.4"/><path class="st19" d="M121.4 497.3l-13.3 5.5 22.9 9.1z"/></g><g><path class="st18" d="M574.4 298.4s-4.1-10-17.1-7.1c0 0 13-8.7 20.2 4.5 0 0-1.5-13.7 13.2-14.3 0 0-11 7.2-10.4 16.9h-5.9z"/><path class="st18" d="M579.6 299s0-17.3-15.5-20.1c0 0 11.9-4 19 10.4 0 0 8.6-8.1 16.1.8 0 0-13.8-1.7-14 8.8h-5.6z"/><linearGradient id="SVGID_28_" gradientUnits="userSpaceOnUse" x1="581.608" y1="346.899" x2="580.568" y2="289.728"><stop offset="0" stop-color="#fd7101"/><stop offset=".225" stop-color="#fd8e01"/><stop offset=".458" stop-color="#fda400"/><stop offset=".68" stop-color="#fdb100"/><stop offset=".88" stop-color="#fdb600"/><stop offset="1" stop-color="#fffd8d"/></linearGradient><path d="M586.7 329.8H575c-6.9 0-12.5-5.6-12.5-12.5v-19.4h36.6v19.4c.1 6.9-5.5 12.5-12.4 12.5z" fill="url(#SVGID_28_)"/></g><g><linearGradient id="SVGID_29_" gradientUnits="userSpaceOnUse" x1="551.189" y1="159.466" x2="682.138" y2="159.466"><stop offset="0" stop-color="#231f20"/><stop offset=".1" stop-color="#2c2624"/><stop offset=".502" stop-color="#4a4033"/><stop offset=".728" stop-color="#564a39"/></linearGradient><path fill="none" stroke="url(#SVGID_29_)" stroke-linecap="round" stroke-linejoin="round" stroke-miterlimit="10" d="M551.7 86.7h129.9v145.6H551.7z"/><linearGradient id="SVGID_30_" gradientUnits="userSpaceOnUse" x1="579.168" y1="158.951" x2="580.168" y2="158.951"><stop offset="0" stop-color="#231f20"/><stop offset=".1" stop-color="#2c2624"/><stop offset=".502" stop-color="#4a4033"/><stop offset=".728" stop-color="#564a39"/></linearGradient><path fill="none" stroke="url(#SVGID_30_)" stroke-linecap="round" stroke-linejoin="round" stroke-miterlimit="10" d="M579.7 76.1v165.7"/><linearGradient id="SVGID_31_" gradientUnits="userSpaceOnUse" x1="616.018" y1="158.951" x2="617.018" y2="158.951"><stop offset="0" stop-color="#231f20"/><stop offset=".1" stop-color="#2c2624"/><stop offset=".502" stop-color="#4a4033"/><stop offset=".728" stop-color="#564a39"/></linearGradient><path fill="none" stroke="url(#SVGID_31_)" stroke-linecap="round" stroke-linejoin="round" stroke-miterlimit="10" d="M616.5 76.1v165.7"/><linearGradient id="SVGID_32_" gradientUnits="userSpaceOnUse" x1="652.867" y1="158.951" x2="653.867" y2="158.951"><stop offset="0" stop-color="#231f20"/><stop offset=".1" stop-color="#2c2624"/><stop offset=".502" stop-color="#4a4033"/><stop offset=".728" stop-color="#564a39"/></linearGradient><path fill="none" stroke="url(#SVGID_32_)" stroke-linecap="round" stroke-linejoin="round" stroke-miterlimit="10" d="M653.4 76.1v165.7"/><linearGradient id="SVGID_33_" gradientUnits="userSpaceOnUse" x1="2670.418" y1="-824.621" x2="2671.418" y2="-824.621" gradientTransform="rotate(-90 2153.929 712.79)"><stop offset="0" stop-color="#231f20"/><stop offset=".1" stop-color="#2c2624"/><stop offset=".502" stop-color="#4a4033"/><stop offset=".728" stop-color="#564a39"/></linearGradient><path fill="none" stroke="url(#SVGID_33_)" stroke-linecap="round" stroke-linejoin="round" stroke-miterlimit="10" d="M533.6 195.8h165.8"/><linearGradient id="SVGID_34_" gradientUnits="userSpaceOnUse" x1="2707.268" y1="-824.621" x2="2708.268" y2="-824.621" gradientTransform="rotate(-90 2153.929 712.79)"><stop offset="0" stop-color="#231f20"/><stop offset=".1" stop-color="#2c2624"/><stop offset=".502" stop-color="#4a4033"/><stop offset=".728" stop-color="#564a39"/></linearGradient><path fill="none" stroke="url(#SVGID_34_)" stroke-linecap="round" stroke-linejoin="round" stroke-miterlimit="10" d="M533.6 159h165.8"/><linearGradient id="SVGID_35_" gradientUnits="userSpaceOnUse" x1="2744.117" y1="-824.621" x2="2745.117" y2="-824.621" gradientTransform="rotate(-90 2153.929 712.79)"><stop offset="0" stop-color="#231f20"/><stop offset=".1" stop-color="#2c2624"/><stop offset=".502" stop-color="#4a4033"/><stop offset=".728" stop-color="#564a39"/></linearGradient><path fill="none" stroke="url(#SVGID_35_)" stroke-linecap="round" stroke-linejoin="round" stroke-miterlimit="10" d="M533.6 122.1h165.8"/><path class="st18" d="M571 153.4h28.4v35.9H571z"/><path class="st30" d="M639.6 113.8H668v35.9h-28.4z"/></g><linearGradient id="SVGID_36_" gradientUnits="userSpaceOnUse" x1="13.146" y1="498.294" x2="117.037" y2="498.294"><stop offset="0" stop-color="#231f20"/><stop offset=".1" stop-color="#2c2624"/><stop offset=".502" stop-color="#4a4033"/><stop offset=".728" stop-color="#564a39"/></linearGradient><path opacity=".4" fill="url(#SVGID_36_)" d="M116.2 545.9l-103-76.5-.1-18.8L117 531.8z"/></svg>