<svg version="1.1" id="Layer_1" xmlns="http://www.w3.org/2000/svg" xmlns:xlink="http://www.w3.org/1999/xlink" x="0" y="0" viewBox="0 0 755 560" xml:space="preserve"><style>.st3{fill:#fff}.st9{fill-rule:evenodd;clip-rule:evenodd;fill:#c8c8c8}.st12{fill:#fff}.st12,.st14,.st18,.st23,.st25{fill-rule:evenodd;clip-rule:evenodd}.st14{opacity:.51;fill:#fff}.st18{fill:#2786d0}.st23{fill:#f9c7a4}.st25{fill:#ffc8be}.st26,.st30{fill-rule:evenodd;clip-rule:evenodd}.st26{opacity:.24;fill:#e9736c}.st30{fill:#d2fffc}.st36{fill:#d2d2d2}.st37{fill:#78dfdd}.st38{fill:#14d8c2}.st40{fill:#eba700}.st42{opacity:.51;clip-path:url(#XMLID_3_);fill:#2786d0}.st43{fill:#cacaca}.st44{fill:#ffc200}.st47{fill:#06c6ad}</style><linearGradient id="SVGID_1_" gradientUnits="userSpaceOnUse" x1="-1211.708" y1="-859.291" x2="-1190.345" y2="-955.73" gradientTransform="scale(-1 1) rotate(-59.802 252.214 -1348.66)"><stop offset="0" stop-color="#ebebeb"/><stop offset=".561" stop-color="#d9dadb"/><stop offset=".996" stop-color="#d0d2d3"/></linearGradient><circle cx="95" cy="131.4" r="41.7" fill="url(#SVGID_1_)"/><linearGradient id="SVGID_2_" gradientUnits="userSpaceOnUse" x1="-1236.653" y1="-903.135" x2="-1153.221" y2="-903.135" gradientTransform="scale(-1 1) rotate(-59.802 252.214 -1348.66)"><stop offset="0" stop-color="#ff7100"/><stop offset=".111" stop-color="#ff8600"/><stop offset=".265" stop-color="#ff9d00"/><stop offset=".433" stop-color="#ffad00"/><stop offset=".623" stop-color="#ffb600"/><stop offset=".88" stop-color="#ffb900"/><stop offset="1" stop-color="#ffff91"/></linearGradient><circle cx="90.7" cy="126.1" r="41.7" opacity=".7" fill="url(#SVGID_2_)"/><linearGradient id="SVGID_3_" gradientUnits="userSpaceOnUse" x1="-1236.653" y1="-912.515" x2="-1153.221" y2="-912.515" gradientTransform="scale(-1 1) rotate(-59.802 252.214 -1348.66)"><stop offset="0" stop-color="#ff7100"/><stop offset=".004" stop-color="#ff7200"/><stop offset=".239" stop-color="#ff9100"/><stop offset=".467" stop-color="#ffa700"/><stop offset=".685" stop-color="#ffb400"/><stop offset=".88" stop-color="#ffb900"/><stop offset="1" stop-color="#ffff91"/></linearGradient><path d="M69.7 90.1c19.4-11.3 44.2-5.2 56.2 13.7-13-17.4-36.8-21.5-56-11.4-.7.4-1.4.8-2 1.2-5.7 3-10.8 8.2-14.5 14.1 3.4-7.2 8.9-13.4 16.3-17.6z" fill="url(#SVGID_3_)"/><circle class="st3" cx="90.7" cy="126.1" r="34.2"/><linearGradient id="SVGID_4_" gradientUnits="userSpaceOnUse" x1="-1167.72" y1="-880.864" x2="-1176.221" y2="-942.376" gradientTransform="scale(-1 1) rotate(-59.802 252.214 -1348.66)"><stop offset="0" stop-color="#00c0aa" stop-opacity="0"/><stop offset="1" stop-color="#1fcedd"/></linearGradient><path d="M114.5 101.6c-12.6-6.3-28.1-6.2-41.4.8-6.3 3.3-11.9 9.3-15.7 16 2.1-8.8 7.6-16.8 16.1-21.8 13.5-7.9 30.2-5.4 41 5z" fill="url(#SVGID_4_)"/><path fill="none" stroke="#eba700" stroke-width="1.45" stroke-miterlimit="10" d="M108.6 129.2l-20-.3.4-26.6"/><linearGradient id="SVGID_5_" gradientUnits="userSpaceOnUse" x1="-9103.159" y1="249.058" x2="-8612.306" y2="249.058" gradientTransform="matrix(-1 0 0 1 -8431.815 0)"><stop offset="0" stop-color="#ebebeb"/><stop offset=".561" stop-color="#d9dadb"/><stop offset=".996" stop-color="#d0d2d3"/></linearGradient><path fill-rule="evenodd" clip-rule="evenodd" fill="url(#SVGID_5_)" d="M671.3 407.1H180.5V91h490.8v316.1z"/><path fill-rule="evenodd" clip-rule="evenodd" fill="#eaf6ff" d="M660.1 394.9H194.3V103.2h465.8v291.7z"/><path d="M438.7 394.9v-61.2h-47v-55.9h-50V319h-22.4V216.9h-47v113h-25.4v-78.2h-51v143.2h242.8zm-81.4-91.6v-10.1h-5.6v10.1h5.6zm-55.2-42.2V251h-5.6v10.1h5.6zm0-24.6v-10.1h-5.6v10.1h5.6zm10.7 0v-10.1h-5.6v10.1h5.6z" opacity=".1" fill-rule="evenodd" clip-rule="evenodd" fill="#36a5ff"/><path class="st9" d="M671.3 437.1H180.5v-17.6h490.8v17.6z"/><linearGradient id="SVGID_6_" gradientUnits="userSpaceOnUse" x1="-9128.014" y1="413.203" x2="-8582.874" y2="413.203" gradientTransform="matrix(-1 0 0 1 -8431.815 0)"><stop offset="0" stop-color="#ebebeb"/><stop offset=".561" stop-color="#d9dadb"/><stop offset=".996" stop-color="#d0d2d3"/></linearGradient><path fill-rule="evenodd" clip-rule="evenodd" fill="url(#SVGID_6_)" d="M151.1 406.9h545.1v12.5H151.1z"/><linearGradient id="SVGID_7_" gradientUnits="userSpaceOnUse" x1="-8856.164" y1="243.846" x2="-8839.841" y2="243.846" gradientTransform="matrix(-1 0 0 1 -8431.815 0)"><stop offset="0" stop-color="#ebebeb"/><stop offset=".561" stop-color="#d9dadb"/><stop offset=".996" stop-color="#d0d2d3"/></linearGradient><path fill-rule="evenodd" clip-rule="evenodd" fill="url(#SVGID_7_)" d="M424.3 91H408v305.7h16.3V91z"/><path class="st12" d="M419.5 311.9h-6.6v-32.6h6.6v32.6z"/><path class="st9" d="M501.8 403.8c-74.3 0-134.5-2-134.5-4.5s60.2-4.5 134.5-4.5 134.5 2 134.5 4.5c.1 2.5-60.2 4.5-134.5 4.5z"/><linearGradient id="SVGID_8_" gradientUnits="userSpaceOnUse" x1="-8868.053" y1="367.12" x2="-8793.467" y2="367.12" gradientTransform="matrix(-1 0 0 1 -8431.815 0)"><stop offset="0" stop-color="#4ecbff"/><stop offset=".244" stop-color="#4bc4ff"/><stop offset=".592" stop-color="#44b2fe"/><stop offset="1" stop-color="#3793fd"/></linearGradient><path d="M421.5 337.5l14.7 11.8c-13.2 14.5-19.5 16.5-28.8 33.3-8.7 15.7-11.1 18.2-20.3 7.7l-22.3-25.5c-5.9-6.3-2.5-15.1 1.8-23 5.3 4.1 4.4 18.1 20.6 19.2 23.7 1.6 24-6.3 34.3-23.5z" fill-rule="evenodd" clip-rule="evenodd" fill="url(#SVGID_8_)"/><path class="st14" d="M407.7 382.2l-.3.5c-8.7 15.7-11.1 18.2-20.3 7.7l-4.4-5-.4-.5c4-3.4 9.6-5.5 15.5-5.3 3.7.1 7.1 1 9.9 2.6zm-45.9-28.1c.6-4.1 2.6-8.3 4.7-12.3 2.6 2 3.7 6.5 6.1 10.6-3.2 1.5-6.9 2.2-10.8 1.7z"/><path d="M533.3 257.9c-12.4-7.2-16.2-7.2-24.3-8.9l-8.5-1.3c-2.8-.4-3.6-.7-2 .8 1.6 1.2 2.3 1.4 4.2 1.6 1.7.2 2.7.3 4.4.5-2.8.3-6.1.5-8.9.7-2.1-.2-3.7-.3-5.7-.4 2.5 3 3.2 2.4 6.9 3l8.4-1.1-8.4 1.1-5.9.8c2.8 2.4 3.5 1.6 7.1 1.5l7.3-.8c-4.6 1.5-7.7 2.4-12.3 3.1 4.3 3.3 10.9.3 15.9-.6l6.4 2.2-11.1-.5 3 2.3 5.5 1.5c8.5 1.7 11.6-.7 15.4 3.9l30.8 34.6c1.6 1.7 3.1 3.2 4.4 4.5l1.5-20-34.1-28.5c.1.1 0 .1 0 0z" fill-rule="evenodd" clip-rule="evenodd" fill="#ffbab4"/><linearGradient id="SVGID_9_" gradientUnits="userSpaceOnUse" x1="-8902.727" y1="214.285" x2="-8868.96" y2="214.285" gradientTransform="matrix(-1 0 0 1 -8431.815 0)"><stop offset="0" stop-color="#4ecbff"/><stop offset=".244" stop-color="#4bc4ff"/><stop offset=".592" stop-color="#44b2fe"/><stop offset="1" stop-color="#3793fd"/></linearGradient><path fill-rule="evenodd" clip-rule="evenodd" fill="url(#SVGID_9_)" d="M470.9 255.7l-8.9-71.6-21.7-14.9-3.2 4.8 12.8 85.4 6.6-4.6 12.3-.2z"/><path class="st14" d="M467.8 250.5l-7.4-65.1-18.5-11.7 10.9 74.7z"/><linearGradient id="SVGID_10_" gradientUnits="userSpaceOnUse" x1="-8957.109" y1="264.464" x2="-8881.761" y2="264.464" gradientTransform="matrix(-1 0 0 1 -8431.815 0)"><stop offset="0" stop-color="#4ecbff"/><stop offset=".244" stop-color="#4bc4ff"/><stop offset=".592" stop-color="#44b2fe"/><stop offset="1" stop-color="#3793fd"/></linearGradient><path d="M523.3 277.2l2-7.8-69.7-17.5c-1.6-.4-3.2.4-3.8 1.9l-1.6 3.8c-.8 1.9.3 4 2.3 4.4l70.8 15.2z" fill-rule="evenodd" clip-rule="evenodd" fill="url(#SVGID_10_)"/><path class="st12" d="M463.8 222.2l-3.8-32.3-15.5-7.9 4.9 37.3z"/><path class="st18" d="M518.8 265.3l-48.9-11.5-17.1-2.6 72.5 18.2-6.5-4.1zm-57.3-3.5c-1.4 0-2.4-1.2-2.3-2.5.1-1.3 1.3-2.4 2.7-2.3 1.4 0 2.4 1.2 2.3 2.5-.2 1.3-1.4 2.3-2.7 2.3zm6.7 1.3c-1.4 0-2.4-1.2-2.3-2.5.1-1.3 1.3-2.4 2.7-2.3 1.4 0 2.4 1.2 2.3 2.5-.1 1.3-1.3 2.3-2.7 2.3z"/><linearGradient id="SVGID_11_" gradientUnits="userSpaceOnUse" x1="-8891.758" y1="191.692" x2="-8882.109" y2="191.692" gradientTransform="matrix(-1 0 0 1 -8431.815 0)"><stop offset="0" stop-color="#4ecbff"/><stop offset=".244" stop-color="#4bc4ff"/><stop offset=".592" stop-color="#44b2fe"/><stop offset="1" stop-color="#3793fd"/></linearGradient><path fill-rule="evenodd" clip-rule="evenodd" fill="url(#SVGID_11_)" d="M459.9 194.9l-.1-1.7-9.5-4.7.5 2.5 9.1 3.9z"/><linearGradient id="SVGID_12_" gradientUnits="userSpaceOnUse" x1="-8892.07" y1="195.358" x2="-8882.478" y2="195.358" gradientTransform="matrix(-1 0 0 1 -8431.815 0)"><stop offset="0" stop-color="#4ecbff"/><stop offset=".244" stop-color="#4bc4ff"/><stop offset=".592" stop-color="#44b2fe"/><stop offset="1" stop-color="#3793fd"/></linearGradient><path fill-rule="evenodd" clip-rule="evenodd" fill="url(#SVGID_12_)" d="M460.3 198.2l-.2-1.7-9.4-4 .5 2.4 9.1 3.3z"/><linearGradient id="SVGID_13_" gradientUnits="userSpaceOnUse" x1="-8892.238" y1="198.944" x2="-8882.951" y2="198.944" gradientTransform="matrix(-1 0 0 1 -8431.815 0)"><stop offset="0" stop-color="#4ecbff"/><stop offset=".244" stop-color="#4bc4ff"/><stop offset=".592" stop-color="#44b2fe"/><stop offset="1" stop-color="#3793fd"/></linearGradient><path fill-rule="evenodd" clip-rule="evenodd" fill="url(#SVGID_13_)" d="M460.4 201.5l-.1-1.7-9.2-3.4.5 2.4 8.8 2.7z"/><path d="M598.2 355.3c-12.9 39.7-45.3 52.4-71.9 23.1l-61.9-71.6c-7.3 25.6-19.6 33.6-45.9 61.3l-12.7-8.5c13.7-25.3 31.6-66.9 54.2-93.2 9.4-10.9 75.6 41.5 85 53.4l53.2 35.5z" fill-rule="evenodd" clip-rule="evenodd" fill="#c4f3ef"/><path class="st23" d="M630.1 259.2c-9.9 33.5-16.1 63.5-33 94.4l-50.5-30.3 19-37-6.1-14.8 23.6-18.1 18.1-24.6 20.4-2.7 8.5 33.1z"/><linearGradient id="SVGID_14_" gradientUnits="userSpaceOnUse" x1="-8845.642" y1="372.402" x2="-8764.906" y2="372.402" gradientTransform="matrix(-1 0 0 1 -8431.815 0)"><stop offset="0" stop-color="#4ecbff"/><stop offset=".244" stop-color="#4bc4ff"/><stop offset=".592" stop-color="#44b2fe"/><stop offset="1" stop-color="#3793fd"/></linearGradient><path d="M399 342l14.8 13c-14.4 14.6-21.1 16.4-31.5 33.6-9.8 16.1-12.4 18.5-21.5 7.1L338.7 368c-5.9-6.9-7.6-12.9-2.9-20.9 5.4 4.5 14.2 13.7 26.3 18 23.2 8.3 25.4-5.5 36.9-23.1z" fill-rule="evenodd" clip-rule="evenodd" fill="url(#SVGID_14_)"/><path class="st14" d="M334.9 362.5c-2.5-4.8-2.5-9.6 1-15.4 2.5 2.1 5.8 5.3 9.9 8.5-2.7 3.2-6.5 5.7-10.9 6.9zm47.7 25.7l-.2.4c-9.8 16.1-12.4 18.5-21.5 7.1l-4.2-5.2c4-3.4 9.6-5.5 15.5-5.3 3.9.2 7.5 1.2 10.4 3z"/><path class="st25" d="M599.9 155.3l-4.4 10.7c-1.9 15.8-1.3 13.8-11.9 17.4l4.6 5.9-2.4 10.6-1.1 3.9c-1.2 4.9-.4 6.6 3.9 7l8.9.9 4.7.5c5.3 1.6 2 7.3-1.9 18.5l21.2-4.6 1-18.6.4-.1c.2 0 27.9-9.3 32.4-30.8 3.1-14.9-14-27.9-27.2-28.4s-22.3.2-28.2 7.1z"/><path class="st12" d="M587.1 195.3l-.7 2.9c2.4.2 6.2-.8 7.3-3.7-1.8.8-4.5 1.3-6.6.8z"/><path class="st26" d="M598.4 211.8l3.8.4c3 .9 3.2 3.2 2.1 7.1l12.1-12.2-18 4.4v.3z"/><path d="M597.7 168.5l8.6 8.3-3.5-6.1m-4.9 9.5c-.9 0-1.5-1.3-1.4-2.8.1-1.5 1-2.8 1.9-2.7.9 0 1.5 1.3 1.4 2.8-.1 1.5-1 2.7-1.9 2.7z" opacity=".6" fill="#034d8f" fill-rule="evenodd" clip-rule="evenodd"/><linearGradient id="SVGID_15_" gradientUnits="userSpaceOnUse" x1="-9064.633" y1="288.647" x2="-8978.517" y2="288.647" gradientTransform="matrix(-1 0 0 1 -8431.815 0)"><stop offset="0" stop-color="#4ecbff"/><stop offset=".244" stop-color="#4bc4ff"/><stop offset=".592" stop-color="#44b2fe"/><stop offset="1" stop-color="#3793fd"/></linearGradient><path d="M623.3 224.1l-22.2 4.7c-9.6 8.9-20.2 22.3-29.5 32-4.5 4.8-7.7 6-12.2 10.6l2.5 15.7-11.1 27.3-1.5 3.5-.9 1.6-1.7 1.4c8.2 11.8 39.8 24.4 54.1 32.2 2.2-6.2-.3-3.8 2.7-10.1 16.4-34.7 38.8-73.5 25-107.9-1.2-2.8-4.6-5.9-5.2-11z" fill-rule="evenodd" clip-rule="evenodd" fill="url(#SVGID_15_)"/><path d="M466.3 256.4c-3.6 8.5-.4 26.9 7.8 42.4 3.3 6.1 7.4 11.9 12.1 16.3 4.8 4.5 10.3 7.7 16.4 8.9 12.2 2.4 26.8-3.5 42.8-24 1.8-2.4 3.5-4.5 5.2-6.7 11.5-15 27-35.3 47.5-53.2 6.4-5.6 12.7-13.9 17.3-22.5 4.4-8.2 7.2-16.6 7-22.9l-1.4.1c.2 6.1-2.5 14.2-6.8 22.2-4.5 8.4-10.7 16.6-17 22-20.6 17.9-36.2 38.3-47.7 53.4-1.9 2.5-3.8 4.9-5.1 6.7-15.6 20-29.6 25.7-41.4 23.5-5.8-1.1-11.1-4.3-15.8-8.6-4.7-4.4-8.7-9.9-11.9-16-8.2-15.4-11.4-33.6-7.7-41.5l-1.3-.1z" fill-rule="evenodd" clip-rule="evenodd" fill="#fdba00"/><path class="st18" d="M582.3 284.7l13 3.8-23.5-20.1 10.5 16.3z"/><path class="st30" d="M595.8 366.9c-18.5 32.4-42.3 46.9-66.2 15.3L460.4 302c-14.7 29.2-22.5 37.9-62.3 69.1l-12.7-14.7c18-19.2 47-65.9 71.2-90.6 9.7-9.9 78.9 44.4 84.9 54l30.6 18.9 26.2 15.7-2.5 12.5z"/><path class="st25" d="M594.7 240.7l25.5 13.7-56.5 56.2c-12.4 12.3-13.8 9.5-24.7-2.1l-29.1-33-12.8-11.2-7.5-6.6.1-.1-5.3-4.1-3.5.1c-2.7.1-4.7-.3-5.1-1.3.3-.2 1.5-.5 2.8-.7-2.3-.1-3.9-.5-4.3-1.3 1.1-.6 9.6-1.5 10.9-1.3 1.4.2 2.7.6 3.8 1.1l-1.9-1.5-4.4-.5c-3.4-.4-5.9-1.1-6.3-2.2 1.2-.5 10.2-.2 11.6.2 3.5 1 5.6 2.8 8.5 5.1l-3.9-5.9-3.6-1.3c-2.8-1.1-4.7-2.3-4.8-3.4 1.1-.2 8.6 1.8 9.7 2.5 2.5 1.5 3.8 3.4 5.5 5.9.1-1.3.4-2.7 1.1-3.9 1-1.5 2-2.2 2.1-1.8.1.8-.1 2.3 0 3.3 0 1.5.2 3.4.7 5.3 5.1 6 9.3 12.3 13.8 18.7l34.3 27.5 43.3-57.4z"/><path class="st30" d="M616 229.1c2.5 3.5 4.4 6.5 5.7 9.3 8.9 18.5-6 24.2-26.4 50.2l-23.6-20.1c16.9-25.3 16.1-33.2 44.3-39.4z"/><path d="M593.7 286.5c20.4-26 35.3-31.7 26.4-50.2-1-2-2.2-4.1-3.7-6.4 2.3 3.2 4 6.1 5.3 8.7 8.9 18.5-6 24.2-26.4 50.2l-22.8-19.7 21.2 17.4z" fill="#2786d0"/><path class="st18" d="M584.3 164.6l17.3-19.6-9 2.6 11.7-8c21.6-.3 34.1 1.3 42.9 9.9 14.9 14.6 16.5 38.8-4.1 51.8-5.2 3.3-16.6 4.6-20.8 9.6-2.4-18.4-14-41.1 3.4-53.1-15-3-26.5 6.9-41.4 6.8z"/><path class="st23" d="M623.7 196.9c-4.2-.1-7.2-4-6.8-8.6.4-4.6 4.1-8.2 8.2-8.1 4.2.1 7.2 4 6.8 8.6-.3 4.6-4 8.3-8.2 8.1z"/><path class="st26" d="M588.1 189.8l-4.5-6.4 8.3 4.9-3.8 1.5z"/><path class="st18" d="M584.3 164.5c14.8.1 26.2-9.7 41.1-6.8 1-1.1 2.3-2.2 3.7-3.1-15-3.1-26.5 6.9-41.5 6.8l17.3-19.6-6.4 1.9-5.8 4 9-2.6-17.4 19.4zm66.6 30.3c-1.4 1.2-2.9 2.3-4.5 3.3-5.2 3.3-16.6 4.6-20.8 9.6-2.1-16.4-11.6-36.2-1.2-48.9-15.4 12.3-4.3 34.2-2.1 52.1 4.2-5 15.6-6.3 20.8-9.6 3.1-2 5.7-4.1 7.8-6.5z"/><linearGradient id="SVGID_16_" gradientUnits="userSpaceOnUse" x1="-9050.503" y1="196.318" x2="-9069.196" y2="147.714" gradientTransform="matrix(-1 0 0 1 -8431.815 0)"><stop offset="0" stop-color="#ff7100"/><stop offset=".041" stop-color="#ff8600"/><stop offset=".098" stop-color="#ff9d00"/><stop offset=".16" stop-color="#ffad00"/><stop offset=".23" stop-color="#ffb600"/><stop offset=".324" stop-color="#ffb900"/><stop offset="1" stop-color="#ffff91"/></linearGradient><path d="M618.7 195.9c-5.9-2.1-8.8-8.5-6.5-14.3 1.8-4.4 6-7.3 10.6-7.4l12.9-32.8 7.8 2.8-13 32.8c3.3 2.9 4.6 7.7 2.8 12.1-2.1 5.8-8.7 8.9-14.6 6.8z" fill-rule="evenodd" clip-rule="evenodd" fill="url(#SVGID_16_)"/><linearGradient id="SVGID_17_" gradientUnits="userSpaceOnUse" x1="-9048.766" y1="194.738" x2="-9061.317" y2="174.976" gradientTransform="matrix(-1 0 0 1 -8431.815 0)"><stop offset="0" stop-color="#ff7100"/><stop offset=".041" stop-color="#ff8600"/><stop offset=".098" stop-color="#ff9d00"/><stop offset=".16" stop-color="#ffad00"/><stop offset=".23" stop-color="#ffb600"/><stop offset=".324" stop-color="#ffb900"/><stop offset="1" stop-color="#ffff91"/></linearGradient><path d="M619.5 194c-4.8-1.7-7.2-6.9-5.3-11.7 1.9-4.8 7.3-7.2 12.1-5.5 4.8 1.7 7.2 6.9 5.3 11.7-1.9 4.7-7.3 7.2-12.1 5.5z" fill-rule="evenodd" clip-rule="evenodd" fill="url(#SVGID_17_)"/><path class="st18" d="M612.6 267.9c.2-1.3 4.1-2.1 5.4-1.9.9.2 6.7 2.3 5.4 2.4-2.5.1-5.9.2-8.1-.8-.7-.2-2.6-.7-2.7.3z"/><path class="st18" d="M612.5 268.4c-.3-6 15.6-9 14.1-8.3-3.8 1.9-5.9 5.4-10.7 5.9-.8.1-3.5.9-3.4 2.4z"/><path class="st12" d="M622.4 180.7l2.5 1.1c.6.3 1.1.5 1.3.8.3.2.4.6.5.9.1.4.1.8-.1 1.2-.1.3-.3.6-.5.8-.2.2-.5.3-.8.4.3.2.4.5.5.9.1.4 0 .8-.1 1.2-.3.6-.7 1-1.2 1.1-.5.1-1.2 0-1.9-.3l-2.9-1.3 1.6-3.9 1.1.5 1.2.5c.5.2.8.3 1 .3.2 0 .4 0 .6-.1.2-.1.3-.3.4-.5.1-.4.1-.7-.1-.9-.2-.2-.6-.5-1.1-.8l-.6-.3-.6-.3-1.1-.5.3-.8zm-1.2 6.3l1.4.6c.6.3 1.1.4 1.4.3.3-.1.5-.3.7-.6.1-.2.1-.4 0-.7-.1-.2-.2-.4-.4-.6-.2-.1-.5-.3-1-.5l-1.3-.5-.8 2z"/><path d="M565.1 398.5c114.5 43.1 89-123.9 102.1-124.8-18.7-.3-41.3 19.2-50.2 35.8-11.6 21.8-15.3 36.7-24.6 56.7-3.3 7-12.6 23.5-21.4 28.6l-5.9 3.7z" fill-rule="evenodd" clip-rule="evenodd" fill="#14d8c2"/><path d="M639.7 309.7c12.3-.2 13-21.2 14.9-21.3-9.2-.1-12.2 21.8-14.9 21.3zm-7.1 37.5c11.6-4 5.6-24.2 7.4-24.9-8.9 2.8-4.8 24.5-7.4 24.9zM609.1 382c12.3 1.2 15.2-19.7 17.1-19.6-9.2-1.2-14.5 20.3-17.1 19.6zm31.5-64.4c-.9 0-1.6-.7-1.6-1.6 0-.9.7-1.6 1.6-1.6.9 0 1.6.7 1.6 1.6-.1.9-.8 1.6-1.6 1.6zm-11.1 39.5c-.9 0-1.6-.7-1.6-1.6 0-.9.7-1.6 1.6-1.6.9 0 1.6.7 1.6 1.6-.1.9-.8 1.6-1.6 1.6z" fill="#06c6ad" fill-rule="evenodd" clip-rule="evenodd"/><path class="st36" d="M108.5 471.2H42.7c-1.1 0-2 .9-2 2v8.1c0 1.1.9 2 2 2h65.8c1.1 0 2-.9 2-2v-8.1c0-1.1-.9-2-2-2z"/><path class="st37" d="M93 420s27.7-5.5 35.5-24.8c7.7-19.4-20.6-33.9-35.5-23.5-16 11.1 0 48.3 0 48.3z"/><path class="st38" d="M76.5 470.9c.2 0 .5-.2.5-.4 2.7-18 13.4-43.8 21.9-62.4 9.2-20.1 18-36.1 18-36.3.1-.2 0-.5-.2-.7-.2-.1-.5 0-.7.2-.1.2-8.8 16.2-18.1 36.3-8.5 18.6-19.3 44.5-22 62.6.1.4.2.6.6.7-.1-.1 0 0 0 0z"/><path class="st38" d="M94 418.1c.2 0 .4-.1.4-.3 12.1-22.5 31.7-38.8 31.9-38.9.2-.2.2-.5.1-.7-.2-.2-.5-.2-.7-.1-.2.2-19.9 16.6-32.1 39.2-.1.2 0 .5.2.7.1.1.1.1.2.1z"/><path class="st38" d="M93.5 419.8c.1 0 .3-.1.4-.2 8.8-10.4 17.8-16.8 23.8-20.4 6.5-3.9 11-5.3 11-5.3.3-.1.4-.4.3-.6-.1-.3-.4-.4-.6-.3-.2.1-4.6 1.5-11.2 5.4-6.1 3.6-15.2 10.1-24.1 20.6-.2.2-.2.5.1.7 0 0 .2.1.3.1zm2.4-5.9c.2 0 .4-.1.5-.3 6.8-19.8 4.3-44 4.2-44.2 0-.3-.3-.5-.6-.4-.3 0-.5.3-.4.6 0 .2 2.5 24.1-4.2 43.8-.1.3.1.5.3.6.1-.1.2-.1.2-.1z"/><path class="st38" d="M94.2 417.8c.2 0 .5-.2.5-.4 2.1-12.6.5-22.8-1.2-29.2-1.8-6.9-4.1-10.8-4.2-11-.1-.2-.4-.3-.7-.2-.2.1-.3.4-.2.7 0 0 2.3 4 4.1 10.8 1.7 6.3 3.2 16.4 1.2 28.7 0 .3.2.5.5.6z"/><path class="st37" d="M63.7 425.1s-28-3.8-36.9-22.7c-8.9-18.9 18.5-35 34-25.5 16.7 10.1 2.9 48.2 2.9 48.2z"/><path class="st37" d="M75.5 386.5s-23.3-16.1-22.7-36.9c.6-20.8 32.3-22.9 41.9-7.4 10.2 16.5-19.2 44.3-19.2 44.3z"/><path class="st38" d="M74.4 469.2c.3 0 .5-.2.5-.5-.1-9.3-2.1-19.8-6-31.3-3.1-9.2-7.4-19.1-12.7-29.3-9.1-17.4-18.2-30.1-18.3-30.3-.2-.2-.5-.3-.7-.1-.2.2-.3.5-.1.7.1.1 9.2 12.8 18.3 30.1 8.3 16 18.3 39.5 18.6 60.2-.1.3.1.5.4.5z"/><path class="st38" d="M62.5 423.3c.1 0 .2 0 .3-.1.2-.1.3-.5.2-.7-13.5-21.9-34.2-37.1-34.4-37.3-.2-.2-.5-.1-.7.1-.2.2-.1.5.1.7.2.2 20.7 15.3 34.1 37 .1.2.3.3.4.3z"/><path class="st38" d="M63.2 424.8c.1 0 .2 0 .3-.1.2-.2.2-.5 0-.7-9.5-9.9-19-15.9-25.3-19.1-6.8-3.5-11.3-4.7-11.5-4.7-.3-.1-.5.1-.6.4s.1.5.4.6c0 0 4.6 1.2 11.3 4.7 6.2 3.2 15.6 9.1 25 18.9h.4zM60.4 419.1h.2c.3-.1.4-.4.3-.7-7.8-19.2-6.8-43.2-6.8-43.5 0-.3-.2-.5-.5-.5s-.5.2-.5.5c0 .2-1.1 24.5 6.9 43.9 0 .2.2.3.4.3z"/><path class="st38" d="M62.3 422.9h.1c.3-.1.4-.3.4-.6-2.8-12.2-1.8-22.4-.5-28.8 1.4-6.9 3.5-11 3.5-11 .1-.2 0-.5-.2-.7-.2-.1-.5 0-.7.2-.1.2-2.2 4.2-3.6 11.2-1.3 6.5-2.3 16.8.5 29.2.1.4.3.5.5.5z"/><g><path class="st38" d="M77.8 441.9h.1c.3-.1.4-.3.4-.6-4.2-17.7-3.8-45.7-2.8-66 1.1-22.1 3.3-40.2 3.3-40.4 0-.3-.2-.5-.4-.6-.3 0-.5.2-.6.4 0 .2-2.2 18.3-3.3 40.5-1.1 20.4-1.4 48.5 2.8 66.3.1.3.3.4.5.4z"/><path class="st38" d="M74.6 386.5c.3 0 .5-.2.5-.4 2.9-25.3 15-47.7 15.2-48 .1-.2 0-.5-.2-.7-.2-.1-.5 0-.7.2-.1.2-12.4 22.8-15.3 48.3 0 .3.2.6.5.6z"/><path class="st38" d="M74.7 388.2c.2 0 .4-.1.5-.3 4.3-12.9 10.3-22.2 14.6-27.7 4.6-6 6.3-7.7 6.3-7.8.2-.2.2-.5.1-.7-.2-.2-.5-.2-.7-.1-.2.1-1.7 1.8-6.4 7.9-4.3 5.6-10.4 15-14.8 28.1-.1.3.1.5.3.6h.1zm.1-6.4c.3 0 .5-.3.5-.5-1.1-20.9-12.3-42.4-12.4-42.6-.1-.2-.4-.3-.7-.2-.2.1-.3.4-.2.7.1.2 11.3 21.5 12.3 42.2 0 .2.2.4.5.4z"/><path class="st38" d="M74.6 386.1h.1c.3-.1.4-.3.4-.6-2.7-12.4-8-21.4-12-26.8-4.3-5.8-7.9-8.7-8-8.8-.2-.2-.5-.1-.7.1-.2.2-.1.5.1.7 0 0 3.7 2.9 7.9 8.6 3.9 5.3 9.1 14.1 11.8 26.4 0 .2.2.4.4.4z"/></g><g><path d="M45.5 439.2l.8 2.2.5 1.4 1.5 4 .5 1.4 1.5 4.1.5 1.4 6.6 17.6h36.1l6.6-17.6.5-1.4 1.5-4.1.5-1.4 1.5-4 .5-1.4.8-2.2c.6-1.5-.5-3.1-2.2-3.1H47.7c-1.6 0-2.8 1.6-2.2 3.1z" fill="#fdba00"/></g><g><path class="st40" d="M48.4 446.8l.5 1.4h53.5l.5-1.4z"/></g><g><path class="st36" d="M85.3 483.3l2 6.4 27.9 69.3h5.4L103 491.6l-1.7-8.3z"/></g><g><path class="st36" d="M30.5 559h5.4l28.7-71.9 1.2-3.8h-16l-.4 2z"/></g><g><linearGradient id="SVGID_18_" gradientUnits="userSpaceOnUse" x1="-8928.648" y1="509.901" x2="-8929.03" y2="467.949" gradientTransform="matrix(-1 -.00748 -.00748 1 -8384.376 -33.313)"><stop offset="0" stop-color="#ff7100"/><stop offset=".111" stop-color="#ff8600"/><stop offset=".265" stop-color="#ff9d00"/><stop offset=".433" stop-color="#ffad00"/><stop offset=".623" stop-color="#ffb600"/><stop offset=".88" stop-color="#ffb900"/><stop offset="1" stop-color="#ffff91"/></linearGradient><path d="M402.7 531.4l275.5 1.1c3.2 0 5.8-2.5 5.8-5.7s-2.5-5.8-5.7-5.8l-275.5-1.1c-3.2 0-5.8 2.5-5.8 5.7s2.5 5.8 5.7 5.8z" opacity=".7" fill="url(#SVGID_18_)"/><defs><path id="XMLID_51_" d="M423.3 520.1l77.7.6c1.8 0 3.2-1.4 3.2-3.1l.1-11.3c0-1.8-1.4-3.2-3.1-3.2l-77.7-.6c-1.8 0-3.2 1.4-3.2 3.1l-.1 11.3c-.1 1.8 1.3 3.2 3.1 3.2z"/></defs><linearGradient id="XMLID_2_" gradientUnits="userSpaceOnUse" x1="-8892.41" y1="478.72" x2="-8808.354" y2="478.72" gradientTransform="matrix(-1 -.00748 -.00748 1 -8384.376 -33.313)"><stop offset="0" stop-color="#4ecbff"/><stop offset=".244" stop-color="#4bc4ff"/><stop offset=".592" stop-color="#44b2fe"/><stop offset="1" stop-color="#3793fd"/></linearGradient><use xlink:href="#XMLID_51_" overflow="visible" fill="url(#XMLID_2_)"/><clipPath id="XMLID_3_"><use xlink:href="#XMLID_51_" overflow="visible"/></clipPath><path transform="matrix(-1 -.00748 .00748 -1 974.989 1028.3)" class="st42" d="M487 498.3h4.9v28H487z"/><path transform="rotate(-179.556 481.63 512.27) scale(1.00003)" class="st42" d="M480.9 498.3h1.5v28h-1.5z"/></g><path transform="rotate(-180 436.463 545.724)" class="st43" d="M429.6 531.7h13.7v28h-13.7z"/><path transform="rotate(-180 644.872 545.724)" class="st43" d="M638 531.7h13.7v28H638z"/><g><path class="st40" d="M308 386.2h-4.4l-.1-18.9h4.4c4.7 0 8.5 3.8 8.6 8.4v1.9c-.1 4.7-3.8 8.6-8.5 8.6zm-1.2-3.3h1.1c2.9 0 5.2-2.4 5.2-5.3v-1.9c0-2.9-2.4-5.2-5.3-5.2h-1.1l.1 12.4z"/><path transform="matrix(1 -.00748 .00748 1 -2.814 2.214)" class="st44" d="M282.4 359.8h24.5v35.3h-24.5z"/></g><path class="st44" d="M579.2 507.6v-6.3c0-1.3 1.1-2.4 2.4-2.4h37.6c1.3 0 2.4 1.1 2.4 2.4v6.3c0 1.3-1.1 2.4-2.4 2.4h-37.6c-1.3 0-2.4-1.1-2.4-2.4z"/><path class="st40" d="M621.6 506.9v.6c0 1.4-1.1 2.5-2.5 2.5h-37.3c-1.4 0-2.5-1.1-2.5-2.5v-.6h42.3z"/><path d="M579.2 518.6v-6.3c0-1.3 1.1-2.4 2.4-2.4h37.6c1.3 0 2.4 1.1 2.4 2.4v6.3c0 1.3-1.1 2.4-2.4 2.4h-37.6c-1.3 0-2.4-1.1-2.4-2.4z" fill="#3eb8ff"/><path class="st3" d="M196.8 96.5h10.8v-3.7h4.5v3.7h433.2v-3.7h4.5v3.7h6.5c3.3 0 5.9 2.8 5.9 6.4 0 3.5-2.6 6.4-5.9 6.4h-6.5v3.7h-4.5v-3.7H212.1v3.7h-4.5v-3.7h-10.8c-3.3 0-5.9-2.8-5.9-6.4 0-3.5 2.6-6.4 5.9-6.4z"/><g><path d="M251.4 451.8c-7-3.2-11.4-15.1-17.3-11.9-5.4 2.9-.1-25.3 7.2-25.2 7.3.1 20.5 5.4 19.7 13.9-.9 8.6-4 25.8-9.6 23.2z" fill="#d12d54"/><path class="st47" d="M210.8 334.2s-12.9 28.5-15.9 59.7c-2 20.6-4.9 41-4.9 41s7.7 8.4 18 1.8c10.3-6.6 11.1-93.2 11.1-93.2l-8.3-9.3zm40.6 117.6c-7-3.2-11.4-15.1-17.3-11.9-5.4 2.9-.1-25.3 7.2-25.2 7.3.1 20.5 5.4 19.7 13.9-.8 8.6-4 25.8-9.6 23.2z"/><path class="st47" d="M198 442.1s.6 7 7.2 7.8c6.6.8 12.8-2.1 12.8-2.1s.9-10-7.6-11.1c-10.6-1.2-12.4 5.4-12.4 5.4z"/><path d="M202.1 96.2h2.8v22.5h-2.8zm23.2 0h2.8v22.5h-2.8zm23.1 0h2.8v22.5h-2.8zm23.1 0h2.8v22.5h-2.8zm23.2 0h2.8v22.5h-2.8zm21.6 0h2.8v22.5h-2.8zm19.8 0h2.8v22.5h-2.8z" fill="#c8c8c8"/><path class="st38" d="M329.7 113.1H200.3s-2.3 72.9-.4 112.7c3 64.5 9.1 94.8 9.1 94.8l2.9 10.6s-6.1 36.5-8.3 53.1c-5.5 41-5.5 57.8-5.5 57.8s1.4-2.2 3.6-3.3c2.5-1.3 6.9.7 8.2 4 5.3 13 10.1 13 16.3 9.9 14.9-7.6 14.7-22.8 21.9-17.5 1.7 1.2 2.3 2.7 2.5 4.3.5-4.8-2.4-35.4-6.6-49.9-4.2-14.5-10.8-48.4-10.8-48.4l2.4-2.5s8.7 23.2 14.7 40.7c6 17.5 10.7 53 9.8 61.5-.4 4.2.2 7.1.9 9 3.7-1.8 13.6-8.1 13.6-8.1s-1.5-26.8-11.5-60.7c-4.7-15.8-15.6-34.2-21.8-42.4.1-1.8 4.3-12.1 4.3-12.1s39.5-6.7 65.8-65.5c23.5-52.6 33.2-147.9 33.2-147.9h-14.9z"/><path class="st47" d="M260.1 440.9c.8-8.5-3.8-44-9.8-61.5-6-17.5-14.7-40.7-14.7-40.7l-2.4 2.5s6.7 33.9 10.8 48.4c4.2 14.5 7.1 45.2 6.6 49.9.6 5.1-4.1 11 .9 12.4.7.2 1.5.2 2.3.2 1.5-.1 3.1-.4 4.7-1 .9-.3 1.7-.7 2.6-1.1-.8-2-1.4-4.9-1-9.1zM219 338.7s-.1 12 0 24.9c.1 7.8 2.3 46.5 2.3 46.5s3.5-17.5 2.6-35.7c-.5-11.1-.5-32.7-.5-32.7l-4.4-3zm39.3-64.5c-5.7 22.2-15.1 49.7-29.2 63 9.3-11.4 22.6-50.2 24.8-65.5 12.7-86.5 12.7-151.2 12.7-151.2s10.1 82-8.3 153.7zm-27 21.8s-5.1 32.2-9.8 38.3c-3 4 3.3 2 3.3 2s7.7-15.7 6.5-40.3zM219 200.4c-3.5 32.2 2.6 72.2 1.7 121.2 9-35.5.8-99-1.7-121.2zm68.3-81.2c-.3 24.6-2.7 53.2-4.4 77.8-1.4 20.5-16.3 82.3-16.3 82.3s15.8-40.9 19.9-79.1c2.1-19.9 5.5-61.5.8-81z"/><path class="st47" d="M239.1 391.1s1.5 17.6 2.2 23.6c.7 5.9 3.2 13.9 3.2 13.9s1-9.4.3-15.6c-.8-6.1-5.7-21.9-5.7-21.9z"/><linearGradient id="SVGID_19_" gradientUnits="userSpaceOnUse" x1="-8674.572" y1="334.108" x2="-8641.377" y2="334.108" gradientTransform="matrix(-1 0 0 1 -8431.815 0)"><stop offset="0" stop-color="#4ecbff"/><stop offset=".244" stop-color="#4bc4ff"/><stop offset=".592" stop-color="#44b2fe"/><stop offset="1" stop-color="#3793fd"/></linearGradient><path d="M224.1 341.2c-4.2-1.1-8.1-5.8-8.5-9.1 2.3 3.2 11.8 6.4 18.1 4.6 3.5-1.5 7.5-4 9.1-8.7-3 1.4-8.2 2.9-15.5 1.9-10.5-1.4-17.7-7-17.7-7s.2 11.3 2.5 14.2c5.8 7.3 12.2 10.3 23.4 5.7 3-1.2 5.1-3.4 6.6-5.8-4.8 3.9-12 5.9-18 4.2z" fill="url(#SVGID_19_)"/><path d="M242.8 328.1c-1.6 4.6-5.5 7.1-9.1 8.7-6.3 1.7-15.8-1.5-18.1-4.6.4 3.3 4.3 8 8.5 9.1 6 1.6 13.2-.3 18-4.1 3-4.9 3.5-10.6 3.5-10.6s-1 .7-2.8 1.5z" opacity=".74" fill="#2786d0"/><path class="st47" d="M207.6 120.5s-2.9 29.5-3.1 50.4c-.2 20.9 5.1 77.1 5.1 77.1s.3-60.3 0-85.3c-.4-25-2-42.2-2-42.2z"/></g><g><path class="st38" d="M393.5 367.1c6-5.9 11.8-11.9 17.5-18.1 2.9-3.1 5.8-6.1 8.5-9.3 2.7-3.2 5.4-6.4 8-9.7 5.2-6.6 10.2-13.3 15.2-20l7.5-10.1 3.8-5 1.9-2.5 1-1.2.5-.6.3-.3.4-.4.3-.3.4.2c1.1.5 1.9 1.1 2.7 1.7.8.6 1.6 1.3 2.3 2 1.5 1.3 3 2.7 4.4 4.1 2.9 2.8 5.7 5.7 8.5 8.6 5.6 5.8 11 11.7 16.4 17.6 2.7 3 5.3 6 7.9 9.1 2.6 3 5.2 6.1 7.9 9 5.3 6 10.8 11.8 16.5 17.5 2.8 2.8 5.7 5.6 8.6 8.4 2.9 2.8 5.8 5.5 8.9 8 3.1 2.5 6.4 4.8 9.9 6.6 3.5 1.8 7.4 3 11.3 2.8 1.9-.1 3.8-.7 5.5-1.7 1.7-1 3.2-2.3 4.5-3.8 2.5-3 4.6-6.5 6.6-10 1.9-3.5 3.7-7.1 5.3-10.8 1.6-3.7 3.1-7.4 3.9-11.3-.8 3.9-2.2 7.7-3.7 11.4s-3.2 7.4-5.1 10.9c-1.9 3.5-3.9 7-6.4 10.2-1.3 1.6-2.8 3-4.6 4-1.8 1-3.8 1.7-5.9 1.8-4.1.3-8.2-1-11.8-2.7-3.6-1.8-7-4.1-10.2-6.6-3.2-2.5-6.2-5.2-9.1-8-2.9-2.8-5.8-5.6-8.6-8.4-5.7-5.7-11.2-11.5-16.6-17.5-2.7-3-5.4-6-8-9-2.6-3.1-5.2-6.1-7.9-9-5.4-5.9-10.8-11.9-16.3-17.6-2.8-2.9-5.6-5.8-8.4-8.6-1.4-1.4-2.9-2.8-4.4-4.1-.7-.7-1.5-1.3-2.3-1.9-.8-.6-1.6-1.2-2.3-1.5l.6-.1-.2.2-.2.3-.5.6-1 1.2-1.9 2.5-3.8 5-7.6 10c-5.1 6.7-10.2 13.3-15.5 19.9-2.6 3.3-5.3 6.5-8.1 9.7-2.8 3.1-5.8 6.1-8.7 9.1-5.9 6-11.8 11.9-17.9 17.7z"/></g></svg>